<svg xmlns="http://www.w3.org/2000/svg" width="24" height="24" viewBox="0 0 24 24" id="Vlt-icon-hearing"><path fill="#000" fill-rule="nonzero" d="M8.433 2.213c1.386.348 2.383 1.067 2.964 2.138 1.331 2.454.086 6.079-.658 8.245l-.176.516c-.333.997-1.036 1.7-1.716 2.379-.71.711-1.382 1.382-1.632 2.365-.422 1.653-1.485 2.151-2.08 2.3-.234.06-.473.086-.708.086-.847 0-1.65-.346-2.048-.78-.505-.551-.697-1.18-.825-1.596-.02-.067-.038-.13-.056-.184a.65.65 0 0 1 .237-1.219c.73-.067.944.637 1.061 1.021.111.359.236.766.541 1.099.173.19.851.471 1.481.313.56-.141.943-.599 1.137-1.363.34-1.327 1.207-2.195 1.973-2.961.6-.599 1.166-1.166 1.402-1.872l.18-.526c.674-1.964 1.803-5.251.744-7.203-.406-.748-1.105-1.237-2.137-1.496C3.63 2.343 2.332 7.115 2.28 7.319a.646.646 0 0 1-.792.466.648.648 0 0 1-.466-.792c.558-2.156 2.826-5.929 7.412-4.78zm-5.079 11.36c-.004 0 1.202-.355 2.398-2.949.212-.46.413-1.095.16-1.496-.225-.354-.766-.514-1.162-.577a16.09 16.09 0 0 0-.454 2.072.65.65 0 1 1-1.283-.203c.83-5.236 2.704-5.762 4.41-5.592 1.641.163 2.164 1.49 2.116 2.34-.02.358-.334.611-.687.612a.65.65 0 0 1-.612-.68c.01-.266-.069-.89-.947-.979-.56-.055-1.364-.125-2.06 1.2.59.13 1.338.423 1.773 1.106.458.72.434 1.642-.074 2.742-1.485 3.221-3.137 3.64-3.32 3.676a.646.646 0 0 1-.766-.507.65.65 0 0 1 .508-.766zm11.748-6.13c.554 1.266.68 2.807.355 4.338-.309 1.463-1.005 2.778-1.959 3.705a.65.65 0 0 1-.92-.014.652.652 0 0 1 .013-.92c.772-.748 1.338-1.828 1.595-3.041.27-1.268.171-2.528-.275-3.547a.65.65 0 1 1 1.191-.521zm2.957-2.067a11.58 11.58 0 0 1 .765 7.188 11.605 11.605 0 0 1-3.507 6.166.65.65 0 0 1-.919-.038.65.65 0 0 1 .038-.919 10.304 10.304 0 0 0 3.116-5.478 10.294 10.294 0 0 0-.679-6.388.65.65 0 1 1 1.186-.531zm3.285-1.854a16.738 16.738 0 0 1 .89 9.836 16.737 16.737 0 0 1-4.78 8.609.647.647 0 0 1-.919-.016.65.65 0 0 1 .017-.92 15.44 15.44 0 0 0 4.41-7.943 15.44 15.44 0 0 0-.82-9.074.649.649 0 0 1 .354-.847.648.648 0 0 1 .848.355z"/></svg>