<svg xmlns="http://www.w3.org/2000/svg" width="24" height="24" viewBox="0 0 24 24" id="Vlt-icon-quit"><path fill="#000" fill-rule="nonzero" d="M12 23C6.21 23 1.5 18.247 1.5 12.406c0-3.72 1.97-7.21 5.14-9.112a.766.766 0 0 1 1.056.27.782.782 0 0 1-.269 1.066c-2.705 1.622-4.386 4.603-4.386 7.776 0 4.984 4.018 9.04 8.958 9.04 4.942 0 8.96-4.056 8.96-9.04 0-3.197-1.7-6.187-4.435-7.805a.782.782 0 0 1-.276-1.064.766.766 0 0 1 1.054-.277c3.207 1.896 5.198 5.4 5.198 9.146C22.5 18.247 17.79 23 12 23zm0-10.223a.774.774 0 0 1-.77-.777V1.777c0-.429.344-.777.77-.777.425 0 .77.348.77.777V12a.774.774 0 0 1-.77.777z"/></svg>