<svg xmlns="http://www.w3.org/2000/svg" width="24" height="24" viewBox="0 0 24 24" id="Vlt-icon-files"><g fill="#000" fill-rule="evenodd"><path d="M21.202 6.364a.654.654 0 0 1 .181.45v10.32c0 1.27-1.029 2.3-2.3 2.3H8.411a2.3 2.3 0 0 1-2.3-2.3V3.311a2.3 2.3 0 0 1 2.296-2.3L15.78 1a.646.646 0 0 1 .471.2l4.952 5.164zm-2.119 11.77a1 1 0 0 0 1-1V8.125h-4.088a1.65 1.65 0 0 1-1.65-1.65V2.302l-5.935.01a1.001 1.001 0 0 0-.999 1v13.821a1 1 0 0 0 1 1h10.672zm.761-11.308l-4.199-4.378v4.028c0 .193.157.35.35.35h3.85z"/><path d="M17.17 14.268a.65.65 0 1 1 0 1.3h-6.95a.65.65 0 1 1 0-1.3h6.95zm0-2.663a.65.65 0 1 1 0 1.3h-6.95a.65.65 0 1 1 0-1.3h6.95zm-.511 8.474a.65.65 0 0 1 .65.65 2.147 2.147 0 0 1-2.147 2.147H4.801a2.3 2.3 0 0 1-2.301-2.3V6.556c0-1.186.961-2.147 2.146-2.147a.65.65 0 1 1 0 1.301.845.845 0 0 0-.845.845v14.021a1 1 0 0 0 1 1h10.361c.468 0 .847-.38.847-.848a.65.65 0 0 1 .65-.649zm-6.439-9.816a.65.65 0 1 1 0-1.301h2.235a.65.65 0 0 1 0 1.301H10.22z"/></g></svg>