<svg xmlns="http://www.w3.org/2000/svg" width="24" height="24" viewBox="0 0 24 24" id="Vlt-icon-gallery"><g fill="#000" fill-rule="evenodd"><path d="M2.74 17.973L1.374 6.325a1.618 1.618 0 0 1 1.414-1.786l14.257-1.666a1.626 1.626 0 0 1 1.73 1.123.68.68 0 1 0 1.301-.405 2.987 2.987 0 0 0-3.189-2.071L2.631 3.186a2.98 2.98 0 0 0-2.61 3.297L1.384 18.13c.07.596.316 1.145.701 1.59a.68.68 0 1 0 1.031-.891 1.587 1.587 0 0 1-.377-.857"/><path d="M22.637 11.19c-1.566.03-2.984.786-4.906 2.416a3.68 3.68 0 0 0-3.402-2.273 3.67 3.67 0 0 0-3.463 2.472c-1.938-.752-3.67-.794-5.131-.293-.014.004-.022.008-.035.013V7.938c0-.711.58-1.29 1.292-1.29h14.354c.712 0 1.29.579 1.29 1.29v3.253zm-10.528 3.188a2.312 2.312 0 0 1 4.498.22c-.107.099-.204.184-.313.286-.566.529-1.026.953-1.444 1.33-.95-.768-1.863-1.376-2.741-1.836zm10.528 5.289c0 .71-.58 1.288-1.291 1.288H6.992A1.292 1.292 0 0 1 5.7 19.667v-4.658a2.45 2.45 0 0 1 .476-.208c1.917-.656 4.485-.166 7.637 2.33-1.04.874-1.51 1.087-2.055 1.087a.681.681 0 1 0 0 1.363c1.412 0 1.982-.448 5.466-3.701 2.449-2.286 3.95-3.283 5.413-3.325v7.112zm-1.291-14.38H6.992a2.652 2.652 0 0 0-2.654 2.65v11.73c0 1.462 1.19 2.65 2.654 2.65h14.354A2.655 2.655 0 0 0 24 19.667V7.937a2.653 2.653 0 0 0-2.654-2.65z"/><path d="M10.173 9.485a.683.683 0 0 0-.884 1.039l1.005.854a.682.682 0 0 0 .884-1.037l-1.005-.856zM14.438 7.67a.681.681 0 0 0-.68.68v1.206a.68.68 0 0 0 1.363 0V8.35a.681.681 0 0 0-.683-.68M18.506 9.508l-.905.856a.683.683 0 0 0-.027.964c.26.273.69.284.964.026l.904-.856a.681.681 0 1 0-.936-.99"/></g></svg>