<svg xmlns="http://www.w3.org/2000/svg" width="24" height="24" viewBox="0 0 24 24" id="Vlt-icon-duplicate"><path fill="#000" fill-rule="nonzero" d="M21.564 19.764v-1.835H23v1.835h-1.436zm0-6.42V11.51H23v1.835h-1.436zm0 3.21v-1.833H23v1.833h-1.436zm.005 5.01l.001-.04H23v.758a.718.718 0 0 1-.718.718h-.713v-1.436zM17.921 23v-1.436h1.914V23H17.92zm-3.35 0v-1.436h1.914V23h-1.914zm-3.35 0v-1.436h1.915V23h-1.914zm-1.44-1.437v.002h.036V23h-.754a.718.718 0 0 1-.718-.718v-.72H9.78zm-1.436-1.73v-1.914h1.436v1.914H8.345zM4.21 15.655v-1.436h1.914v1.436H4.21zm-1.774-1.47l-.003 1.47h-.715A.718.718 0 0 1 1 14.937v-.753h1.436zM1 12.488v-1.835h1.436v1.835H1zm0-3.21V7.444h1.436v1.833H1zm0-3.21V4.236h1.436V6.07H1zm1.436-3.633L1 2.438v-.72C1 1.322 1.322 1 1.718 1h.715v1.436h.003zm8.43 0V1h1.914v1.436h-1.914zm-3.35 0V1H9.43v1.436H7.516zm-3.35 0V1h1.915v1.436H4.167zm10.055 0h-.002V1h.72c.395 0 .717.322.717.718v.717h-1.435zm0 3.643V4.165h1.435V6.08H14.22zm3.655 3.7V8.345h1.914V9.78h-1.914zm4.406-1.435c.396 0 .718.321.718.718v.717h-1.436.002V8.344h.716zM8.345 16.406v-.751h-.751v-1.436h.751V9.062c0-.397.322-.718.718-.718h5.157v-.752h1.436v.752h.752V9.78h-.752v5.157c0 .396-.321.718-.718.718H9.78v.75H8.345zm1.435-2.187h4.44V9.78H9.78v4.44z"/></svg>