<svg xmlns="http://www.w3.org/2000/svg" width="24" height="24" viewBox="0 0 24 24" id="Vlt-icon-gear"><path fill="#000" fill-rule="nonzero" d="M14.038 1h-.005l-4.228.017A1.214 1.214 0 0 0 8.61 2.039l-.382 2.39-1.247.671-2.16-.857a1.214 1.214 0 0 0-1.487.498L1.177 8.303a1.212 1.212 0 0 0 .32 1.607l1.975 1.45v1.297L1.51 14.16a1.213 1.213 0 0 0-.3 1.592l2.138 3.526a1.214 1.214 0 0 0 1.487.499l2.259-.897 1.181.677.531 2.484c.12.56.615.96 1.188.96h4.215c.595 0 1.102-.43 1.198-1.017l.399-2.432 1.17-.67 2.218.888a1.215 1.215 0 0 0 1.489-.497l2.14-3.518a1.213 1.213 0 0 0-.298-1.593l-2.036-1.56-.15-1.212 2.03-1.515a1.212 1.212 0 0 0 .31-1.601l-2.154-3.547a1.214 1.214 0 0 0-1.487-.498l-2.245.894-1.163-.666-.393-2.436A1.213 1.213 0 0 0 14.038 1m0 1.213l.486 3.008 2.172 1.244 2.79-1.11 2.155 3.547-2.595 1.936.3 2.418 2.44 1.868-2.142 3.519-2.762-1.105-2.181 1.247-.493 3.001H9.993l-.645-3.013-2.16-1.238-2.803 1.113-2.138-3.526 2.438-1.866v-2.512l-2.47-1.813 2.158-3.56 2.684 1.066 2.276-1.224.476-2.983 4.229-.017zM12 8c-2.205 0-4 1.795-4 4s1.795 4 4 4 4-1.795 4-4-1.795-4-4-4zm0 1.299a2.7 2.7 0 1 1 0 5.402 2.7 2.7 0 0 1 0-5.402z"/></svg>