<svg xmlns="http://www.w3.org/2000/svg" width="24" height="24" viewBox="0 0 24 24" id="Vlt-icon-voicemail-2"><path fill="#000" fill-rule="evenodd" d="M22.813 9.485c.119.12.188.283.188.453V21.392A2.612 2.612 0 0 1 20.392 24H3.607A2.611 2.611 0 0 1 1 21.392V9.938c0-.17.068-.333.187-.453L3.472 7.2V3.982c0-.895.728-1.624 1.625-1.624h3.845l1.898-1.9c.613-.61 1.683-.61 2.296 0l1.9 1.9h3.891c.895 0 1.624.729 1.624 1.624v3.24l2.262 2.263zm-1.092 2.236v-1.518l-1.17-1.17v3.666l1.17-.978zM3.607 22.72h16.786c.245 0 .461-.085.658-.2l-5.721-6.086H8.84l-5.795 6.151c.172.082.359.135.561.135zM2.28 13.374v8.018c0 .04.02.075.024.116l4.34-4.606-4.364-3.528zm0-3.171V11.73l1.193.964V9.01L2.28 10.203zm2.818-6.565a.35.35 0 0 0-.345.344v9.746l2.771 2.24.578-.612c.12-.128.289-.2.465-.2h7.04c.177 0 .345.072.466.2l.572.608 2.627-2.195V3.982a.35.35 0 0 0-.344-.344H5.097zm6.648-2.274l-.993.994h2.474l-.994-.994c-.173-.174-.314-.174-.487 0zm5.776 15.535l4.2 4.466v-7.976l-4.2 3.51zm-8.886-4.682a2.878 2.878 0 0 1-2.873-2.874 2.878 2.878 0 0 1 2.873-2.874 2.878 2.878 0 0 1 2.873 2.874c0 .59-.18 1.137-.485 1.594h1.771a2.855 2.855 0 0 1-.486-1.594 2.878 2.878 0 0 1 2.873-2.874 2.877 2.877 0 0 1 2.874 2.874 2.877 2.877 0 0 1-2.874 2.874c-.063 0-.122-.015-.184-.019v.02H8.72v-.01c-.029.001-.055.01-.084.01zm0-4.468a1.595 1.595 0 1 0 1.594 1.594c0-.879-.715-1.594-1.594-1.594zm6.546 0c-.878 0-1.593.715-1.593 1.594 0 .88.715 1.594 1.593 1.594a1.595 1.595 0 0 0 0-3.188z"/></svg>