<svg xmlns="http://www.w3.org/2000/svg" width="24" height="24" viewBox="0 0 24 24" id="Vlt-icon-surprised"><path fill="#000" fill-rule="nonzero" d="M12 21.7c5.357 0 9.7-4.343 9.7-9.7 0-5.357-4.343-9.7-9.7-9.7-5.357 0-9.7 4.343-9.7 9.7 0 5.357 4.343 9.7 9.7 9.7zm0 1.3C5.925 23 1 18.075 1 12S5.925 1 12 1s11 4.925 11 11-4.925 11-11 11zm0-4.8a2.7 2.7 0 1 1 0-5.4 2.7 2.7 0 0 1 0 5.4zm0 1.3a4 4 0 1 0 0-8 4 4 0 0 0 0 8zM7.5 9.7a1.2 1.2 0 1 1 0-2.4 1.2 1.2 0 0 1 0 2.4zm0 1.3a2.5 2.5 0 1 0 0-5 2.5 2.5 0 0 0 0 5zm9-1.3a1.2 1.2 0 1 1 0-2.4 1.2 1.2 0 0 1 0 2.4zm0 1.3a2.5 2.5 0 1 0 0-5 2.5 2.5 0 0 0 0 5z"/></svg>