<svg xmlns="http://www.w3.org/2000/svg" width="24" height="24" viewBox="0 0 24 24" id="Vlt-icon-message"><path fill="#000" fill-rule="nonzero" d="M22 5.606C22 4.06 20.752 2.8 19.217 2.8H4.784C3.248 2.8 2 4.059 2 5.606v9.354c0 1.548 1.248 2.806 2.784 2.806h2.37V21.3l2.918-3.187.383-.347h8.762c1.535 0 2.783-1.258 2.783-2.806V5.606zM8.113 22.178c-.8.875-2.258.308-2.258-.878v-2.234H4.784C2.528 19.066.7 17.223.7 14.96V5.606C.7 3.343 2.528 1.5 4.784 1.5h14.433c2.255 0 4.083 1.843 4.083 4.106v9.354c0 2.263-1.828 4.106-4.083 4.106h-8.255l-2.849 3.112zM9.9 7.3H5v1.3h14V7.3H9.9zm.198 3.7H5v1.3h8V11h-2.902z"/></svg>