<svg xmlns="http://www.w3.org/2000/svg" width="24" height="24" viewBox="0 0 24 24" id="Vlt-icon-file-xls"><g fill="#000" fill-rule="evenodd"><path d="M19.57 22.7H4.43c-.623 0-1.13-.507-1.13-1.131V2.43c0-.623.507-1.13 1.13-1.13h10.254v5.557c0 .359.291.65.65.65H20.7v14.062c0 .624-.507 1.131-1.13 1.131zM15.984 1.848l4.231 4.359h-4.231V1.848zM16.001 0H4.43A2.43 2.43 0 0 0 2 2.43v19.139A2.43 2.43 0 0 0 4.43 24h15.14A2.43 2.43 0 0 0 22 21.569V6.179L16.001 0z"/><path d="M10.55 14.946H9.453a.267.267 0 0 1-.173-.053.406.406 0 0 1-.106-.128l-.946-1.713a.69.69 0 0 1-.058.128l-.881 1.585a.715.715 0 0 1-.107.124.224.224 0 0 1-.16.057H6l1.52-2.518-1.462-2.374h1.095a.33.33 0 0 1 .158.028.25.25 0 0 1 .089.096l.94 1.649a.727.727 0 0 1 .037-.084l.047-.084.823-1.464a.34.34 0 0 1 .095-.108.22.22 0 0 1 .125-.033h1.05L9.036 12.38l1.513 2.565zm3.606-.906v.906h-2.845v-4.892h1.096v3.986h1.75zm3.507-2.992a.422.422 0 0 1-.102.12.223.223 0 0 1-.138.04.328.328 0 0 1-.16-.048 29.006 29.006 0 0 0-.195-.109 1.583 1.583 0 0 0-.247-.11.96.96 0 0 0-.318-.048c-.205 0-.358.046-.458.136a.47.47 0 0 0-.151.368c0 .098.03.18.09.245.061.065.14.12.239.168.098.047.21.09.337.13.126.038.255.082.387.13s.26.105.387.17c.127.065.239.148.337.248.098.101.178.224.238.368s.091.318.091.522c0 .226-.038.438-.113.635a1.491 1.491 0 0 1-.33.515 1.52 1.52 0 0 1-.53.346c-.211.084-.45.126-.718.126-.147 0-.297-.016-.45-.047a2.594 2.594 0 0 1-.843-.336 1.716 1.716 0 0 1-.327-.262l.324-.53a.329.329 0 0 1 .102-.096.26.26 0 0 1 .137-.039.36.36 0 0 1 .196.064c.066.043.14.09.224.141.083.052.179.099.287.141.108.043.235.064.382.064.199 0 .353-.045.463-.136.11-.09.166-.234.166-.431a.417.417 0 0 0-.091-.28.703.703 0 0 0-.238-.177 2.144 2.144 0 0 0-.336-.124 9.743 9.743 0 0 1-.385-.12 2.765 2.765 0 0 1-.386-.16 1.22 1.22 0 0 1-.335-.253 1.185 1.185 0 0 1-.238-.39 1.597 1.597 0 0 1-.091-.575 1.41 1.41 0 0 1 .421-1.004c.138-.137.308-.246.509-.327.2-.082.43-.123.69-.123a2.5 2.5 0 0 1 .423.035 2.16 2.16 0 0 1 .735.269c.107.064.203.136.287.216l-.272.528z"/></g></svg>