<svg xmlns="http://www.w3.org/2000/svg" width="24" height="24" viewBox="0 0 24 24" id="Vlt-icon-heart"><path fill="#000" fill-rule="nonzero" d="M12 20.632l7.617-8.35c.997-.953 1.583-2.359 1.583-3.86 0-2.853-2.083-5.126-4.601-5.126-1.422 0-2.66.718-3.497 2.053L12 7.105l-1.102-1.756C10.06 4.014 8.822 3.296 7.4 3.296c-2.517 0-4.6 2.273-4.6 5.127 0 1.504.588 2.909 1.67 3.948L12 20.632zm-.496-16.658c.177.213.342.443.496.687.154-.244.32-.474.496-.687.244-.257.36-.386.348-.386C13.854 2.562 15.156 2 16.599 2c3.27 0 5.901 2.885 5.901 6.423 0 1.867-.74 3.606-1.984 4.795l-7.653 8.395A1.168 1.168 0 0 1 12 22c-.328 0-.639-.141-.863-.387l-7.63-8.37C2.24 12.028 1.5 10.29 1.5 8.422 1.5 4.885 4.13 2 7.4 2c1.443 0 2.746.563 3.756 1.588l.348.386z"/></svg>