<svg xmlns="http://www.w3.org/2000/svg" width="24" height="24" viewBox="0 0 24 24" id="Vlt-icon-phone-plus"><path fill="#000" fill-rule="nonzero" d="M3.048 4.717c-.298.648-.333 1.458-.105 2.43.227.972.617 1.984 1.169 3.035a23.943 23.943 0 0 0 1.93 3.073c.736.998 1.454 1.848 2.155 2.548.7.7 1.55 1.419 2.548 2.154.998.736 2.023 1.38 3.073 1.931 1.051.552 2.063.942 3.035 1.17.972.227 1.782.192 2.43-.106.77-.368 1.278-.88 1.523-1.537l.368-.985a.905.905 0 0 0-.04-.59c-.078-.185-.249-.355-.512-.513-.245-.175-.928-.617-2.049-1.327-1.12-.709-1.996-.976-2.627-.8-.63.192-1.037.45-1.221.774-.184.324-.556.425-1.117.302-.543-.122-1.173-.477-1.891-1.064-.718-.586-1.244-1.046-1.576-1.379-.316-.315-.771-.832-1.366-1.55-.596-.718-.946-1.348-1.051-1.891-.123-.56-.022-.933.302-1.117.324-.184.573-.59.749-1.221.192-.63-.07-1.506-.788-2.627l-1.314-2.05c-.158-.262-.328-.433-.512-.512a.905.905 0 0 0-.591-.039l-.985.368c-.657.245-1.17.753-1.537 1.523zm14.135 2.01h3.237v1.494h-3.237v3.237H15.69V8.22h-3.236V6.728h3.236V3.492h1.493v3.236zm-7.412 4.73c.572.69 1.004 1.18 1.285 1.46.296.297.793.731 1.48 1.293.544.444.988.702 1.296.788.396-.478.99-.809 1.768-1.046 1.068-.297 2.265.068 3.665.954 1.093.692 1.771 1.13 2.069 1.339.454.281.797.632.99 1.084.193.45.226.936.106 1.415l-.043.14-.368.984c-.37.99-1.12 1.747-2.196 2.26-.937.43-2.034.478-3.266.19-1.083-.254-2.196-.683-3.34-1.284A25.237 25.237 0 0 1 9.977 19c-1.048-.773-1.946-1.532-2.696-2.281-.749-.75-1.508-1.648-2.28-2.696a25.237 25.237 0 0 1-2.035-3.24c-.601-1.144-1.03-2.257-1.284-3.34-.288-1.232-.24-2.33.19-3.266.513-1.076 1.27-1.826 2.26-2.196l.985-.368.139-.043c.479-.12.965-.087 1.415.106.467.2.826.559 1.09 1.002.16.246.597.929 1.316 2.05.903 1.41 1.266 2.622.945 3.672-.213.765-.536 1.367-1.022 1.77.065.295.315.737.771 1.287z"/></svg>