<svg xmlns="http://www.w3.org/2000/svg" width="24" height="24" viewBox="0 0 24 24" id="Vlt-icon-call-bounce"><path fill="#000" fill-rule="nonzero" d="M12.018 11.82h-.008c-.98 0-2.07.096-3.248.281-1.18.186-2.336.46-3.434.814-1.139.368-2.156.836-3.021 1.391-1.02.653-1.704 1.448-2.031 2.36-.382 1.11-.366 2.132.04 3.054l.4.906.03.067.036.063c.245.424.603.741 1.033.917.23.097.489.146.763.146.199 0 .411-.027.63-.08.217-.04.708-.14 2.213-.491 1.569-.367 2.568-.975 3.054-1.861.363-.702.52-1.318.485-1.88.186-.094.563-.23 1.272-.304.805-.084 1.406-.127 1.787-.127.379 0 .97.039 1.773.116.735.07 1.093.214 1.25.302-.038.57.127 1.184.497 1.862.458.891 1.462 1.513 3.054 1.87l2.182.49c.199.053.426.083.64.083.274 0 .533-.05.77-.148.423-.173.78-.49 1.026-.912l.037-.064.03-.068.402-.906c.408-.924.426-1.946.053-3.037-.333-.93-1.017-1.725-2.036-2.378-.867-.554-1.882-1.02-3.019-1.385a22.74 22.74 0 0 0-3.435-.806 21.107 21.107 0 0 0-3.225-.276M5.693 3.3l6.286 5.282 6.568-6.398a.65.65 0 1 1 .907.932l-7.411 7.218L4.65 4.122v4.697a.65.65 0 1 1-1.3 0V2.73 2H11a.65.65 0 1 1 0 1.3H5.693zm6.325 9.837c.906 0 1.918.086 3.036.26 1.125.175 2.206.429 3.245.762 1.039.333 1.947.748 2.726 1.247.777.498 1.278 1.063 1.505 1.697.26.762.257 1.445-.01 2.05l-.401.906a.843.843 0 0 1-.41.37.767.767 0 0 1-.295.052c-.11 0-.233-.017-.369-.051l-2.18-.49c-1.194-.27-1.932-.68-2.214-1.23-.295-.54-.397-.98-.306-1.32.092-.34-.084-.656-.526-.95-.421-.292-1.057-.479-1.909-.56-.843-.08-1.468-.121-1.878-.121h-.013c-.432 0-1.07.044-1.916.132-.846.09-1.486.276-1.918.558-.444.294-.62.61-.529.95.09.341-.007.787-.291 1.338-.296.54-1.038.948-2.225 1.226-1.187.276-1.916.438-2.19.485a1.497 1.497 0 0 1-.372.054.756.756 0 0 1-.293-.053.834.834 0 0 1-.408-.369l-.4-.906c-.266-.604-.267-1.286-.005-2.05.228-.634.73-1.2 1.51-1.699.777-.5 1.686-.917 2.726-1.252a21.409 21.409 0 0 1 3.246-.77 19.882 19.882 0 0 1 3.05-.266h.014z"/></svg>