<svg xmlns="http://www.w3.org/2000/svg" width="24" height="24" viewBox="0 0 24 24" id="Vlt-icon-microphone"><path fill="#000" fill-rule="evenodd" d="M12 16.214c-2.491 0-4.529-2.02-4.529-4.49V4.99C7.471 2.519 9.51.5 12 .5c2.491 0 4.529 2.02 4.529 4.489v6.736c0 2.469-2.038 4.489-4.529 4.489zM8.744 4.989v6.736c0 1.779 1.46 3.226 3.254 3.226 1.796 0 3.255-1.447 3.255-3.226V4.989c0-1.779-1.46-3.227-3.255-3.227-1.794 0-3.254 1.448-3.254 3.227zm10.995 9.243a.629.629 0 0 1 .137.883c-1.677 2.265-4.349 3.664-7.24 3.847v3.275h2.19c.353 0 .638.282.638.632a.634.634 0 0 1-.638.631H9.172a.634.634 0 0 1-.636-.631c0-.35.285-.632.636-.632h2.19v-3.275c-2.89-.183-5.563-1.581-7.239-3.847a.629.629 0 0 1 .136-.882.642.642 0 0 1 .89.136C6.71 16.478 9.27 17.735 12 17.735c2.73 0 5.291-1.257 6.85-3.367a.64.64 0 0 1 .89-.136z"/></svg>