<svg xmlns="http://www.w3.org/2000/svg" width="24" height="24" viewBox="0 0 24 24" id="Vlt-icon-merge-2"><path fill="#000" fill-rule="nonzero" d="M20.262 21.997c-3.724 0-7.505-5.237-7.523-9.019V2.99l4.68 4.7a.738.738 0 0 0 1.044 0 .744.744 0 0 0 0-1.049L12.565.717a.736.736 0 0 0-1.044 0l-5.984 6.01a.742.742 0 0 0 .521 1.264c.19 0 .378-.072.523-.217l4.681-4.701v9.88l.001.026c-.004 3.782-3.794 9.039-7.525 9.039a.74.74 0 0 0-.738.74c0 .41.33.742.738.742 3.494 0 6.833-3.37 8.266-6.997 1.438 3.62 4.77 6.976 8.258 6.976a.74.74 0 0 0 .738-.74.74.74 0 0 0-.738-.742"/></svg>