<svg xmlns="http://www.w3.org/2000/svg" width="24" height="24" viewBox="0 0 24 24" id="Vlt-icon-list-numbers"><path fill="#000" fill-rule="nonzero" d="M8.834 5.317V3.909H21v1.408H8.834zm0 7.239v-1.307H21v1.307H8.834zM4.11 7.026v-3.72l-.805.603-.402-.704L4.31 2.2h.804v4.826H4.11zm-.1 6.435h1.809v.905H2.6v-.604l1.508-1.709c.402-.402.603-.704.603-1.106 0-.402-.302-.704-.603-.704-.302 0-.604.202-.805.503l-.703-.503c.301-.502.804-.904 1.608-.904.805 0 1.508.502 1.508 1.407 0 .503-.2 1.006-.804 1.609l-.905 1.106zm1.005 5.63c.502.201.804.604.804 1.207 0 .804-.704 1.407-1.609 1.407S2.701 21.303 2.5 20.6l.804-.301c.1.301.403.502.805.502s.704-.2.704-.603c0-.301-.302-.603-.805-.603h-.301v-.905h.402c.402 0 .603-.302.603-.603 0-.302-.302-.603-.603-.603-.402 0-.604.2-.704.402l-.804-.402c.301-.403.804-.805 1.508-.805.905 0 1.508.503 1.508 1.307.1.503-.201.905-.603 1.106zm3.82.704V18.59H21v1.206H8.834z"/></svg>