<svg xmlns="http://www.w3.org/2000/svg" width="28" height="24" viewBox="0 0 28 24" id="Vlt-icon-phone-down"><path fill="#000" fill-rule="nonzero" d="M2.557 16.091c.1.04.214.06.345.06.13 0 .276-.02.437-.06.321-.053 1.182-.236 2.58-.548 1.399-.312 2.272-.773 2.621-1.38.335-.623.449-1.125.342-1.509-.106-.382.102-.74.623-1.071.51-.318 1.262-.527 2.26-.627.997-.1 1.749-.151 2.257-.151.482 0 1.225.044 2.228.136 1.003.092 1.753.302 2.248.633.52.33.728.687.62 1.07-.107.384.013.88.36 1.487.334.621 1.203 1.083 2.607 1.386 1.406.302 2.261.488 2.569.552.321.08.582.08.783 0 .201-.08.361-.219.482-.417l.473-1.022c.315-.681.32-1.45.013-2.31-.268-.714-.859-1.352-1.775-1.912-.916-.562-1.986-1.03-3.21-1.406a26.125 26.125 0 0 0-3.823-.858c-1.324-.198-2.52-.295-3.59-.294-1.072 0-2.269.101-3.594.3-1.326.2-2.6.49-3.824.868-1.226.377-2.297.848-3.213 1.41-.918.564-1.511 1.202-1.778 1.916-.309.86-.307 1.63.007 2.31l.47 1.022c.12.198.281.337.482.415zm13.567-3.806c-.957-.087-1.667-.13-2.102-.13-.45 0-1.16.047-2.12.144-.775.077-1.323.225-1.624.4.068.66-.132 1.357-.547 2.128-.585 1.02-1.772 1.645-3.51 2.033-1.405.313-2.292.502-2.55.54-.263.066-.519.1-.77.1a2.293 2.293 0 0 1-2-1.132l-.071-.133-.47-1.021c-.47-1.017-.473-2.147-.046-3.337.383-1.024 1.18-1.883 2.34-2.595C3.673 8.656 4.85 8.14 6.178 7.73c1.293-.4 2.634-.704 4.028-.914 1.391-.209 2.656-.315 3.798-.316 1.144-.001 2.41.102 3.796.309 1.387.206 2.729.507 4.027.904 1.334.411 2.508.925 3.522 1.547 1.157.707 1.955 1.567 2.345 2.612.419 1.172.413 2.3-.058 3.32l-.473 1.02-.072.136c-.27.443-.658.778-1.146.974-.504.2-1.047.2-1.578.068l-2.575-.554c-1.76-.38-2.956-1.016-3.507-2.043-.422-.739-.632-1.436-.563-2.106-.275-.18-.81-.33-1.6-.402z"/></svg>