<svg xmlns="http://www.w3.org/2000/svg" width="24" height="24" viewBox="0 0 24 24" id="Vlt-icon-calendar"><path fill="#000" fill-rule="evenodd" d="M21.027 13.095A5.977 5.977 0 0 1 23 17.545c0 3.279-2.603 5.942-5.82 5.942-.252 0-.498-.022-.74-.054v.054H2.627A1.639 1.639 0 0 1 1 21.837V4.17c0-.909.725-1.65 1.628-1.65h2.318V2.01C4.946 1.157 5.692.5 6.574.5c.882 0 1.628.657 1.628 1.511v.462h5.623v-.462c0-.854.746-1.511 1.628-1.511.882 0 1.628.657 1.628 1.511v.508h2.318c.903 0 1.628.742 1.628 1.651v8.925zm-3.848 9.109c2.503 0 4.538-2.083 4.538-4.658 0-2.576-2.035-4.659-4.538-4.659-2.502 0-4.538 2.083-4.538 4.659 0 2.575 2.036 4.658 4.538 4.658zm-14.551 0h10.946a5.962 5.962 0 0 1-2.196-4.27h-.71v1.378a.641.641 0 1 1-1.282 0v-2.66h2.046c.423-2.854 2.828-5.047 5.747-5.047.923 0 1.791.225 2.565.613V4.17c0-.207-.157-.369-.345-.369h-2.318v.34c0 .854-.746 1.51-1.628 1.51-.882 0-1.628-.656-1.628-1.51v-.385H8.202v.385c0 .854-.746 1.51-1.628 1.51-.882 0-1.628-.656-1.628-1.51v-.34H2.628c-.188 0-.345.162-.345.369v17.666c0 .206.157.368.345.368zm3.6-20.193v2.13c0 .107.139.228.346.228.207 0 .345-.121.345-.228v-2.13c0-.107-.138-.228-.345-.228-.207 0-.345.12-.345.228zm8.88 0v2.13c0 .107.138.228.345.228.207 0 .345-.121.345-.228v-2.13c0-.107-.138-.228-.345-.228-.207 0-.345.12-.345.228zm2.466 15.483l1.85 1.515a.642.642 0 1 1-.811.993l-2.322-1.9v-2.828a.641.641 0 1 1 1.283 0v2.22zm-10.013-.842a.641.641 0 1 1 0 1.282H6.229v1.379a.641.641 0 1 1-1.283 0v-2.661h2.615zm0-5.048a.641.641 0 1 1 0 1.283H6.229v1.378a.641.641 0 0 1-1.283 0v-2.66h2.615zm0-4.542a.641.641 0 1 1 0 1.282H6.229v1.377a.641.641 0 1 1-1.283 0v-2.66h2.615zm6.905 3.301a.641.641 0 0 1-.64-.641v-2.66h2.613a.641.641 0 1 1 0 1.282h-1.331v1.378a.641.641 0 0 1-.642.641zm-4.44 0a.641.641 0 0 1-.64-.641v-2.66H12a.641.641 0 1 1 0 1.282h-1.332v1.378a.641.641 0 0 1-.641.641zm0 4.543a.641.641 0 0 1-.64-.641v-2.66H12a.641.641 0 1 1 0 1.281h-1.332v1.379a.641.641 0 0 1-.641.64z"/></svg>