<svg xmlns="http://www.w3.org/2000/svg" width="24" height="24" viewBox="0 0 24 24" id="Vlt-icon-save"><path fill="#000" fill-rule="nonzero" d="M21.256 20.585c0 .37-.3.67-.67.67h-1.699v-6.283a1.58 1.58 0 0 0-1.578-1.58H6.63a1.58 1.58 0 0 0-1.578 1.58v6.284h-1.64a.671.671 0 0 1-.67-.67l.01-17.17c0-.37.3-.672.669-.672h2.683V7.88c0 .871.708 1.58 1.58 1.58h6.579a1.58 1.58 0 0 0 1.58-1.58V2.744h.675c.178 0 .347.07.473.197l4.068 4.071a.664.664 0 0 1 .196.473v13.1zm-3.613.67l-11.347.001v-6.284c0-.185.15-.335.335-.335H17.31c.184 0 .334.15.334.335v6.284zM7.35 2.746h2.458V6.07a.622.622 0 1 0 1.244 0V2.744H14.6V7.88c0 .185-.15.335-.335.335h-6.58a.335.335 0 0 1-.334-.335V2.744zM21.94 6.13l-4.068-4.07a1.913 1.913 0 0 0-1.353-.561H3.422v.001a1.914 1.914 0 0 0-1.913 1.914h-.001L1.5 20.585c0 1.058.856 1.915 1.913 1.915h17.174a1.915 1.915 0 0 0 1.913-1.915v-13.1c0-.507-.202-.995-.56-1.354z"/></svg>