<svg xmlns="http://www.w3.org/2000/svg" width="24" height="24" viewBox="0 0 24 24" id="Vlt-icon-download"><path fill="#000" fill-rule="nonzero" d="M18.175 10.097c.285.28.29.736.01 1.02l-6.164 6.28-6.163-6.28a.722.722 0 0 1 1.029-1.012l4.434 4.517v-12.4a.722.722 0 1 1 1.443 0v12.357l4.392-4.473a.72.72 0 0 1 1.02-.01zM19.732 22.5H4.268A2.271 2.271 0 0 1 2 20.23v-3.932a.722.722 0 1 1 1.443 0v3.933c0 .455.37.825.825.825h15.464c.455 0 .825-.37.825-.825v-3.933a.722.722 0 1 1 1.443 0v3.933a2.271 2.271 0 0 1-2.268 2.269z"/></svg>