<svg version="1.1" id="Vlt-icon-receptionist" xmlns="http://www.w3.org/2000/svg" xmlns:xlink="http://www.w3.org/1999/xlink" x="0px" y="0px" viewBox="0 0 24 24" style="enable-background:new 0 0 24 24;" xml:space="preserve"><g><path d="M17.2,5.8c2.1,0.6,3.1,1.6,2.5,3.1c-0.3,0.8-1.3,1.3-3,1.7c0,0-0.1,0-0.1,0.1c-0.4,0.9-0.9,1.7-1.6,2.4&#xA;&#x9;&#x9;c0.5,0.4,1.2,0.7,1.9,1c2.7,1.1,3.9,3.2,4.2,7.2c0,0.4-0.1,0.8-0.4,1.1c-0.2,0.2-0.4,0.3-0.7,0.3H3.8c-0.3,0-0.5-0.1-0.7-0.3&#xA;&#x9;&#x9;c-0.3-0.3-0.4-0.7-0.4-1.1c0.2-4,1.4-6.1,4.2-7.2c0.7-0.3,1.3-0.6,1.9-1c-0.7-0.7-1.2-1.6-1.6-2.5c-1-0.7-1.4-2.3-1-3.2&#xA;&#x9;&#x9;c0.1-0.3,0.3-0.6,0.6-0.8C6.7,5.9,6.8,5,7,4.3c0.2-0.5,0.5-1.1,1.1-1.7C9,1.6,10.3,1,12,1c1.7,0,3,0.6,3.9,1.5&#xA;&#x9;&#x9;c0.6,0.6,0.9,1.2,1.1,1.8C17.1,4.8,17.2,5.3,17.2,5.8z M17.6,6.9L17.6,6.9C18,7.6,18,8.4,17.7,9.2c0.6-0.2,1-0.5,1.1-0.8&#xA;&#x9;&#x9;C19.1,7.8,18.8,7.3,17.6,6.9L17.6,6.9z M15.7,9.7L15.7,9.7c0.9-0.2,1.1-1.7,0.9-2c-0.1-0.2-0.4-0.3-0.7-0.2l0-0.7&#xA;&#x9;&#x9;c0,0,0.1-1.2-0.2-2.2c0-0.1-0.7-2.3-3.8-2.3c-3,0-3.7,2.3-3.8,2.4C8,5.7,8,6.8,8,6.9l0,0.6c-0.4-0.1-0.6,0-0.7,0.3&#xA;&#x9;&#x9;C7.2,8.1,7.5,9.3,8.3,9.6c0.2,0.8,1.8,3.7,3.7,3.7c1.4,0,2.5-1.4,3.2-2.5c-0.5,0.1-1,0.1-1.6,0.1c-0.3,0.9-1.2,1.4-2,1.1&#xA;&#x9;&#x9;c-0.9-0.3-1.4-1.2-1.1-2s1.2-1.4,2-1.1c0.5,0.1,0.9,0.5,1.1,1C14.3,9.9,15,9.8,15.7,9.7z M14.2,13.8c-0.7,0.4-1.4,0.7-2.2,0.7&#xA;&#x9;&#x9;c-0.8,0-1.5-0.3-2.2-0.7c-0.7,0.5-1.5,1-2.4,1.4c-2.2,0.9-3.2,2.6-3.4,6.1c0,0,0,0,0,0.1H20c0,0,0,0,0,0c-0.2-3.5-1.2-5.2-3.4-6.1&#xA;&#x9;&#x9;C15.7,14.8,14.9,14.4,14.2,13.8z M12.1,11.1c0.4,0,0.7-0.3,0.7-0.6c0-0.4-0.3-0.7-0.7-0.7s-0.7,0.3-0.7,0.7&#xA;&#x9;&#x9;C11.4,10.8,11.7,11.1,12.1,11.1z"/></g></svg>