<svg xmlns="http://www.w3.org/2000/svg" width="24" height="24" viewBox="0 0 24 24" id="Vlt-icon-star-full"><path fill="#000" fill-rule="nonzero" d="M4.95 14.222l-3.602-3.796c-.705-.743-.278-1.972.736-2.12L7.09 7.58c.489-.092 1.145-.577 1.403-1.051l2.397-4.371a1.266 1.266 0 0 1 2.23.018l2.295 4.356c.256.47.912.956 1.358 1.04l5.15.776c1.02.154 1.437 1.4.713 2.135l-3.67 3.73c-.351.379-.604 1.151-.555 1.687l1.073 5.069c.217 1.025-.836 1.853-1.783 1.402l-4.888-2.33c-.216-.104-.526-.167-.861-.167-.335 0-.643.063-.86.166l-4.898 2.335c-.947.451-2.001-.379-1.783-1.404l1.081-5.07c.044-.548-.209-1.317-.543-1.678z"/></svg>