<svg xmlns="http://www.w3.org/2000/svg" width="24" height="24" viewBox="0 0 24 24" id="Vlt-icon-pin"><path fill="#000" fill-rule="nonzero" d="M12.796 21.286a32.484 32.484 0 0 0 2.851-2.874c2.676-3.07 4.053-5.91 4.053-8.412a7.7 7.7 0 1 0-15.4 0c0 2.516 1.377 5.359 4.053 8.423a32.2 32.2 0 0 0 3.646 3.55c.254-.211.521-.441.797-.687zM21 10c0 2.992-1.645 6.137-4.373 9.266a33.815 33.815 0 0 1-3.945 3.829c-.179.146-.308.248-.378.302L12 23.63l-.304-.231c-.07-.054-.2-.155-.378-.301a33.532 33.532 0 0 1-3.945-3.819C4.644 16.153 3 13.006 3 10a9 9 0 0 1 18 0zm-9 2.7a2.7 2.7 0 1 1 0-5.4 2.7 2.7 0 0 1 0 5.4zm0 1.3a4 4 0 1 0 0-8 4 4 0 0 0 0 8z"/></svg>