<svg xmlns="http://www.w3.org/2000/svg" width="24" height="24" viewBox="0 0 24 24" id="Vlt-icon-microphone-mute"><path fill="#000" fill-rule="nonzero" d="M20.781 2.111a.633.633 0 0 1 .067.89L4.106 22.545a.63.63 0 1 1-.954-.824L19.893 2.178a.63.63 0 0 1 .888-.067zM5.294 16.241a9.145 9.145 0 0 1-.994-1.124.63.63 0 1 1 1.016-.748c.24.33.512.63.797.915l-.82.956zm13.563-1.873a.628.628 0 0 1 .88-.135c.28.206.34.6.136.883-1.657 2.265-4.299 3.664-7.157 3.847v3.275h2.166a.63.63 0 0 1 0 1.262h-5.59a.63.63 0 0 1 0-1.262h2.164v-3.275c-.52-.034-1.029-.12-1.53-.232l.935-1.091c.403.057.81.097 1.225.097 2.697 0 5.229-1.258 6.771-3.369zM8.9 12.031l-1.015 1.185a4.433 4.433 0 0 1-.275-1.49V4.988C7.61 2.521 9.625.5 12.086.5c1.915 0 3.544 1.227 4.18 2.932l-1.002 1.17c-.193-1.596-1.536-2.84-3.178-2.84A3.226 3.226 0 0 0 8.869 4.99v6.736c0 .105.021.204.03.306zm3.186 4.184h-.004l1.337-1.56a3.22 3.22 0 0 0 1.743-2.037l1.4-1.633v.74c0 2.47-2.014 4.49-4.476 4.49z"/></svg>