<svg xmlns="http://www.w3.org/2000/svg" width="24" height="24" viewBox="0 0 24 24" id="Vlt-icon-devices"><path fill="#000" fill-rule="nonzero" d="M17.223 9.96a.7.7 0 0 0-.7.7v9a.7.7 0 0 0 .7.7h4.334a.7.7 0 0 0 .7-.7v-9a.7.7 0 0 0-.7-.7h-4.334zm0-1.3h4.334a2 2 0 0 1 2 2v9a2 2 0 0 1-2 2h-4.334a2 2 0 0 1-2-2v-9a2 2 0 0 1 2-2zm-3.667 10.613H1.5v.348c0 .377.306.683.683.683h11.334a.65.65 0 1 1 0 1.3H2.183A1.983 1.983 0 0 1 .2 19.62v-.998a.65.65 0 0 1 .65-.65h12.706a.65.65 0 0 1 0 1.3zm0-3.611a.65.65 0 1 1 0 1.3H4.59a2.317 2.317 0 0 1-2.317-2.317V5.317A2.317 2.317 0 0 1 4.59 3h14.31a2.317 2.317 0 0 1 2.317 2.317v1.596a.65.65 0 1 1-1.3 0V5.317c0-.562-.456-1.017-1.017-1.017H4.589c-.562 0-1.017.455-1.017 1.017v9.328c0 .562.455 1.017 1.017 1.017h8.968zm5.862 3.502a1 1 0 1 0 0-2 1 1 0 0 0 0 2z"/></svg>