<svg xmlns="http://www.w3.org/2000/svg" width="24" height="24" viewBox="0 0 24 24" id="Vlt-icon-telephone-3"><path fill="#000" fill-rule="nonzero" d="M15.477 9.826H8.528a.634.634 0 1 1 0-1.267h6.949a.635.635 0 1 1 0 1.267zm3.441 1.847a.639.639 0 0 1 .87.224l1.677 2.84v4.49c0 1.528-1.224 2.773-2.73 2.773H5.063c-1.506 0-2.73-1.245-2.73-2.773v-4.49l1.677-2.84a.64.64 0 0 1 .87-.224.633.633 0 0 1 .225.868l-1.502 2.54v4.146c0 .83.655 1.506 1.46 1.506h13.674c.804 0 1.458-.676 1.458-1.506v-4.145l-1.5-2.541a.632.632 0 0 1 .224-.868zm-11.891 1.84c0-3.05 9.947-3.05 9.947 0 0 1.524-2.502 2.323-4.974 2.323-2.471 0-4.973-.8-4.973-2.324zM12 12.456c-2.429 0-3.703.785-3.703 1.055 0 .271 1.274 1.056 3.703 1.056 2.43 0 3.704-.785 3.704-1.056 0-.27-1.274-1.055-3.704-1.055zM12 2c4.983 0 12 1.756 12 5.66v1.338c0 .91-.742 1.649-1.654 1.649H19.28c-.912 0-1.654-.74-1.654-1.65v-.763c0-1.005-2.458-2.173-5.627-2.173-3.169 0-5.627 1.168-5.627 2.173v.764c0 .91-.742 1.649-1.654 1.649H1.654C.742 10.647 0 9.907 0 8.997V7.66C0 3.756 7.017 2 12 2zm10.729 6.998V7.66c0-2.59-5.654-4.394-10.729-4.394-5.075 0-10.729 1.804-10.729 4.394v1.338c0 .21.172.383.383.383H4.72a.383.383 0 0 0 .383-.383v-.764c0-2.154 3.507-3.44 6.898-3.44 3.39 0 6.898 1.286 6.898 3.44v.764c0 .21.172.383.383.383h3.065a.384.384 0 0 0 .383-.383z"/></svg>