<svg xmlns="http://www.w3.org/2000/svg" width="24" height="24" viewBox="0 0 24 24" id="Vlt-icon-fax"><path fill="#000" fill-rule="evenodd" d="M20.253 2.776A2.75 2.75 0 0 1 23 5.523v12.984a2.75 2.75 0 0 1-2.747 2.746h-9.545a2.058 2.058 0 0 1-1.97 1.491H5.151a2.058 2.058 0 0 1-1.99-1.557A2.749 2.749 0 0 1 1 18.507V5.523c0-1.313.927-2.41 2.16-2.68a2.058 2.058 0 0 1 1.991-1.558h3.587c.937 0 1.721.633 1.97 1.49h2.348L14.393 1h4.952v1.776h.908zm1.597 15.73V5.524c0-.882-.715-1.598-1.597-1.598h-.908v3.363h.723v1.15H12.11v-1.15h.558V3.925H10.8v16.179h9.454c.882 0 1.597-.715 1.597-1.597zm-8.454-8.387c.492 0 .894.394.894.885 0 .49-.402.884-.894.884a.889.889 0 0 1-.894-.884c0-.491.402-.885.894-.885zm2.712 0c.492 0 .894.394.894.885 0 .49-.402.884-.894.884a.889.889 0 0 1-.894-.884c0-.491.402-.885.894-.885zm2.712 0c.492 0 .894.394.894.885 0 .49-.402.884-.894.884a.889.889 0 0 1-.894-.884c0-.491.402-.885.894-.885zm-5.424 2.653c.492 0 .894.394.894.885 0 .49-.402.884-.894.884a.889.889 0 0 1-.894-.884c0-.491.402-.885.894-.885zm2.712 0c.492 0 .894.394.894.885 0 .49-.402.884-.894.884a.889.889 0 0 1-.894-.884c0-.491.402-.885.894-.885zm2.712 0c.492 0 .894.394.894.885 0 .49-.402.884-.894.884a.889.889 0 0 1-.894-.884c0-.491.402-.885.894-.885zm-5.424 2.653c.492 0 .894.394.894.885 0 .49-.402.884-.894.884a.889.889 0 0 1-.894-.884c0-.491.402-.885.894-.885zm2.712 0c.492 0 .894.394.894.885 0 .49-.402.884-.894.884a.889.889 0 0 1-.894-.884c0-.491.402-.885.894-.885zm2.712 0c.492 0 .894.394.894.885 0 .49-.402.884-.894.884a.889.889 0 0 1-.894-.884c0-.491.402-.885.894-.885zM13.818 3.676v3.612h4.376V2.15h-3.227l-1.15 1.525zm-4.169.25v-.58a.898.898 0 0 0-.064-.314 1.016 1.016 0 0 0-.153-.256.896.896 0 0 0-.694-.342H5.151a.896.896 0 0 0-.694.342 1.016 1.016 0 0 0-.153.256.898.898 0 0 0-.064.313V20.684a.907.907 0 0 0 .217.57c.167.203.41.34.694.34h3.587a.896.896 0 0 0 .694-.34.907.907 0 0 0 .217-.57V3.925zM3.091 19.96V4.07c-.554.25-.941.805-.941 1.453v12.984c0 .647.387 1.202.94 1.453z"/></svg>