<svg xmlns="http://www.w3.org/2000/svg" width="24" height="24" viewBox="0 0 24 24" id="Vlt-icon-file-search"><path fill="#000" fill-rule="evenodd" d="M3.147 22.11c0 .222.184.403.407.403h10.812v1.148H3.554A1.554 1.554 0 0 1 2 22.109V2.553C2 1.696 2.697 1 3.554 1h11.03l6.223 6.203v6.594H19.66V8.016h-5.886V2.148H3.554a.407.407 0 0 0-.407.405v19.556zM14.921 2.955v3.91h3.925l-3.925-3.91zM5.517 8.845V7.697h5.887v1.148H5.517zm-.001 2.87v-1.148H17.29v1.147H5.516zm0 2.87v-1.149h6.868v1.148H5.516zm0 2.87v-1.149h6.87v1.148h-6.87zm17.115 4.336c.285.19.285.664 0 1.044l-.285.285c-.285.285-.664.285-.95 0l-2.468-2.374a3.28 3.28 0 0 1-1.71.475c-1.899 0-3.418-1.52-3.418-3.324 0-1.899 1.52-3.323 3.418-3.323 1.9 0 3.419 1.52 3.419 3.323 0 .57-.19 1.14-.475 1.615l2.47 2.279zm-7.597-3.988c0 1.139.95 2.089 2.184 2.089 1.235 0 2.185-.95 2.185-2.09 0-1.139-.95-2.089-2.185-2.089-1.234 0-2.184.95-2.184 2.09z"/></svg>