<svg xmlns="http://www.w3.org/2000/svg" width="24" height="24" viewBox="0 0 24 24" id="Vlt-icon-density-high"><path fill="#000" fill-rule="nonzero" d="M21.248 6.003H2.752a.752.752 0 1 1 0-1.503h18.496a.752.752 0 1 1 0 1.503zm0 6.749H2.752a.752.752 0 1 1 0-1.504h18.496a.752.752 0 1 1 0 1.504zm0 3.374H2.752a.752.752 0 1 1 0-1.504h18.496a.752.752 0 1 1 0 1.504zm0-6.748H2.752a.752.752 0 1 1 0-1.504h18.496a.752.752 0 1 1 0 1.504zm0 10.122H2.752a.752.752 0 1 1 0-1.503h18.496a.752.752 0 1 1 0 1.503z"/></svg>