<svg xmlns="http://www.w3.org/2000/svg" width="24" height="24" viewBox="0 0 24 24" id="Vlt-icon-device-cloud"><path fill="#000" fill-rule="evenodd" d="M9.179 20A1.587 1.587 0 0 1 7.6 18.408V2.591C7.6 1.713 8.308 1 9.179 1h6.843c.87 0 1.578.713 1.578 1.59v15.818c0 .878-.708 1.592-1.578 1.592H9.18zM8.844 2.59v15.818a.34.34 0 0 0 .335.338h6.843a.34.34 0 0 0 .334-.338V2.591a.34.34 0 0 0-.334-.338H9.18a.34.34 0 0 0-.335.338zm1.071 7.646V4.13h5.37v6.106h-5.37zm1.244-1.254h2.882V5.384h-2.882v3.598zm-.068 2.889a1.02 1.02 0 0 1 1.016 1.023 1.02 1.02 0 0 1-1.016 1.025 1.02 1.02 0 0 1-1.016-1.025 1.02 1.02 0 0 1 1.016-1.023zm2.929 0a1.02 1.02 0 0 1 1.015 1.023 1.02 1.02 0 0 1-1.015 1.025 1.02 1.02 0 0 1-1.016-1.025 1.02 1.02 0 0 1 1.016-1.023zm-2.929 3.012a1.02 1.02 0 0 1 1.016 1.024 1.02 1.02 0 0 1-1.016 1.025 1.02 1.02 0 0 1-1.016-1.025 1.02 1.02 0 0 1 1.016-1.024zm2.929 0a1.02 1.02 0 0 1 1.015 1.024 1.02 1.02 0 0 1-1.015 1.025 1.02 1.02 0 0 1-1.016-1.025 1.02 1.02 0 0 1 1.016-1.024zm6.199-3.692c2.273.874 3.781 3.033 3.781 5.453 0 3.229-2.665 5.856-5.939 5.856l-12.074-.005H5.98C3.21 22.495 1 20.314 1 17.633c0-2.026 1.254-3.798 3.156-4.52a8.473 8.473 0 0 1 1.642-3.378.635.635 0 0 1 .882-.102.614.614 0 0 1 .103.87 7.22 7.22 0 0 0-1.465 3.19l-.069.374-.368.109c-1.569.467-2.624 1.856-2.624 3.457 0 2 1.65 3.628 3.68 3.628l5.84-.002 6.284.002c2.582 0 4.682-2.072 4.682-4.617 0-1.979-1.277-3.734-3.18-4.37l-.254-.086-.114-.24a7.204 7.204 0 0 0-.756-1.254.613.613 0 0 1 .132-.866.632.632 0 0 1 .878.13c.292.39.55.804.77 1.233z"/></svg>