<svg xmlns="http://www.w3.org/2000/svg" width="24" height="24" viewBox="0 0 24 24" id="Vlt-icon-upload"><path fill="#000" fill-rule="nonzero" d="M18.185 8.438c.279.28.276.731-.01 1.007a.722.722 0 0 1-.505.203.724.724 0 0 1-.514-.212l-4.434-4.452v12.238a.717.717 0 0 1-.722.712.717.717 0 0 1-.722-.712V5.026l-4.391 4.41a.728.728 0 0 1-1.02.009.703.703 0 0 1-.01-1.007l6.164-6.188 6.164 6.188zm1.547 13.312H4.268C3.018 21.75 2 20.747 2 19.514v-3.876c0-.393.323-.712.722-.712.399 0 .721.32.721.712v3.876c0 .448.37.813.825.813h15.464a.82.82 0 0 0 .825-.813v-3.876c0-.393.322-.712.721-.712.4 0 .722.32.722.712v3.876c0 1.233-1.018 2.236-2.268 2.236z"/></svg>