<svg xmlns="http://www.w3.org/2000/svg" width="24" height="24" viewBox="0 0 24 24" id="Vlt-icon-toggle"><path fill="#000" fill-rule="nonzero" d="M7.402 18.654l3.114 3.197-.917.899-4.617-4.739L9.6 13.272l.917.9-3.114 3.196h9.307c2.763 0 5.008-2.305 5.008-5.157a5.21 5.21 0 0 0-1.64-3.816l.876-.94A6.498 6.498 0 0 1 23 12.21c0 3.556-2.813 6.443-6.291 6.443H7.402zm9.196-13.308l-3.114-3.197.917-.899 4.617 4.739-4.617 4.739-.917-.9 3.114-3.196H7.29c-2.763 0-5.008 2.305-5.008 5.157 0 1.375.524 2.663 1.444 3.622l-.924.892A6.504 6.504 0 0 1 1 11.79c0-3.556 2.813-6.443 6.291-6.443h9.307z"/></svg>