<svg xmlns="http://www.w3.org/2000/svg" width="24" height="24" viewBox="0 0 24 24" id="Vlt-icon-address-book"><path fill="#000" fill-rule="nonzero" d="M10.562 15.98c-1.042.345-2.061 1.06-2 1.433.07.436 1.122.696 3.517.696h.786c2.395 0 3.447-.26 3.518-.696.06-.373-.96-1.088-2.002-1.434a7.027 7.027 0 0 0-.634-.168c-.533-.136-.815-.313-.903-.764-.098-.502.052-.84.544-1.45.351-.438.533-.908.533-1.444 0-1.024-.642-1.828-1.438-1.87-.787.005-1.461.822-1.461 1.87 0 .536.182 1.006.534 1.443.491.61.642.95.544 1.451-.088.451-.37.628-.903.764a6.975 6.975 0 0 0-.635.168zM21.765.5v1.272H5.631a2.158 2.158 0 0 0-2.16 2.152c0 1.188.966 2.152 2.16 2.152h16.134V23H7.087A4.886 4.886 0 0 1 2.2 18.114V3.924A3.43 3.43 0 0 1 5.63.5h16.135zM5.631 7.348a3.406 3.406 0 0 1-2.16-.783v11.549a3.615 3.615 0 0 0 3.616 3.614h13.406V7.348H5.631zm6.448 11.935c-3.056 0-4.453-.293-4.676-1.683-.198-1.219 1.187-2.205 2.791-2.736.202-.066.37-.11.711-.19a5.889 5.889 0 0 0-.263-.341c-.521-.647-.794-1.375-.794-2.18 0-1.624 1.115-3.033 2.618-3.044l.08.001c1.483.08 2.55 1.45 2.55 3.043 0 .804-.273 1.532-.794 2.18-.141.175-.22.276-.263.34.349.083.513.127.712.192 1.6.53 2.986 1.516 2.79 2.733-.223 1.393-1.62 1.685-4.676 1.685h-.786zM5.135 4.413v-.978h15.652v.978H5.135z"/></svg>