<svg xmlns="http://www.w3.org/2000/svg" width="24" height="24" viewBox="0 0 24 24" id="Vlt-icon-cloud-upload"><path fill="#000" fill-rule="nonzero" d="M11.938 8.48l4.922 5.011a.715.715 0 1 1-1.021 1.004l-3.201-3.259v10.11a.716.716 0 0 1-1.433 0V11.27l-3.167 3.225a.715.715 0 1 1-1.02-1.004l4.92-5.01zm3.873 9.506a.716.716 0 0 1 .005-1.433c1.398.01 2.839.02 3.353.02 1.873 0 3.398-1.546 3.398-3.446a3.451 3.451 0 0 0-1.763-3l-.45-.253.097-.505c.06-.321.092-.64.092-.95 0-2.75-2.206-4.987-4.92-4.987-1.837 0-3.508 1.03-4.36 2.685l-.387.75-.678-.503a2.99 2.99 0 0 0-1.792-.604c-1.68 0-3.047 1.387-3.047 3.093a.497.497 0 0 1 .012.113l.015.702-.7.03c-1.825.079-3.254 1.585-3.254 3.43 0 1.9 1.525 3.446 3.398 3.446.328 0 1.672-.008 3.158-.016.418-.023.718.317.72.712a.716.716 0 0 1-.712.72c-1.49.009-2.838.016-3.166.016-2.663 0-4.83-2.19-4.83-4.879 0-2.383 1.69-4.369 3.955-4.784.252-2.257 2.151-4.017 4.451-4.017.69 0 1.36.163 1.975.473A6.314 6.314 0 0 1 15.624 2c3.502 0 6.351 2.88 6.351 6.418 0 .24-.014.485-.043.73A4.882 4.882 0 0 1 24 13.129c0 2.689-2.167 4.878-4.83 4.878-.517 0-1.962-.01-3.36-.02z"/></svg>