<svg xmlns="http://www.w3.org/2000/svg" width="24" height="24" viewBox="0 0 24 24" id="Vlt-icon-inbox"><path fill="#000" fill-rule="nonzero" d="M20.854 20.738H3.144c-.486 0-.884-.424-.884-.942v-5.563h5.12l.244 1.453c.162.837.822 1.46 1.636 1.46h5.432c.815 0 1.475-.623 1.634-1.444l.247-1.469h5.167v5.563c0 .518-.398.942-.886.942zM6.465 3.875c.133-.377.443-.613.841-.613h9.431c.354 0 .664.236.797.613l3.905 9.096h-4.97c-.574 0-1.027.409-1.128.988l-.254 1.519c-.048.242-.22.405-.395.405H9.26c-.173 0-.346-.163-.396-.42l-.251-1.499c-.102-.584-.556-.993-1.13-.993H2.56l3.905-9.096zm12.24-.467C18.39 2.57 17.63 2 16.737 2h-9.43c-.938 0-1.72.577-2.03 1.454l-4.175 9.719-.102.239v6.384C1 20.994 1.945 22 3.145 22h17.71c1.2 0 2.145-1.006 2.145-2.204v-6.384L18.705 3.408z"/></svg>