<svg xmlns="http://www.w3.org/2000/svg" width="24" height="24" viewBox="0 0 24 24" id="Vlt-icon-file-edit"><path fill="#000" fill-rule="evenodd" d="M20.142 15.71l2.809 2.798L18.442 23l-3.81 1 1.006-3.8 4.504-4.49zm-3.713 5.983l-.184.697.718-.187-.534-.51zm1.681.018l3.215-3.203-1.183-1.178-3.239 3.228 1.207 1.153zm-14.463.398c0 .223.184.404.407.404h8.812v1.148H4.054A1.554 1.554 0 0 1 2.5 22.109V2.553C2.5 1.696 3.197 1 4.054 1h11.03l6.223 6.203v6.594H20.16V8.016h-5.886V2.148H4.054a.407.407 0 0 0-.407.405v19.556zM15.421 2.956v3.91h3.925l-3.925-3.91zM6.017 8.845V7.697h5.887v1.148H6.017zm-.001 2.87v-1.148H17.79v1.147H6.016zm0 2.87v-1.149h6.868v1.148H6.016zm0 2.87v-1.149h6.87v1.148h-6.87z"/></svg>