<svg xmlns="http://www.w3.org/2000/svg" width="28" height="24" viewBox="0 0 28 24" id="Vlt-icon-group-add"><path fill="#000" fill-rule="evenodd" d="M16.49 3.373c.256.194.489.415.698.66.514.6.79 1.203.909 1.665a8.052 8.052 0 0 1 .224 1.631c.607.757.615 1.85-.002 3.106-.101.205-.231.38-.386.525a7.045 7.045 0 0 1-.963 1.796 54.187 54.187 0 0 1 .705.362c.277.145.514.273.703.382.88.506 1.2.69 1.362.829a.65.65 0 1 1-.842.99c-.071-.06-.397-.249-1.168-.692-.172-.099-.395-.22-.658-.358l-.127-.066a57.647 57.647 0 0 0-.892-.452c-.724.622-1.59 1.03-2.542 1.03-.773 0-1.49-.269-2.118-.7-.37.276-.829.549-1.38.823-1.116.554-2.053 1.388-2.439 2.251a6.78 6.78 0 0 0-.393 1.171l-.116.547c-.077.44-.124.9-.144 1.378-.03.701.351 1.204.855 1.204h9.526a.65.65 0 1 1 0 1.3H7.776c-1.32 0-2.212-1.178-2.154-2.559.012-.285.033-.565.063-.84H3.136c-1.283 0-2.247-1.165-2.267-2.401-.043-3.09.567-4.701 3.094-5.697.279-.11.567-.24.86-.39-.432-.549-.8-1.143-1.008-1.625a1.778 1.778 0 0 1-.401-.517c-.634-1.22-.608-2.317-.006-3.096a8.086 8.086 0 0 1 .226-1.665c.12-.462.395-1.065.909-1.665C5.395 1.303 6.633.7 8.22.7c1.486 0 2.666.55 3.514 1.48l.389.425c.427-.112.89-.17 1.388-.17.69 0 1.312.113 1.867.323a.65.65 0 0 1 .085-.179C16.31 1.343 17.556.71 19.135.7 21.3.688 23.158 2.537 23.34 4.34l.019.192c.042.41.074.652.12.895.13.661.382 1.284.934 2.22.943 1.52.947 2.752.01 3.525-.101.082-.21.157-.327.225.134.068.267.14.398.217 1.173.69 2.07 1.672 2.556 2.983a.65.65 0 0 1-1.219.452c-.375-1.01-1.066-1.767-1.997-2.314a6.513 6.513 0 0 0-1.644-.675 5.132 5.132 0 0 0-.721-.144c-.82-.082-.76-1.297.065-1.297.952 0 1.704-.156 2.062-.451.35-.289.349-.808-.296-1.848-.63-1.07-.938-1.827-1.096-2.645-.057-.29-.092-.564-.138-1.01l-.02-.194C21.93 3.308 20.606 1.99 19.142 2c-1.16.007-2.006.437-2.605 1.313a.657.657 0 0 1-.047.06zM5.935 17.937c.38-1.683 1.273-3.412 3.435-4.322a5.132 5.132 0 0 0 1.113-.638 8.15 8.15 0 0 1-1.342-2.22 1.745 1.745 0 0 1-.394-.508c-.479-.919-.59-1.755-.332-2.483.082-.232.197-.434.329-.602a8.08 8.08 0 0 1 .224-1.665c.176-.681.74-1.725 1.806-2.443C10.272 2.506 9.474 2 8.22 2 5.484 2 4.893 4.29 4.893 4.29c-.235.922-.184 1.905-.184 1.905s-.937.402-.142 1.932c.118.227.29.204.364.394.12.434 1.065 2.02 2.001 2.617 0 0-1.164.807-2.492 1.33-2.224.876-2.297 2.598-2.27 4.469.008.55.438 1.12.966 1.12h2.77l.03-.12zM16.838 6.023s-.59-2.289-3.327-2.289c-2.736 0-3.329 2.29-3.329 2.29C9.948 6.944 10 7.926 10 7.926s-.937.397-.142 1.928c.117.226.289.196.364.385.18.655 1.421 3.242 3.289 3.242 1.867 0 3.108-2.587 3.289-3.242.034-.142.23-.13.351-.378.808-1.643-.13-1.935-.13-1.935s.052-.982-.183-1.904zm7.136 12.603h3.153a.673.673 0 1 1 0 1.347h-3.153v3.154a.674.674 0 0 1-1.348 0v-3.154h-3.153a.673.673 0 1 1 0-1.347h3.153v-3.152a.674.674 0 0 1 1.348 0v3.152z"/></svg>