<svg xmlns="http://www.w3.org/2000/svg" width="24" height="24" viewBox="0 0 24 24" id="Vlt-icon-transfer"><path fill="#000" fill-rule="nonzero" d="M2.985 21.508c-.662 1-2.18.347-1.964-.811 1.397-7.522 5.539-12.4 12.1-13.768v-3.83c0-.984 1.195-1.48 1.873-.75l7.713 8.307a1.104 1.104 0 0 1 0 1.498l-7.713 8.307c-.678.73-1.873.235-1.873-.749v-3.744c-4.59.232-7.78 1.987-10.136 5.54zm10.737-6.782l.626-.013v4.645l7.384-7.953-7.384-7.953v4.49l-.505.09c-6.12 1.09-10.026 5.37-11.485 12.231 2.659-3.667 6.3-5.434 11.364-5.537z"/></svg>