<svg xmlns="http://www.w3.org/2000/svg" width="24" height="24" viewBox="0 0 24 24" id="Vlt-icon-bin"><path fill="#000" fill-rule="evenodd" d="M20.376 3.157a.623.623 0 1 1 0 1.244h-.458l-1.66 17.173a1.7 1.7 0 0 1-1.674 1.52H6.928a1.7 1.7 0 0 1-1.674-1.518L3.594 4.401h-.47a.623.623 0 1 1 0-1.244h4.2V2.28c0-.873.71-1.581 1.583-1.581h5.74c.873 0 1.584.708 1.584 1.58v.877h4.145zm-3.359 18.296L18.664 4.4H4.848l1.647 17.054c.021.21.224.394.433.394h9.656c.21 0 .412-.185.433-.396zM8.571 2.28v.876h6.412V2.28a.335.335 0 0 0-.336-.335h-5.74a.335.335 0 0 0-.336.335zm3.138 17.76a.623.623 0 0 1-.623-.622V6.672a.623.623 0 0 1 1.247 0v12.747c0 .343-.28.622-.624.622zm-2.851 0a.624.624 0 0 1-.62-.577L7.277 6.72a.623.623 0 0 1 1.243-.094l.96 12.747a.623.623 0 0 1-.575.667l-.048.002zm5.757 0l-.048-.002a.623.623 0 0 1-.574-.667l.959-12.747a.623.623 0 1 1 1.243.094l-.96 12.745a.624.624 0 0 1-.62.577z"/></svg>