<svg xmlns="http://www.w3.org/2000/svg" width="24" height="24" viewBox="0 0 24 24" id="Vlt-icon-user-lock"><path fill="#000" fill-rule="nonzero" d="M13.23 13.886c-.641.414-1.347.671-2.076.671-.847 0-1.657-.341-2.374-.876a10.956 10.956 0 0 1-2.565 1.444c-2.243.9-3.22 2.623-3.415 6.17 0 .013.004.034.01.055h10.667c.3 0 .764.101.764.647 0 .545-.536.653-.764.653H2.607c-.323 0-.517-.135-.72-.35a1.54 1.54 0 0 1-.386-1.071c.222-4.014 1.46-6.198 4.229-7.31a9.79 9.79 0 0 0 2.079-1.136A7.97 7.97 0 0 1 6.37 10.46c-.994-.744-1.424-2.254-1.044-3.221.127-.323.32-.573.557-.754.005-.607.09-1.479.29-2.217.155-.514.473-1.128 1.056-1.733C8.158 1.571 9.473 1 11.154 1c1.682 0 2.998.57 3.927 1.533.584.605.911 1.236 1.064 1.761.21.77.29 1.712.286 2.29.134.107.257.238.365.392.669.962.23 2.795-.898 3.6a7.76 7.76 0 0 1-1.614 2.442l1.29.828a.65.65 0 1 1-.702 1.094l-1.641-1.054zm-.323-1.354c1.066-.903 1.81-2.365 1.954-2.859.874-.206 1.106-1.648.885-1.966-.148-.212-.367-.27-.656-.174l.046-.682c.002-.012.06-1.17-.225-2.222-.026-.086-.723-2.35-3.757-2.35-3.03 0-3.728 2.264-3.757 2.36-.282 1.042-.225 2.2-.223 2.212l.032.582c-.362-.067-.591.025-.69.274-.147.375.09 1.617.903 1.878.246.823 1.777 3.693 3.735 3.693.566 0 1.097-.24 1.57-.6a.646.646 0 0 1 .183-.146zM22.7 17.6h.3v3.7c0 1-.8 1.7-1.7 1.7h-4c-1 0-1.7-.8-1.7-1.7v-3.7h.3c0-1.9 1.5-3.4 3.4-3.4s3.4 1.5 3.4 3.4zm-3.4-2c-1.2 0-2.1.9-2.1 2.1h4.2c0-1.2-.9-2.1-2.1-2.1zm2.3 5.7h.1V19H17v2.3c0 .1.1.3.3.3h4c.1 0 .3-.1.3-.3z"/></svg>