<svg xmlns="http://www.w3.org/2000/svg" width="24" height="24" viewBox="0 0 24 24" id="Vlt-icon-unhappy"><path fill="#000" fill-rule="evenodd" d="M12 23C5.925 23 1 18.075 1 12S5.925 1 12 1s11 4.925 11 11-4.925 11-11 11zm0-1.3c5.357 0 9.7-4.343 9.7-9.7 0-5.357-4.343-9.7-9.7-9.7-5.357 0-9.7 4.343-9.7 9.7 0 5.357 4.343 9.7 9.7 9.7zm5.923-11.76c-1.206-.6-3.741-.713-4.923-.44.101-.657 1.978-3.07 4.564-3.5l.164.986c-1.312.219-2.173.84-2.671 1.356 1.094-.08 2.21.156 3.31.703l-.444.896zM5.6 9.046c1.099-.546 2.216-.782 3.311-.703-.498-.516-1.359-1.137-2.671-1.356L6.404 6c2.586.43 4.095 2.843 4.196 3.5-1.183-.273-3.349-.16-4.555.44L5.6 9.046zm11 8.302c-1.247-1.247-2.767-1.854-4.646-1.854-1.88 0-3.4.607-4.647 1.854L6.6 16.64c1.424-1.424 3.225-2.147 5.354-2.147 2.128 0 3.929.723 5.353 2.147l-.707.707z"/></svg>