<svg xmlns="http://www.w3.org/2000/svg" width="24" height="24" viewBox="0 0 24 24" id="Vlt-icon-rocket"><path fill="#000" fill-rule="nonzero" d="M1.075 22.999a.593.593 0 0 1-.407-.16.532.532 0 0 1-.133-.577c1.77-4.654 3.63-7.014 5.53-7.014.626 0 1.211.257 1.742.763.837.801.867 1.598.745 2.126-.384 1.659-2.834 3.284-7.28 4.83a.61.61 0 0 1-.197.033v-.001zm4.99-6.652c-.569 0-1.24.477-1.937 1.38-.687.888-1.377 2.153-2.057 3.77 1.536-.591 2.77-1.19 3.68-1.788 1.226-.806 1.59-1.43 1.678-1.81.089-.38-.054-.745-.435-1.11-.311-.297-.615-.441-.93-.441l.001-.001zM22.926 1L22.925 1h.575v.55c0 2.854-.506 5.398-1.504 7.56a13.026 13.026 0 0 1-3.434 4.539c-.273.23-.548.442-.823.638-.066.948-.46 1.917-1.173 2.886-.602.82-1.437 1.642-2.48 2.447-1.753 1.353-3.481 2.184-3.554 2.22a.584.584 0 0 1-.723-.17.533.533 0 0 1 .06-.711c.004-.005.544-.53 1.075-1.427.437-.74.951-1.879 1.042-3.257-.933-.348-2.048-1.346-2.549-1.824-.5-.479-1.543-1.546-1.908-2.438-1.44.087-2.632.579-3.405.997-.937.507-1.487 1.024-1.493 1.03a.59.59 0 0 1-.742.054.535.535 0 0 1-.178-.69c.037-.07.907-1.723 2.321-3.4.842-.997 1.702-1.795 2.559-2.372C7.603 6.95 8.617 6.573 9.609 6.51c.206-.264.428-.526.667-.786 1.284-1.392 2.88-2.497 4.745-3.284C17.283 1.485 19.94 1 22.926 1zM4.074 11.79a9.27 9.27 0 0 1 3.388-.873c.139-.729.525-1.877 1.272-3.127-1.889.592-3.564 2.479-4.66 4zm8.149 7.79h-.001c1.589-1.049 3.56-2.651 4.181-4.454-1.306.713-2.508 1.082-3.268 1.215a8.25 8.25 0 0 1-.912 3.238zm5.579-6.754v.001c2.863-2.415 4.427-6.112 4.543-10.717-4.815.11-8.68 1.608-11.206 4.344-2.11 2.288-2.587 4.657-2.587 4.998 0 .002.004.228.452.835.311.423.755.917 1.248 1.388.492.47 1.008.895 1.45 1.193.636.428.872.433.874.433.356 0 2.834-.457 5.226-2.475zM16.026 10.9c-1.585 0-2.875-1.234-2.875-2.75 0-1.515 1.29-2.75 2.875-2.75S18.9 6.636 18.9 8.15c0 1.516-1.29 2.75-2.875 2.75zm0-4.4c-.951 0-1.725.74-1.725 1.65 0 .91.774 1.65 1.725 1.65.951 0 1.725-.74 1.725-1.65 0-.91-.774-1.65-1.725-1.65z"/></svg>