<svg xmlns="http://www.w3.org/2000/svg" width="24" height="24" viewBox="0 0 24 24" id="Vlt-icon-group-2"><path fill="#000" fill-rule="nonzero" d="M18.401 19.287c-.848-2.503-2.84-3.437-4.392-3.928a6.451 6.451 0 0 1-1.765-.861 8.327 8.327 0 0 0 1.543-2.472c.156-.098.291-.182.387-.349.582-1.033.728-1.876.433-2.506a1.425 1.425 0 0 0-.454-.55c-.006-.451-.05-1.191-.24-1.912-.179-.661-.758-1.691-1.882-2.371.446-1.252 1.407-1.941 2.81-2.041 1.885.128 2.943 1.198 3.147 3.183l.017.17c.086.871.16 1.623 1.142 3.317.125.217.256.419.38.611.522.802.536.935.366 1.162-.243.324-1.107.329-1.738.333-.478.003-.892.005-1.234.106a.65.65 0 0 0-.467.623c0 1.299.476 1.595 2.506 2.295 1.633.565 2.807 1.891 3.36 2.753-.763.886-1.839 1.959-3.919 2.437M9.39 21.691c-3.873 0-6.873-.45-8.07-.663.331-2.932 2.122-3.886 3.841-4.429 1.193-.377 1.994-.924 2.39-1.239.537.341 1.15.567 1.84.567.688 0 1.3-.225 1.837-.567.397.315 1.198.862 2.39 1.239 1.72.543 3.51 1.498 3.842 4.429-1.134.2-4.186.663-8.07.663M5.68 10.925l-.01-.007c-.435-.815-.349-1.129-.326-1.187.021-.052.06-.07.055-.07l.56-.105-.029-.57c0-.01-.05-1.021.192-1.939.006-.022.595-2.097 3.268-2.097 2.64 0 3.244 2.016 3.267 2.094.243.921.194 1.932.193 1.942l.02.632.561.103c.015.035.134.343-.322 1.197l-.01.007c-.209.129-.406.252-.485.522-.193.674-1.49 3.18-3.224 3.18-1.734 0-3.032-2.506-3.226-3.182-.078-.268-.275-.391-.484-.52m18.011 5.699c-.528-1.026-2.03-2.969-4.306-3.755a13.803 13.803 0 0 1-1.287-.496h.066c.954-.006 2.142-.013 2.771-.854.753-1.006.16-1.918-.317-2.65-.112-.173-.23-.356-.345-.554-.84-1.449-.896-2.013-.973-2.793l-.018-.175c-.269-2.631-1.816-4.175-4.44-4.347-1.985.134-3.385 1.142-4.015 2.851a5.393 5.393 0 0 0-1.437-.202c-2.927 0-4.239 2.002-4.524 3.063-.19.718-.234 1.458-.24 1.909a1.425 1.425 0 0 0-.455.55c-.295.63-.149 1.473.435 2.509.093.164.23.249.385.347.203.53.727 1.588 1.542 2.47a6.424 6.424 0 0 1-1.764.862c-1.882.596-4.423 1.84-4.765 5.763-.034.388.181 1.014.748 1.124.912.175 4.232.746 8.638.746 4.188 0 7.37-.51 8.543-.729.551-.103.883-.648.846-1.093a8.827 8.827 0 0 0-.075-.622c2.702-.627 4.033-2.176 4.83-3.117l.075-.089a.646.646 0 0 0 .082-.718"/></svg>