<svg xmlns="http://www.w3.org/2000/svg" width="24" height="24" viewBox="0 0 24 24" id="Vlt-icon-card"><path fill="#000" fill-rule="evenodd" d="M21.92 20.57H2.179C1.29 20.57.5 20.078.5 19.19V4.382C.5 3.592 1.29 3 2.178 3h19.743c.888 0 1.579.494 1.579 1.382v14.807c0 .79-.691 1.382-1.58 1.382zm0-1.282c.198 0 .395-.1.395-.1V4.383s-.098-.099-.394-.099H2.178a.432.432 0 0 0-.296.099v14.807s.099.099.395.099H21.92zm-9.87-7.601c-1.481 0-2.765-1.284-2.765-2.764 0-1.48 1.284-2.764 2.764-2.764 1.481 0 2.764 1.283 2.764 2.764 0 1.48-1.283 2.764-2.764 2.764zm0-1.284c.79 0 1.48-.69 1.48-1.48s-.69-1.48-1.48-1.48-1.481.591-1.481 1.48c0 .888.69 1.48 1.48 1.48zm-1.975 2.764h3.949v1.284h-3.949v-1.284zM8.101 16.13h7.897v1.283H8.1v-1.283z"/></svg>