<svg xmlns="http://www.w3.org/2000/svg" width="24" height="24" viewBox="0 0 24 24" id="Vlt-icon-plug"><path fill="#000" fill-rule="evenodd" d="M15.093 18.59c-2.267 2.267-6.062 2.16-8.459-.238l-.717-.717c-2.398-2.397-2.504-6.192-.238-8.459L10.157 4.7c.172-.173.46-.165.643.017l8.753 8.755c.182.182.19.47.018.641l-4.478 4.478zm5.53-6.189l-1.332-1.33 3.74-3.74a.816.816 0 0 0-1.153-1.153l-3.74 3.739-3.785-3.786 3.738-3.74a.816.816 0 0 0-1.153-1.153L13.2 4.979l-1.332-1.332c-.772-.772-2.02-.78-2.782-.017L4.61 8.106c-2.791 2.79-2.747 7.385.04 10.382-.02.015-.043.022-.06.038l-2.352 2.352a.817.817 0 0 0 0 1.153.817.817 0 0 0 1.154 0l2.351-2.351c.017-.018.024-.041.039-.06 2.997 2.786 7.592 2.83 10.381.04l4.478-4.476c.762-.763.754-2.011-.018-2.783z"/></svg>