<svg xmlns="http://www.w3.org/2000/svg" width="24" height="24" viewBox="0 0 24 24" id="Vlt-icon-tag"><path fill="#000" fill-rule="nonzero" d="M21.723 11.111c.49.49.777 1.166.777 1.871a2.59 2.59 0 0 1-.777 1.862l-6.873 6.872c-.486.5-1.154.784-1.867.784a2.625 2.625 0 0 1-1.861-.767l-8.845-8.845a2.632 2.632 0 0 1-.777-1.87v-6.88A2.644 2.644 0 0 1 4.138 1.5h6.88c.707 0 1.372.279 1.86.767l8.845 8.844zm-.95.951l-8.846-8.844a1.28 1.28 0 0 0-.91-.373h-6.88c-.709 0-1.292.583-1.292 1.292v6.88c0 .35.137.674.383.92l8.845 8.845c.237.237.56.373.91.373s.67-.136.91-.383l6.886-6.885c.24-.235.376-.555.376-.905 0-.344-.142-.68-.383-.92zM5.612 6.413a.8.8 0 0 0 .8-.801.8.8 0 0 0-.8-.802.8.8 0 0 0-.803.802.8.8 0 0 0 .802.801zm0 1.345a2.144 2.144 0 0 1-2.147-2.146c0-1.187.96-2.147 2.146-2.147 1.187 0 2.147.96 2.147 2.147 0 1.187-.96 2.146-2.147 2.146z"/></svg>