<svg version="1.1" id="Vlt-icon-add-user" xmlns="http://www.w3.org/2000/svg" xmlns:xlink="http://www.w3.org/1999/xlink" x="0px" y="0px" viewBox="0 0 24 24" style="enable-background:new 0 0 24 24;" xml:space="preserve"><path d="M14.9,20.6h-12c-0.1,0-0.1-0.1-0.2-0.1c-0.1-0.1-0.2-0.3-0.2-0.5c0.2-3,1.1-4.6,3.2-5.4c1-0.4,1.7-0.8,2.1-1.2 c0.6,0.4,1.3,0.7,2.2,0.7c0.8,0,1.6-0.3,2.2-0.7c0.4,0.3,1.1,0.7,2.1,1.1c0.1,0,0.2,0.1,0.3,0.1c0.3,0,0.6-0.2,0.7-0.5 c0.2-0.4,0-0.8-0.4-1c-0.6-0.2-1.1-0.5-1.5-0.7c0.7-0.8,1.2-1.7,1.4-2.3c0.1-0.1,0.3-0.3,0.4-0.6c0.5-1.1,0.7-2.1,0.3-2.9 c-0.1-0.2-0.2-0.4-0.3-0.5c0-0.5-0.1-1.1-0.2-1.7C14.6,3.3,13.1,1,10,1S5.3,3.3,5,4.5C4.8,5.1,4.8,5.7,4.8,6.2 C4.6,6.4,4.5,6.6,4.4,6.8C4.1,7.6,4.3,8.6,4.8,9.6c0.1,0.2,0.3,0.4,0.4,0.6c0.2,0.6,0.7,1.5,1.4,2.3c-0.3,0.2-0.8,0.5-1.5,0.8 c-3.4,1.3-4,4.3-4.1,6.7c0,0.6,0.2,1.2,0.6,1.6c0.3,0.4,0.8,0.6,1.3,0.6h12c0.4,0,0.8-0.3,0.8-0.8S15.3,20.6,14.9,20.6z M6.5,9.2C6.4,9.1,6.2,9.1,6.1,8.8c-0.8-1.6,0.1-2,0.1-2s-0.1-1,0.2-2c0,0,0.6-2.4,3.5-2.4c2.9,0,3.5,2.4,3.5,2.4 c0.2,1,0.2,2,0.2,2s1,0.3,0.1,2c-0.1,0.3-0.3,0.2-0.4,0.4c-0.2,0.7-1.5,3.4-3.4,3.4C8,12.6,6.7,9.9,6.5,9.2z"/><path d="M22.3,16.4h-3.2v-3.2c0-0.4-0.3-0.7-0.7-0.7c-0.4,0-0.7,0.3-0.7,0.7v3.2h-3.2c-0.4,0-0.7,0.3-0.7,0.7 c0,0.4,0.3,0.7,0.7,0.7h3.2v3.2c0,0.4,0.3,0.7,0.7,0.7c0.4,0,0.7-0.3,0.7-0.7v-3.2h3.2c0.4,0,0.7-0.3,0.7-0.7 C23,16.7,22.7,16.4,22.3,16.4z"/></svg>