<svg xmlns="http://www.w3.org/2000/svg" width="24" height="24" viewBox="0 0 24 24" id="Vlt-icon-volume-increase"><path fill="#000" fill-rule="nonzero" d="M15.196 8.297a.65.65 0 0 1 .908-.93 7.036 7.036 0 0 1 0 10.123.65.65 0 1 1-.908-.931 5.736 5.736 0 0 0 0-8.262zm2.064-1.59a.65.65 0 1 1 .908-.931 9.246 9.246 0 0 1 0 13.305.65.65 0 0 1-.908-.931 7.946 7.946 0 0 0 0-11.444zm2.136-1.592a.65.65 0 0 1 .908-.93 11.457 11.457 0 0 1 0 16.487.65.65 0 1 1-.908-.931 10.157 10.157 0 0 0 0-14.626zm-5.814.27v14.087c0 .931-1.053 1.468-1.82.95L6.238 16.68a3.526 3.526 0 0 0-1.975-.603H2.676c-.922 0-1.676-.735-1.676-1.65v-4c0-.915.754-1.65 1.676-1.65h1.587c.706 0 1.396-.21 1.975-.603l5.524-3.74c.767-.519 1.82.018 1.82.95zm-1.3.268L6.967 9.252a4.826 4.826 0 0 1-2.704.826H2.676c-.211 0-.376.16-.376.35v4c0 .19.165.35.376.35h1.587c.966 0 1.91.288 2.704.826l5.315 3.6V5.653z"/></svg>