<svg xmlns="http://www.w3.org/2000/svg" width="24" height="24" viewBox="0 0 24 24" id="Vlt-icon-home"><path fill="#000" fill-rule="nonzero" d="M9.792 16.068v6.772H4.91a1.585 1.585 0 0 1-1.574-1.596v-7.74a.628.628 0 1 1 1.257 0v7.74c0 .191.145.34.317.34h3.626v-6.772h6.929v6.772h3.626c.172 0 .317-.149.317-.34v-7.74a.628.628 0 1 1 1.257 0v7.74c0 .878-.701 1.596-1.574 1.596H14.21v-6.772H9.792zm2.209-12.81L1.568 13.469a.628.628 0 0 1-.88-.897L12.002 1.5l11.311 11.072a.628.628 0 1 1-.879.897L12.001 3.258zm6.462 2.99V3.492h-2.68a.628.628 0 0 1 0-1.256h3.936v4.014a.628.628 0 0 1-1.256 0z"/></svg>