<svg xmlns="http://www.w3.org/2000/svg" width="24" height="24" viewBox="0 0 24 24" id="Vlt-icon-call-block"><g fill="#000" fill-rule="evenodd"><path d="M9.665 11.431c.599.722 1.052 1.237 1.346 1.53.31.31.83.766 1.55 1.354.57.466 1.036.736 1.358.826.416-.502 1.037-.848 1.852-1.096 1.12-.311 2.373.071 3.84 1 1.145.724 1.856 1.183 2.167 1.402.476.295.835.662 1.038 1.136.202.471.236.98.11 1.482l-.045.146-.385 1.032c-.387 1.037-1.173 1.83-2.3 2.368-.982.45-2.131.5-3.422.198-1.135-.266-2.301-.715-3.5-1.344a26.438 26.438 0 0 1-3.393-2.132c-1.098-.809-2.04-1.605-2.824-2.39-.785-.785-1.581-1.726-2.39-2.824a26.438 26.438 0 0 1-2.132-3.394c-.629-1.198-1.078-2.364-1.344-3.5-.302-1.29-.253-2.44.198-3.42.538-1.128 1.331-1.914 2.368-2.301l1.032-.385.146-.045a2.302 2.302 0 0 1 1.482.11c.49.21.866.586 1.143 1.05.166.258.625.973 1.377 2.148.947 1.477 1.327 2.746.99 3.847-.222.801-.56 1.431-1.07 1.854.069.31.33.772.808 1.348zM2.62 4.371c-.311.679-.348 1.527-.11 2.545.239 1.019.647 2.078 1.225 3.179a25.083 25.083 0 0 0 2.023 3.22c.77 1.046 1.523 1.936 2.257 2.67.733.733 1.623 1.486 2.67 2.256 1.045.77 2.118 1.445 3.219 2.023 1.1.578 2.16.986 3.179 1.225 1.018.238 1.866.201 2.545-.11.808-.386 1.34-.922 1.597-1.61l.385-1.032a.948.948 0 0 0-.041-.62c-.083-.192-.262-.371-.537-.536-.257-.184-.973-.647-2.147-1.39-1.174-.743-2.091-1.023-2.752-.84-.66.202-1.087.473-1.28.812-.192.34-.582.445-1.17.317-.568-.129-1.228-.5-1.98-1.115-.753-.614-1.303-1.096-1.652-1.445-.33-.33-.807-.871-1.431-1.623-.624-.753-.99-1.413-1.1-1.982-.13-.587-.024-.977.316-1.17.34-.192.6-.619.784-1.28.202-.66-.073-1.577-.826-2.751-.752-1.174-1.21-1.89-1.376-2.147-.165-.275-.344-.454-.536-.537a.948.948 0 0 0-.62-.04l-1.032.384c-.688.257-1.224.79-1.61 1.597z"/><path d="M22.907 7.26a5.217 5.217 0 1 1-10.433-.002 5.217 5.217 0 0 1 10.433.001zm-5.216-4.174a4.173 4.173 0 0 0-4.173 4.173c0 .964.34 1.84.89 2.547l5.83-5.83a4.133 4.133 0 0 0-2.547-.89zm0 8.346a4.173 4.173 0 0 0 4.173-4.173c0-.964-.34-1.84-.889-2.546l-5.83 5.83a4.133 4.133 0 0 0 2.546.889z"/></g></svg>