<svg xmlns="http://www.w3.org/2000/svg" width="24" height="24" viewBox="0 0 24 24" id="Vlt-icon-laptop"><path fill="#000" fill-rule="nonzero" d="M4.756 5.22v10.264H18.76V5.22H4.756zm16.558 12.76V3.054c0-.18-.155-.33-.353-.33H2.554c-.197 0-.352.15-.352.33V17.98h7.266v1.412h4.58V17.98h7.266zm1.233 0H24v2.966c0 .861-.713 1.554-1.585 1.554H1.585C.713 22.5 0 21.807 0 20.946V17.98h.969V3.054c0-.861.712-1.554 1.585-1.554h18.407c.873 0 1.586.693 1.586 1.554V17.98zM3.523 3.996h16.47v12.713H3.523V3.996zm11.758 16.62H8.235v-1.412H1.233v1.742c0 .18.155.33.352.33h20.83c.197 0 .352-.15.352-.33v-1.742H15.28v1.413z"/></svg>