<svg xmlns="http://www.w3.org/2000/svg" width="24" height="24" viewBox="0 0 24 24" id="Vlt-icon-pause"><path fill="#000" fill-rule="nonzero" d="M2.81 6.395v11.21c0 1.95 1.51 3.528 3.376 3.528 1.862 0 3.376-1.581 3.376-3.528V6.395c0-1.95-1.51-3.528-3.376-3.528-1.861 0-3.376 1.581-3.376 3.528zm-1.31 0C1.5 3.693 3.601 1.5 6.186 1.5c2.59 0 4.687 2.19 4.687 4.895v11.21c0 2.702-2.101 4.895-4.687 4.895-2.589 0-4.686-2.19-4.686-4.895V6.395zm12.938 0v11.21c0 1.95 1.51 3.528 3.376 3.528 1.861 0 3.376-1.581 3.376-3.528V6.395c0-1.95-1.51-3.528-3.376-3.528-1.862 0-3.376 1.581-3.376 3.528zm-1.31 0c0-2.702 2.1-4.895 4.686-4.895 2.589 0 4.686 2.19 4.686 4.895v11.21c0 2.702-2.101 4.895-4.686 4.895-2.59 0-4.687-2.19-4.687-4.895V6.395z"/></svg>