<svg xmlns="http://www.w3.org/2000/svg" width="24" height="24" viewBox="0 0 24 24" id="Vlt-icon-notification"><path fill="#000" fill-rule="evenodd" d="M20.854 16.895c.524 1.52-.413 3.132-1.994 3.487-1.233.277-2.527.47-3.86.592a3.052 3.052 0 0 1-5.974.003 29.702 29.702 0 0 1-3.888-.593c-1.58-.355-2.515-1.965-1.993-3.485l.64-1.861a12.71 12.71 0 0 0 .693-4.138V9.843c0-3.138 2.03-5.798 4.874-6.84A2.638 2.638 0 0 1 11.988.4a2.638 2.638 0 0 1 2.635 2.593c2.856 1.035 4.9 3.703 4.9 6.85V10.9c0 1.406.234 2.803.693 4.138l.638 1.857zm-2.27 2.257c.86-.193 1.354-1.048 1.08-1.847l-.64-1.857a13.99 13.99 0 0 1-.76-4.548V9.843c0-3.341-2.8-6.056-6.264-6.056-3.462 0-6.262 2.715-6.262 6.056V10.9c0 1.546-.257 3.081-.762 4.548l-.64 1.86c-.274.799.218 1.653 1.078 1.847 1.938.437 4.152.703 6.586.703 2.42 0 4.635-.267 6.584-.706zm-6.571 2.988a1.79 1.79 0 0 0 1.636-1.065c-.545.027-1.093.043-1.649.043-.547 0-1.087-.016-1.623-.042.28.626.905 1.064 1.636 1.064zm-.025-20.48c-.625 0-1.147.418-1.317.988A7.804 7.804 0 0 1 12 2.527c.445 0 .878.045 1.303.117a1.376 1.376 0 0 0-1.316-.984zm-1.313 3.66a.63.63 0 1 1 .47 1.168c-1.792.72-2.55 2.079-2.754 4.887-.03.418-.044.727-.073 1.591-.075 2.174-.2 3.127-.577 3.955a.63.63 0 0 1-1.147-.521c.284-.626.395-1.47.465-3.477.03-.88.045-1.202.077-1.64.235-3.243 1.235-5.039 3.54-5.964z"/></svg>