<svg xmlns="http://www.w3.org/2000/svg" width="24" height="24" viewBox="0 0 24 24" id="Vlt-icon-search"><path fill="#000" fill-rule="nonzero" d="M21.456 21.448a.503.503 0 0 1-.712.003l-5.168-5.086c.268-.239.52-.493.757-.762l5.123 5.136a.503.503 0 0 1 0 .71M2.4 9.795c0-4.078 3.305-7.394 7.367-7.394 4.064 0 7.369 3.316 7.369 7.394 0 4.076-3.305 7.392-7.369 7.392-4.062 0-7.367-3.316-7.367-7.392m20.046 9.95l-5.264-5.277a8.756 8.756 0 0 0 1.353-4.673C18.534 4.945 14.601 1 9.766 1 4.933 1 1 4.945 1 9.796c0 4.85 3.933 8.794 8.766 8.794a8.688 8.688 0 0 0 4.682-1.37l5.318 5.233c.358.353.831.547 1.333.547a1.89 1.89 0 0 0 1.346-.559c.74-.744.74-1.952 0-2.695"/></svg>