<svg xmlns="http://www.w3.org/2000/svg" width="24" height="24" viewBox="0 0 24 24" id="Vlt-icon-file-pdf"><g fill="#000" fill-rule="evenodd"><path d="M19.57 22.7H4.43c-.623 0-1.13-.507-1.13-1.131V2.43c0-.623.507-1.13 1.13-1.13h10.254v5.557c0 .359.291.65.65.65H20.7v14.062c0 .624-.507 1.131-1.13 1.131zM15.984 1.848l4.231 4.359h-4.231V1.848zM16.001 0H4.43A2.43 2.43 0 0 0 2 2.43v19.139A2.43 2.43 0 0 0 4.43 24h15.14A2.43 2.43 0 0 0 22 21.569V6.179L16.001 0z"/><path d="M16.365 15.164c-.732 0-1.83-.188-2.745-.659-1.555.188-2.745.377-3.66.753-.091 0-.091 0-.183.094-1.098 1.976-2.012 2.917-2.744 2.917-.183 0-.275 0-.366-.094l-.458-.282v-.094c-.091-.188-.091-.282-.091-.47.091-.471.64-1.318 1.738-1.977.183-.094.458-.282.823-.47.275-.471.55-1.036.915-1.694.458-.941.732-1.883 1.007-2.73-.366-1.129-.55-1.788-.183-3.105.091-.377.366-.753.732-.753h.183c.183 0 .366.094.549.188.64.659.366 2.165 0 3.388v.094c.366 1.035.915 1.882 1.464 2.447.274.188.457.376.823.565.458 0 .824-.094 1.19-.094 1.098 0 1.83.188 2.104.658.091.189.091.377.091.565-.091.094-.183.376-.366.565a1.785 1.785 0 0 1-.823.188zm-5.032-6.87v-.188c.091-.47.091-.847 0-.941V7.07l-.092-.095s0 .095-.091.095c-.183.564-.183 1.223 0 2.07.091-.377.183-.565.183-.847zm-3.385 7.623c-.64.564-1.098 1.223-1.19 1.505.55-.094 1.098-.658 1.647-1.788-.183.095-.366.189-.457.283zm7.136-2.07h-.183v.093c.64.283 1.281.471 1.739.471h.274v-.094s-.092 0-.092-.094c-.091-.094-.457-.377-1.738-.377zm-4.758-.283c-.183.376-.366.659-.549 1.035h.183c1.19-.47 2.288-.753 3.02-.847a1.267 1.267 0 0 1-.366-.282c-.458-.565-1.007-1.318-1.373-2.165-.183.66-.549 1.412-.915 2.259z"/></g></svg>