<svg xmlns="http://www.w3.org/2000/svg" width="24" height="24" viewBox="0 0 24 24" id="Vlt-icon-emoji"><path fill="#000" fill-rule="nonzero" d="M12 21.016a9.016 9.016 0 1 0 0-18.032 9.016 9.016 0 0 0 0 18.032zm0 1.348c-5.724 0-10.364-4.64-10.364-10.364C1.636 6.276 6.276 1.636 12 1.636c5.724 0 10.364 4.64 10.364 10.364 0 5.724-4.64 10.364-10.364 10.364zm-2.915-11.4c.699 0 1.23-.71 1.23-1.555s-.531-1.554-1.23-1.554c-.698 0-1.23.71-1.23 1.554 0 .845.532 1.555 1.23 1.555zm5.83 0c.698 0 1.23-.71 1.23-1.555s-.532-1.554-1.23-1.554c-.699 0-1.23.71-1.23 1.554 0 .845.531 1.555 1.23 1.555zm-7.277 3.964a8.376 8.376 0 0 1-.283-.593c1.353.384 2.925.604 4.717.604 1.797 0 3.37-.214 4.724-.585a8.27 8.27 0 0 1-.287.599c-.954 1.796-2.358 2.81-4.437 2.81-2.076 0-3.48-1.022-4.434-2.835zm4.434 4.183c6.002 0 6.749-7.046 6.75-7.052-.004.003-2.126 1.532-6.75 1.532-4.628 0-6.75-1.591-6.75-1.591s.745 7.111 6.75 7.111z"/></svg>