<svg xmlns="http://www.w3.org/2000/svg" width="24" height="24" viewBox="0 0 24 24" id="Vlt-icon-file-ppt"><g fill="#000" fill-rule="evenodd"><path d="M19.57 22.7H4.43c-.623 0-1.13-.507-1.13-1.131V2.43c0-.623.507-1.13 1.13-1.13h10.254v5.557c0 .359.291.65.65.65H20.7v14.062c0 .624-.507 1.131-1.13 1.131zM15.984 1.848l4.231 4.359h-4.231V1.848zM16.001 0H4.43A2.43 2.43 0 0 0 2 2.43v19.139A2.43 2.43 0 0 0 4.43 24h15.14A2.43 2.43 0 0 0 22 21.569V6.179L16.001 0z"/><path d="M7.718 10c.343 0 .637.042.884.125.246.084.448.199.608.345.159.147.276.32.352.518.076.2.114.414.114.645 0 .25-.04.479-.117.687a1.379 1.379 0 0 1-.358.535c-.16.149-.363.265-.61.349a2.727 2.727 0 0 1-.873.125h-.589V15H6v-5h1.718zm0 2.454c.294 0 .505-.072.635-.217.129-.144.193-.345.193-.604a.925.925 0 0 0-.05-.312.638.638 0 0 0-.41-.398 1.11 1.11 0 0 0-.368-.055h-.589v1.586h.589zM11.968 10c.343 0 .638.042.884.125.246.084.449.199.608.345.16.147.277.32.353.518.076.2.113.414.113.645 0 .25-.039.479-.116.687a1.379 1.379 0 0 1-.358.535c-.16.149-.364.265-.61.349a2.727 2.727 0 0 1-.874.125h-.588V15h-1.13v-5h1.718zm0 2.454c.294 0 .506-.072.635-.217.13-.144.194-.345.194-.604a.925.925 0 0 0-.05-.312.638.638 0 0 0-.41-.398 1.11 1.11 0 0 0-.369-.055h-.588v1.586h.588zM18 10.92h-1.37V15H15.5v-4.08h-1.37V10H18v.92z"/></g></svg>