<svg xmlns="http://www.w3.org/2000/svg" width="24" height="24" viewBox="0 0 24 24" id="Vlt-icon-stream"><path fill="#000" fill-rule="nonzero" d="M1.6 10.5c.3 0 .6.3.6.6v2c0 .4-.3.7-.6.7s-.6-.3-.6-.7v-2c0-.3.2-.6.6-.6zm2-1c.4 0 .7.3.6.7v4.4c0 .4-.3.7-.6.7S3 15 3 14.6v-4.5c0-.3.2-.6.6-.6zM5.7 9c.3 0 .6.3.6.6v5c0 .4-.3.7-.6.7s-.6-.3-.6-.7v-5c0-.3.2-.6.6-.6zm2-3.5c.4 0 .7.3.6.7v12c0 .4-.3.7-.6.7s-.6-.3-.6-.7v-12c0-.4.2-.7.6-.7zm2.1 1c.3 0 .6.3.5.7v10c0 .4-.3.7-.6.7s-.6-.3-.6-.7v-10c0-.4.3-.7.7-.7zm2-1.5c.4 0 .6.3.6.6v13c0 .4-.3.7-.6.7s-.6-.3-.6-.7v-13c0-.3.2-.6.6-.6zm2-3c.4 0 .7.3.7.6v19c0 .4-.3.7-.7.7-.4 0-.7-.3-.7-.7v-19c0-.3.3-.6.7-.6zm2.1 3c.4 0 .6.3.7.6v13c0 .4-.3.7-.7.7-.4 0-.7-.3-.7-.7v-13c0-.3.3-.6.7-.6zm2 2.5c.4 0 .7.3.7.7v7.9c0 .4-.3.7-.7.7-.4 0-.7-.3-.7-.7v-8c0-.3.3-.6.7-.6zm2.1 3c.4 0 .6.3.7.6v2c0 .4-.3.7-.7.7-.4 0-.7-.3-.7-.7v-2c0-.3.3-.6.7-.6zm2-1c.4 0 .7.3.7.6v4c0 .4-.3.7-.7.7-.4 0-.7-.3-.7-.7v-4c0-.3.3-.6.7-.6z"/></svg>