<svg xmlns="http://www.w3.org/2000/svg" width="24" height="24" viewBox="0 0 24 24" id="Vlt-icon-code-snippet"><path fill="#000" fill-rule="evenodd" d="M7.638 22.211h14.276a.426.426 0 0 0 .396-.396V1.987a.426.426 0 0 0-.396-.396H7.638v20.62zm-1.289 0V1.591H2.086c-.198.099-.396.297-.396.396v19.828c0 .198.198.396.396.396H6.35zM21.914 23.5H2.086A1.566 1.566 0 0 1 .5 21.914V2.086C.5 1.194 1.194.5 2.086.5h19.828c.892 0 1.586.694 1.586 1.586v19.828c0 .892-.694 1.586-1.586 1.586zM9.026 5.259v-1.29h1.487v1.29H9.026zm2.974 0v-1.29h5.453v1.29H12zm6.94 0v-1.29h1.288v1.29H18.94zM9.026 8.233V6.944h1.983v1.289H9.026zm3.965 0V6.944h1.487v1.289h-1.487zm2.975 0V6.944h4.46v1.289h-4.46zm-6.94 2.974V9.918h3.965v1.289H9.026zm4.957 0V9.918h1.983v1.289h-1.983zm2.974 0V9.918h1.289v1.289h-1.29zM9.026 14.18v-1.289h1.487v1.289H9.026zm2.974 0v-1.289h1.289v1.289H12zm2.974 0v-1.289h4.461v1.289h-4.46zm-5.948 2.974v-1.289h4.461v1.29H9.026zm5.948 0v-1.289h2.974v1.29h-2.974zm3.966 0v-1.289h1.982v1.29H18.94zM9.026 20.13v-1.288h1.289v1.288h-1.29zm1.983 0v-1.288h4.46v1.288h-4.46zM3.078 5.26v-1.29H5.06v1.29H3.078zm0 2.974V6.944H5.06v1.289H3.078zm0 2.974V9.918H5.06v1.289H3.078zm0 2.974v-1.289H5.06v1.289H3.078zm0 2.974v-1.289H5.06v1.29H3.078zm0 2.974v-1.288H5.06v1.288H3.078z"/></svg>