<svg xmlns="http://www.w3.org/2000/svg" width="24" height="24" viewBox="0 0 24 24" id="Vlt-icon-modal"><path fill="#000" fill-rule="evenodd" d="M2.072 5.968v15.6c0 .192.191.384.382.384h19.138a.412.412 0 0 0 .383-.383v-15.6H2.072zm0-1.244h19.903V2.427a.412.412 0 0 0-.383-.383H2.454c-.191.096-.382.192-.382.383v2.297zm15.597 5.838l.574.574-.861.862-.574-.574-.574.574-.862-.862.575-.574-.575-.574.862-.861.574.574.574-.574.861.861-.574.574zM21.592 23.1H2.454c-.86 0-1.53-.67-1.53-1.531V2.427c0-.861.67-1.627 1.53-1.627h19.138c.861 0 1.531.67 1.531 1.627v19.142c0 .861-.67 1.531-1.53 1.531zm-1.34-16.079v13.686H3.699V7.021h16.555zm-15.31 1.34v11.198H19.01V8.36H4.942zm-1.53-4.116a.858.858 0 0 1-.862-.86c0-.48.383-.862.861-.862.479 0 .861.383.861.861a.858.858 0 0 1-.86.861zm0-1.244a.412.412 0 0 0-.384.383c0 .192.192.383.383.383a.412.412 0 0 0 .383-.383.412.412 0 0 0-.383-.383zm1.913 1.244a.858.858 0 0 1-.861-.86c0-.48.383-.862.861-.862s.861.383.861.861a.858.858 0 0 1-.86.861zm0-1.244a.412.412 0 0 0-.383.383c0 .192.192.383.383.383a.412.412 0 0 0 .383-.383.412.412 0 0 0-.383-.383zM7.24 4.245a.858.858 0 0 1-.861-.86c0-.48.382-.862.86-.862.48 0 .862.383.862.861a.858.858 0 0 1-.861.861zm0-1.244a.412.412 0 0 0-.383.383c0 .192.191.383.383.383a.412.412 0 0 0 .383-.383.412.412 0 0 0-.383-.383z"/></svg>