<svg xmlns="http://www.w3.org/2000/svg" width="28" height="24" viewBox="0 0 28 24" id="Vlt-icon-group"><path fill="#000" fill-rule="evenodd" d="M15.03 2.703l.348-.352c.808-.818 1.89-1.266 3.138-1.351h.178c2.542.174 4.25 1.803 4.528 4.552l.02.197c.01.113.017.18.025.246.067.583.219 1.027.739 1.939.036.062.074.128.119.2-.041-.067.378.59.486.784.23.414.366.792.388 1.224a2.22 2.22 0 0 1-.454 1.45 2.328 2.328 0 0 1-.63.596c1.397.79 2.521 2.035 3.13 3.233l.391.77-.554.662c-.55.657-.727.857-1.12 1.223-1.026.958-2.253 1.627-3.835 1.956l-.1.017-.195.025c.01.126.018.254.025.384.07 1.271-.873 2.542-2.197 2.542H7.982c-1.34 0-2.264-1.286-2.196-2.565.011-.222.027-.44.047-.65h-2.55c-1.291 0-2.261-1.173-2.28-2.417-.044-3.11.57-4.731 3.113-5.733.28-.11.57-.243.865-.392-.434-.553-.804-1.15-1.014-1.636a1.789 1.789 0 0 1-.404-.52c-.638-1.227-.612-2.332-.006-3.116a8.137 8.137 0 0 1 .227-1.676c.12-.465.398-1.071.915-1.675.858-1.003 2.103-1.61 3.7-1.61 1.496 0 2.683.553 3.537 1.489l.244.267a5.43 5.43 0 0 1 1.544-.213c.466 0 .902.052 1.307.15zm6.63 16.048c2.415-.502 3.502-1.881 4.219-2.737-.403-.792-1.624-2.435-3.484-3.087-1.81-.634-1.827-.785-1.827-1.509.672-.201 2.345.182 2.924-.603.533-.725-.102-1.32-.623-2.233-.86-1.51-.867-2.09-.949-2.898-.225-2.23-1.527-3.256-3.315-3.379-.926.063-1.714.376-2.297.966 1.185.723 1.802 1.85 1.989 2.573.152.6.206 1.2.222 1.64.11.138.208.297.285.48.31.734.214 1.62-.286 2.638-.118.24-.267.415-.4.537a8.189 8.189 0 0 1-1.331 2.207c.26.178.63.402 1.1.599 2.42 1.019 3.242 3.194 3.542 4.836l.232-.03zm-2.2 2.94c.508 0 .922-.597.891-1.161-.135-2.475-.827-4.507-2.948-5.4a7.329 7.329 0 0 1-1.571-.897c-.596.43-1.298.721-2.108.721-.805 0-1.504-.287-2.098-.713-.299.25-.83.634-1.585.952-2.124.894-2.815 2.772-2.949 5.311-.03.575.373 1.188.89 1.188H19.46zM3.283 18.477h2.791c.367-1.73 1.256-3.532 3.483-4.469.51-.215.879-.46 1.12-.643a8.202 8.202 0 0 1-1.35-2.234 1.756 1.756 0 0 1-.397-.51c-.482-.925-.594-1.767-.334-2.5.083-.233.198-.436.33-.606a8.13 8.13 0 0 1 .226-1.675c.177-.685.745-1.736 1.817-2.459-.504-.552-1.307-1.062-2.57-1.062-2.753 0-3.348 2.305-3.348 2.305-.236.928-.185 1.917-.185 1.917s-.943.404-.143 1.944c.12.228.292.205.367.396.12.437 1.071 2.033 2.014 2.634 0 0-1.172.812-2.509 1.338-2.237.882-2.311 2.615-2.285 4.497.009.554.442 1.127.973 1.127zm13.79-12.311s-.596-2.304-3.349-2.304c-2.754 0-3.35 2.304-3.35 2.304-.236.928-.183 1.915-.183 1.915s-.943.4-.143 1.94c.117.228.29.198.366.388.182.66 1.43 3.263 3.31 3.263 1.878 0 3.128-2.603 3.31-3.263.035-.143.231-.13.354-.38.812-1.654-.13-1.948-.13-1.948s.05-.987-.185-1.915z"/></svg>