<svg xmlns="http://www.w3.org/2000/svg" width="24" height="24" viewBox="0 0 24 24" id="Vlt-icon-call-flip"><path fill="#000" fill-rule="evenodd" d="M9.53 17.801c.247.943.349 1.66.456 2.735.136 1.367-.714 2.182-2.07 2.404-.964.157-2.181-.007-2.78-.334-2.212-1.208-3.417-4.088-3.982-9.348-.534-4.967.348-9.012 2.254-11.124C4.95.426 7.34.866 8.625 2.016c.853.769.767 1.994-.014 5.97-.125.634-.506.795-1.604 1.034l-.064.013c-.597.13-.834.23-.846.269-.425 1.35-.297 3.77.18 5.41.052.182.143.217.698.247l.118.005c.713.042 1.135.174 1.48.63.408.542.719 1.293.958 2.207zm-1.821 3.88c.796-.13 1.065-.426 1.006-1.02-.112-1.126-.21-1.736-.42-2.538-.209-.8-.461-1.389-.743-1.762-.061-.082-.106-.1-.53-.124l-.059-.003c-.02 0-.02 0-.055-.003-1.075-.056-1.59-.24-1.858-1.164-.561-1.93-.665-4.58-.171-6.147.243-.77.441-.838 1.793-1.132l.032-.007.031-.007a7.27 7.27 0 0 0 .647-.161c.69-3.527.698-4.37.389-4.649-.994-.89-2.53-.955-3.414.024-1.65 1.83-2.423 5.567-1.933 10.134.527 4.908 1.592 7.419 3.325 8.366.343.188 1.283.305 1.96.194zM20.592 2.136c1.905 2.112 2.788 6.156 2.255 11.123-.565 5.26-1.772 8.14-3.981 9.347-.6.328-1.818.492-2.781.335-1.356-.222-2.206-1.037-2.07-2.404.106-1.076.208-1.791.454-2.735.239-.915.55-1.665.96-2.207.343-.456.766-.588 1.478-.63l.119-.005c.555-.03.645-.065.698-.247.477-1.64.605-4.06.179-5.41-.012-.039-.248-.138-.847-.268l-.062-.014c-1.098-.238-1.48-.4-1.604-1.035-.782-3.976-.867-5.201-.013-5.97 1.283-1.149 3.674-1.588 5.215.12zm.985 10.987c.49-4.568-.282-8.305-1.934-10.134-.883-.979-2.42-.914-3.41-.026-.312.28-.305 1.123.385 4.65.124.04.33.094.647.163l.032.007.032.006c1.352.295 1.55.361 1.792 1.13.495 1.569.391 4.22-.17 6.15-.27.923-.784 1.108-1.858 1.163l-.054.003-.058.003c-.428.025-.47.043-.533.124-.28.373-.533.96-.743 1.76-.209.803-.307 1.414-.42 2.541-.058.594.21.89 1.007 1.02.677.11 1.615-.007 1.96-.195 1.733-.946 2.798-3.456 3.325-8.365zm-5.23-1.39l-.864.704-3.706 3.027-.863-.705 3.096-2.528H8v-.997h6.01l-3.096-2.528.863-.705 4.57 3.732z"/></svg>