<svg xmlns="http://www.w3.org/2000/svg" width="24" height="24" viewBox="0 0 24 24" id="Vlt-icon-volume"><path fill="#000" fill-rule="evenodd" d="M13.614 5.151V19.24c0 .93-1.054 1.467-1.821.949l-5.54-3.74a3.546 3.546 0 0 0-1.983-.604H2.68c-.923 0-1.679-.734-1.679-1.65v-4c0-.915.756-1.65 1.679-1.65H4.27c.71 0 1.402-.21 1.983-.603l5.54-3.74c.767-.518 1.821.018 1.821.95zm-1.3.268l-5.333 3.6a4.846 4.846 0 0 1-2.71.826H2.678c-.214 0-.379.161-.379.35v4c0 .19.165.35.379.35H4.27c.968 0 1.914.288 2.71.826l5.334 3.601V5.42zm3.083 2.646a.65.65 0 1 1 .906-.932 7.023 7.023 0 0 1 0 10.125.65.65 0 1 1-.906-.932 5.723 5.723 0 0 0 0-8.26zm2.7-1.59a.65.65 0 0 1 .906-.933 9.23 9.23 0 0 1 0 13.307.65.65 0 0 1-.906-.932 7.93 7.93 0 0 0 0-11.443z"/></svg>