<svg xmlns="http://www.w3.org/2000/svg" width="25" height="25" viewBox="0 0 25 25" id="Vlt-icon-notification-off"><path fill="#000" fill-rule="nonzero" d="M10.548 2.95A2.24 2.24 0 0 1 12.762 1a2.24 2.24 0 0 1 2.206 1.891 7.724 7.724 0 0 1 2.48 1.2.65.65 0 0 1 .143.904.639.639 0 0 1-.896.144 6.489 6.489 0 0 0-3.837-1.241c-3.542 0-6.406 2.797-6.406 6.236v1.102a14.76 14.76 0 0 1-.792 4.77l-.663 1.94a.64.64 0 0 1-.815.401.648.648 0 0 1-.399-.822l.663-1.94c.478-1.403.722-2.87.722-4.349v-1.102c0-3.373 2.264-6.224 5.38-7.184zm1.216-.27a7.914 7.914 0 0 1 1.981-.026 1.145 1.145 0 0 0-1.98.026zm4.806 18.895A3.608 3.608 0 0 1 13.17 24c-1.68 0-2.85-.89-3.464-2.363a32.153 32.153 0 0 1-1.726-.206.646.646 0 0 1-.542-.734.643.643 0 0 1 .728-.546 32.08 32.08 0 0 0 4.672.335c2.5 0 4.788-.278 6.798-.733.846-.192 1.33-1.037 1.062-1.825l-.661-1.936a14.747 14.747 0 0 1-.793-4.77V10.12c0-.392-.037-.78-.11-1.161a.642.642 0 0 1 1.26-.247c.089.462.134.933.134 1.408v1.102c0 1.48.244 2.948.723 4.35l.66 1.936c.52 1.524-.41 3.148-1.993 3.507a30.469 30.469 0 0 1-3.348.56zm-1.497.133a34.21 34.21 0 0 1-3.856.034c.44.63 1.079.964 1.952.964.779 0 1.48-.389 1.904-.998zM8.74 12.922a.494.494 0 1 1-.973-.168c.073-.428.097-.79.126-1.62l.015-.392C8.031 7.8 8.91 6.246 12.024 5.057a.493.493 0 0 1 .636.29.499.499 0 0 1-.286.64c-2.7 1.031-3.372 2.22-3.48 4.796l-.014.386c-.03.876-.057 1.267-.14 1.753zM2.848 23.47a.639.639 0 0 1-.908.004.65.65 0 0 1-.004-.915L22.152 2.005A.639.639 0 0 1 23.06 2a.65.65 0 0 1 .004.914L2.848 23.47z"/></svg>