<svg xmlns="http://www.w3.org/2000/svg" width="24" height="24" viewBox="0 0 24 24" id="Vlt-icon-inbox-2"><path fill="#000" fill-rule="evenodd" d="M18.721 6.128l4.779 7.66v7.084a1.63 1.63 0 0 1-1.629 1.628H2.13A1.63 1.63 0 0 1 .5 20.872V13.79l4.736-7.6a1.616 1.616 0 0 1 1.384-.745h1.432a.641.641 0 1 1 0 1.282H6.62c-.14 0-.232.047-.305.158L2.298 13.33h5.36c.56 0 1.011.365 1.121.908l.249 1.288c.027.121.153.27.357.27h5.28c.205 0 .33-.149.36-.288l.244-1.264c.11-.548.561-.914 1.124-.914h5.31l-4.029-6.464v.001c-.006 0-.138-.14-.294-.14h-1.432a.641.641 0 1 1 0-1.283h1.432c.505 0 .994.249 1.341.684zm3.15 15.09a.35.35 0 0 0 .346-.346v-6.259h-5.713l-.22 1.156a1.647 1.647 0 0 1-1.619 1.309h-5.28a1.642 1.642 0 0 1-1.614-1.293l-.226-1.172H1.783v6.26a.35.35 0 0 0 .346.344H21.87zm-10.327-9.26l-1.972-1.97a.64.64 0 0 1 0-.906c.25-.25.657-.25.908 0l.878.878V2.14a.641.641 0 0 1 1.284 0v7.82l.879-.878a.641.641 0 0 1 .908.906l-1.974 1.97-.003.004-.452.45-.452-.45-.004-.004z"/></svg>