<svg xmlns="http://www.w3.org/2000/svg" width="24" height="24" viewBox="0 0 24 24" id="Vlt-icon-code"><path fill="#000" fill-rule="nonzero" d="M0 12.312l6.103-6.053c.31-.313.725-.313 1.035 0 .31.313.31.73 0 1.044l-4.966 5.009 4.966 5.009c.31.313.31.73 0 1.043-.31.314-.724.314-1.035 0L0 12.312zm24 0l-6.103 6.052c-.31.314-.725.314-1.035 0-.31-.313-.31-.73 0-1.043l4.966-5.01-4.966-5.008c-.31-.313-.31-.73 0-1.044.31-.313.724-.313 1.035 0L24 12.312zm-14.276 8.14c-.103.417-.517.626-.93.521-.311-.208-.518-.521-.415-.939l5.587-15.549c.206-.313.62-.626.93-.417.31.208.518.521.414.939L9.724 20.452z"/></svg>