<svg xmlns="http://www.w3.org/2000/svg" width="24" height="24" viewBox="0 0 24 24" id="Vlt-icon-credit-card"><path fill="#000" fill-rule="evenodd" d="M20.454 4A2.552 2.552 0 0 1 23 6.551v11.158a2.552 2.552 0 0 1-2.546 2.552H3.547A2.552 2.552 0 0 1 1 17.709V6.55A2.552 2.552 0 0 1 3.547 4h16.907zm0 15.039c.728 0 1.318-.597 1.318-1.33V8.982H2.228v8.727c0 .733.591 1.33 1.32 1.33h16.906zM3.547 5.222c-.728 0-1.319.597-1.319 1.329V7.76h19.544V6.55c0-.732-.59-1.33-1.318-1.33H3.547zm8.695 10.339v-1.222h7.246v1.222h-7.246z"/></svg>