<svg xmlns="http://www.w3.org/2000/svg" width="24" height="24" viewBox="0 0 24 24" id="Vlt-icon-copy"><path fill="#000" fill-rule="evenodd" d="M20.72 7.466h-3.055a1.63 1.63 0 0 1-1.626-1.635V2.288H7.79a.296.296 0 0 0-.296.298v2.18h5.258l5.037 5.573v7.607h2.636a.296.296 0 0 0 .295-.297V7.466zm-.808-1.288L17.32 3.31v2.521c0 .192.155.347.345.347h2.247zm-13.7-1.412v-2.18C6.212 1.71 6.918 1 7.788 1h9.175L22 6.573v11.076c0 .875-.706 1.585-1.576 1.585h-2.636v2.18c0 .876-.706 1.586-1.576 1.586H3.576C2.706 23 2 22.29 2 21.414V6.351c0-.875.706-1.585 1.576-1.585h2.636zm6.896 2.31v2.52c0 .192.155.348.345.348H15.7l-2.592-2.868zm3.4 4.156h-3.055a1.63 1.63 0 0 1-1.625-1.635V6.054H3.576a.296.296 0 0 0-.295.297v15.063c0 .165.132.298.295.298h12.636a.296.296 0 0 0 .295-.298V11.232z"/></svg>