<svg xmlns="http://www.w3.org/2000/svg" width="24" height="24" viewBox="0 0 24 24" id="Vlt-icon-unlock"><path fill="#000" fill-rule="evenodd" d="M18.5 8.6c1.1 0 2 .9 2 2v10.2c0 1.1-.9 2-2 2h-13c-1.1 0-2-.9-2-2V10.7c0-1.1.9-2 2-2h10.2V6.1c0-2-1.6-3.7-3.7-3.7S8.3 4 8.3 6.1v.2H6.9v-.2C6.9 3.3 9.2 1 12 1s5.1 2.3 5.1 5.1v2.5h1.4zm.7 12.1V10.6c0-.4-.3-.7-.7-.7h-13c-.4 0-.7.3-.7.7v10.1c0 .4.3.7.7.7h13c.4 0 .7-.3.7-.7zM12 11.4c1.6 0 2.9 1.3 2.9 2.9 0 1-.5 1.9-1.3 2.4V19.5h-3.4V16.7c-.8-.6-1.3-1.4-1.3-2.4.2-1.6 1.5-2.9 3.1-2.9zm.9 4.3c.5-.3.7-.8.7-1.4 0-.9-.8-1.7-1.7-1.7-.9 0-1.7.8-1.7 1.7 0 .5.3 1 .8 1.4l.5.4v2.2h.8v-2.2l.6-.4z"/></svg>