<svg xmlns="http://www.w3.org/2000/svg" width="24" height="24" viewBox="0 0 24 24" id="Vlt-icon-whisper"><path fill="#000" fill-rule="nonzero" d="M20.017 5.203c-.24 0-.467.05-.68.128V4.314c0-1.06-.86-1.925-1.916-1.925h-.134c-.235 0-.458.05-.666.127A1.982 1.982 0 0 0 14.702 1a1.989 1.989 0 0 0-1.982 1.992v.322a1.967 1.967 0 0 0-.666-.124 1.99 1.99 0 0 0-1.983 1.992v2.415C8.368 5.29 8.208 3.612 8.208 3.101v-1.38c0-.359-.295-.65-.66-.65a.655.655 0 0 0-.658.65v1.38c0 .71.228 3.284 3.153 6.54.31.344.485.704.457.937-.006.045-.021.164-.225.303-.552.375-1.51.625-1.831.69l-.913.183.48.789c.05.086.52.817 1.467 1.023.035.026.072.062.076.091.012.088-.093.37-.58.809l-.876.786 1.137.32c.197.056.513.24.533.36.017.107-.163.537-1.192 1.222l-.29.195v1.613c0 .705-.625 1.459-2.38 1.459H2.623c-.74 0-1.623.335-1.623 1.928 0 .36.295.651.658.651a.655.655 0 0 0 .659-.65c0-.627.108-.627.306-.627h3.283c2.051 0 3.107-.84 3.505-1.799l1.102 1.09c.112.11.23.599.244 1.005.012.351.304.63.658.63h.02a.654.654 0 0 0 .638-.67c-.006-.218-.067-1.331-.628-1.885l-1.842-1.82v-.242c1.106-.8 1.586-1.555 1.465-2.304-.069-.43-.322-.744-.6-.962.328-.455.455-.899.384-1.325-.097-.572-.515-.887-.742-1.02.314-.125.636-.28.91-.468.574-.389.745-.876.786-1.218.06-.471-.09-.987-.418-1.49V5.182c0-.38.298-.69.666-.69.366 0 .665.31.665.69v6.333h1.318V2.992c0-.381.299-.69.665-.69.367 0 .665.309.665.69v8.498h.004v.008h1.317V4.314c0-.338.274-.622.6-.622h.133c.324 0 .597.284.597.622v7.173h1.318v-1.015c.003-.027.016-.05.016-.077v-3.2c0-.381.298-.69.665-.69.366 0 .665.309.665.69v7.033c0 2.159-.464 3.988-.741 5.082-.085.334-.154.606-.192.807a13.043 13.043 0 0 0-.195 1.893.653.653 0 0 0 .657.666c.358 0 .65-.283.659-.637 0-.008.02-.872.174-1.683.034-.183.097-.428.174-.73.293-1.151.782-3.08.782-5.398V7.195a1.99 1.99 0 0 0-1.983-1.992"/></svg>