<svg xmlns="http://www.w3.org/2000/svg" width="24" height="24" viewBox="0 0 24 24" id="Vlt-icon-palette"><path fill="#000" fill-rule="nonzero" d="M20.885 5.129C17.263.729 10.368.267 5.577 4.087-.265 8.717-.616 17.17 5.11 18.095c.467.115.935.115 1.519 0 .818-.116 1.402-.348 2.57-.926 1.987-.927 2.572-1.042 2.922-.695.117.116.117.231.117.231 0 .232-.117.348-.584 1.158-.35.579-.585.926-.701 1.39-.468 1.852 1.051 3.357 3.038 3.24 1.402-.115 2.687-.81 4.44-2.199 4.908-3.936 6.077-10.65 2.454-15.165zm-3.272 14.123c-1.636 1.274-2.687 1.853-3.856 1.968-1.168.116-1.986-.579-1.753-1.62.117-.348.234-.58.585-1.042.7-1.158.817-1.39.817-1.968 0-.348-.233-.695-.467-.926-.935-1.042-1.753-.927-4.323.347-1.052.463-1.636.694-2.22.81-.351.116-.702.116-1.052 0-4.44-.694-4.09-7.64 1.051-11.692 4.324-3.473 10.4-3.01 13.555.81 3.038 3.936 2.104 9.84-2.337 13.313zM6.746 9.412c-1.52 0-2.688 1.274-2.688 2.663 0 1.39 1.286 2.662 2.688 2.662 1.402 0 2.687-1.273 2.687-2.662 0-1.39-1.168-2.663-2.687-2.663zm0 4.284c-.818 0-1.52-.695-1.52-1.505 0-.81.702-1.505 1.52-1.505.818 0 1.519.694 1.519 1.505 0 .81-.701 1.505-1.52 1.505zm2.921-8.451a2.085 2.085 0 0 0-2.103 2.084c0 1.157.935 2.083 2.103 2.083a2.085 2.085 0 0 0 2.104-2.083 2.085 2.085 0 0 0-2.104-2.084zm0 2.894a.795.795 0 0 1-.818-.81c0-.464.35-.81.818-.81.468 0 .818.346.818.81 0 .463-.35.81-.818.81zm4.908-3.357c-.818 0-1.52.694-1.52 1.505 0 .81.702 1.505 1.52 1.505.818 0 1.52-.695 1.52-1.505 0-.81-.702-1.505-1.52-1.505zm0 1.852c-.117 0-.35-.116-.35-.347 0-.232.116-.348.35-.348.234 0 .35.116.35.348 0 .231-.233.347-.35.347zm3.856.579c-.7 0-1.168.463-1.168 1.157 0 .695.467 1.158 1.168 1.158.701 0 1.169-.463 1.169-1.158 0-.694-.468-1.157-1.169-1.157zm0 1.157s-.117 0 0 0c-.117-.115 0-.231 0-.231s.117.116 0 .231c.117 0 .117 0 0 0z"/></svg>