<svg xmlns="http://www.w3.org/2000/svg" width="24" height="24" viewBox="0 0 24 24" id="Vlt-icon-group-3"><path fill="#000" fill-rule="nonzero" d="M14.825 21.773a.33.33 0 0 0 .33-.33v-8.97A3.159 3.159 0 0 0 12 9.308a3.159 3.159 0 0 0-3.155 3.163v8.97c0 .183.148.33.33.33h5.65zm0 1.227h-5.65a1.556 1.556 0 0 1-1.554-1.558v-8.97c0-2.425 1.96-4.39 4.379-4.39a4.385 4.385 0 0 1 4.379 4.39v8.97c0 .86-.696 1.558-1.554 1.558zm2.825-11.33a.613.613 0 0 1 0-1.228h.471a4.385 4.385 0 0 1 4.379 4.39v6.61c0 .86-.696 1.558-1.554 1.558H17.65a.613.613 0 0 1 0-1.227h3.296a.33.33 0 0 0 .33-.33v-6.61a3.159 3.159 0 0 0-3.155-3.163h-.47zM6.35 21.773a.613.613 0 0 1 0 1.227H3.054A1.556 1.556 0 0 1 1.5 21.442v-6.61c0-2.424 1.96-4.39 4.379-4.39h.47a.613.613 0 0 1 0 1.228h-.47a3.159 3.159 0 0 0-3.155 3.163v6.61c0 .182.148.33.33.33H6.35zM12 7.893a3.442 3.442 0 0 1-3.437-3.447A3.442 3.442 0 0 1 12 1a3.442 3.442 0 0 1 3.437 3.446A3.442 3.442 0 0 1 12 7.893zm0-1.228a2.216 2.216 0 0 0 2.213-2.219c0-1.225-.99-2.219-2.213-2.219a2.216 2.216 0 0 0-2.213 2.22c0 1.225.99 2.218 2.213 2.218zm6.121 3.116a2.97 2.97 0 0 1-2.966-2.974 2.97 2.97 0 0 1 2.966-2.974 2.97 2.97 0 0 1 2.966 2.974 2.97 2.97 0 0 1-2.966 2.974zm0-1.227c.962 0 1.742-.782 1.742-1.747 0-.965-.78-1.747-1.742-1.747s-1.742.782-1.742 1.747c0 .965.78 1.747 1.742 1.747zM5.88 9.78a2.97 2.97 0 0 1-2.966-2.974 2.97 2.97 0 0 1 2.966-2.974 2.97 2.97 0 0 1 2.966 2.974A2.97 2.97 0 0 1 5.88 9.78zm0-1.227c.962 0 1.742-.782 1.742-1.747 0-.965-.78-1.747-1.742-1.747s-1.742.782-1.742 1.747c0 .965.78 1.747 1.742 1.747z"/></svg>