<svg xmlns="http://www.w3.org/2000/svg" width="24" height="24" viewBox="0 0 24 24" id="Vlt-icon-file-gear"><path fill="#000" fill-rule="evenodd" d="M4.147 22.11c0 .222.184.403.407.403h9.812v1.148H4.554A1.554 1.554 0 0 1 3 22.109V2.553C3 1.696 3.697 1 4.554 1h11.03l6.223 6.203v5.594H20.66V8.016h-5.886V2.148H4.554a.407.407 0 0 0-.407.405v19.556zM15.921 2.955v3.91h3.925l-3.925-3.91zM6.517 8.845V7.697h5.887v1.148H6.517zm-.001 2.87v-1.148H18.29v1.147H6.516zm0 2.87v-1.149h6.868v1.148H6.516zm0 2.87v-1.149h6.87v1.148h-6.87zm16.107 1.51l1.16 1.061-1.16 2.222-1.835-.58-.193 1.835h-2.511l-.193-1.738-1.739.676-1.255-2.125 1.255-1.159-1.352-1.062 1.352-2.221 1.835.579.193-1.835h2.511l.194 1.738 1.738-.676 1.256 2.125-1.256 1.16zm-.483 1.738l.193-.387-.676-.58a1.224 1.224 0 0 1 0-1.738l.676-.58-.193-.386-.87.29c-.675.29-1.351-.193-1.448-.869l-.096-.87h-.387l-.096.967c-.097.772-.773 1.159-1.449.965l-1.062-.29-.194.387.677.58a1.224 1.224 0 0 1 0 1.738l-.677.58.194.386.869-.29c.676-.29 1.352.193 1.449.87l.096.868h.386l.097-.965c.097-.773.773-1.16 1.449-.966l1.062.29z"/></svg>