<svg xmlns="http://www.w3.org/2000/svg" width="24" height="24" viewBox="0 0 24 24" id="Vlt-icon-microphone-2"><path fill="#000" fill-rule="evenodd" d="M12 0c2.762 0 5 2.396 5 5.351v7.298C17 15.604 14.762 18 12 18s-5-2.396-5-5.351V5.35C7 2.396 9.238 0 12 0zm0 16.682c2.062 0 3.74-1.809 3.74-4.033V9.474H8.26v3.175c0 2.224 1.678 4.033 3.74 4.033zm0-15.364c-2.062 0-3.74 1.809-3.74 4.033v2.805h7.48V5.35c0-2.224-1.678-4.033-3.74-4.033zM19.105 10c.356 0 .645.286.645.64v2.053c0 4.15-3.132 7.559-7.104 7.896v2.131h1.541c.358 0 .647.287.647.64 0 .354-.29.64-.647.64H9.813a.643.643 0 0 1-.646-.64c0-.353.29-.64.646-.64h1.542v-2.13c-3.973-.34-7.105-3.748-7.105-7.897v-2.054c0-.353.289-.639.645-.639.358 0 .647.286.647.64v2.053c0 3.667 2.897 6.65 6.459 6.65 3.561 0 6.458-2.983 6.458-6.65v-2.054c0-.353.29-.639.646-.639z"/></svg>