<svg xmlns="http://www.w3.org/2000/svg" width="24" height="24" viewBox="0 0 24 24" id="Vlt-icon-cloud"><path fill="#000" fill-rule="nonzero" d="M18.188 19.144H5.553c-2.047 0-3.713-1.74-3.713-3.908 0-2.165 1.666-3.907 3.713-3.907.983 0 1.899.396 2.561 1.088l1.88 1.966-.754-2.626a4.731 4.731 0 0 1-.18-1.375c0-3.084 2.335-5.526 5.26-5.526 2.677 0 4.835 2.051 5.188 4.759a5.07 5.07 0 0 0-1.32-.18v1.355c.774 0 1.474.217 2.105.642l.007-.012c1.14.761 1.86 2.087 1.86 3.547 0 2.328-1.768 4.177-3.972 4.177m2.731-8.942C20.831 6.465 17.94 3.5 14.32 3.5c-3.675 0-6.6 3.06-6.6 6.882l.001.095a4.891 4.891 0 0 0-2.168-.503C2.755 9.974.5 12.332.5 15.236c0 2.906 2.255 5.264 5.053 5.264h12.635c2.954 0 5.312-2.466 5.312-5.533 0-1.969-.994-3.769-2.58-4.765"/></svg>