<svg xmlns="http://www.w3.org/2000/svg" width="24" height="24" viewBox="0 0 24 24" id="Vlt-icon-grid-two"><path fill="#000" fill-rule="nonzero" d="M21.152 2.742H2.735v18.516h18.417V2.742zm.113 19.758H2.623A1.128 1.128 0 0 1 1.5 21.371V2.629c0-.564.45-1.129 1.123-1.129h18.754c.562 0 1.123.452 1.123 1.129v18.855c-.112.564-.561 1.016-1.235 1.016zM5.094 5.113h5.39v13.774h-5.39V5.113zm6.513-1.242H3.858v16.258h7.749V3.871zm1.909 1.242h5.39v13.774h-5.39V5.113zm6.513-1.242h-7.748v16.258h7.748V3.871z"/></svg>