<svg xmlns="http://www.w3.org/2000/svg" width="24" height="24" viewBox="0 0 24 24" id="Vlt-icon-list"><path fill="#000" fill-rule="evenodd" d="M4.3 22C3.1 22 2 21 2 19.7c0-1.2 1-2.3 2.3-2.3 1.3 0 2.3 1 2.3 2.3C6.5 21 5.5 22 4.3 22zm0-7.2c-1.3 0-2.3-1-2.3-2.3 0-1.3 1-2.2 2.3-2.2 1.3 0 2.3 1 2.3 2.3 0 1.3-1.1 2.2-2.3 2.2zm0-7.2C3 7.6 2 6.6 2 5.3 2 4 3 3 4.3 3c1.3 0 2.3 1 2.3 2.3 0 1.3-1.1 2.3-2.3 2.3zm0 13.1c.5 0 1-.4 1-1 0-.5-.4-1-1-1s-1 .4-1 1 .5 1 1 1zm0-7.2c.5 0 1-.4 1-1s-.4-1-1-1-1 .4-1 1 .5 1 1 1zm0-7.2c.5 0 1-.4 1-1s-.4-1-1-1-1 .4-1 1 .5 1 1 1zm5.6 14V19H22v1.3H9.9zm0-14.5V4.5H22v1.3H9.9zm0 7.3v-1.3H22v1.3H9.9z"/></svg>