<svg xmlns="http://www.w3.org/2000/svg" width="24" height="24" viewBox="0 0 24 24" id="Vlt-icon-sidebar"><path fill="#000" fill-rule="nonzero" d="M21.402 1H2.598C1.752 1 1 1.752 1 2.598v18.804C1 22.248 1.658 23 2.598 23h18.804c.846 0 1.598-.658 1.598-1.598V2.598C23 1.752 22.248 1 21.402 1zM2.598 2.316h18.804c.188 0 .282.188.282.282v2.163H2.316V2.598c0-.188.094-.282.282-.282zm-.282 19.086V6.077h5.83v15.7H2.597c-.188-.093-.282-.187-.282-.375zm19.086.282H9.368V6.077h12.41v15.325c-.094.188-.188.282-.376.282zM16.7 4.384a.843.843 0 0 1-.846-.846c0-.47.376-.846.846-.846s.846.376.846.846-.376.847-.846.847zm0-1.222a.404.404 0 0 0-.376.376c0 .188.188.377.376.377a.404.404 0 0 0 .376-.377.404.404 0 0 0-.376-.376zm1.88 1.223a.843.843 0 0 1-.846-.847c0-.47.376-.846.846-.846s.846.376.846.846-.376.847-.846.847zm0-1.223a.404.404 0 0 0-.376.376c0 .188.188.377.376.377a.404.404 0 0 0 .376-.377.404.404 0 0 0-.376-.376zm1.88 1.223a.843.843 0 0 1-.846-.847c0-.47.376-.846.847-.846.47 0 .846.376.846.846s-.376.847-.846.847zm0-1.223a.404.404 0 0 0-.376.376c0 .188.189.377.377.377a.404.404 0 0 0 .376-.377.404.404 0 0 0-.376-.376z"/></svg>