<svg xmlns="http://www.w3.org/2000/svg" width="24" height="24" viewBox="0 0 24 24" id="Vlt-icon-user-small"><path fill="#000" fill-rule="evenodd" d="M4.07 20.114c.417-2.992 2.096-4 3.724-4.577a8.015 8.015 0 0 0 2.029-1.068c.635.432 1.358.736 2.176.736.818 0 1.54-.302 2.176-.736a7.972 7.972 0 0 0 2.027 1.068c1.63.577 3.309 1.585 3.727 4.577H4.069zM8.782 8.582l-.046-.823c0-.01-.047-1.016.19-1.91.058-.2.641-1.963 3.072-1.963 2.43 0 3.014 1.762 3.068 1.95.241.91.192 1.916.192 1.925l-.044.823.668.122c-.002.12-.043.39-.293.877-.22.138-.468.316-.562.66-.213.742-1.527 3.076-3.029 3.076-1.5 0-2.815-2.334-3.027-3.07-.09-.324-.311-.501-.564-.666-.25-.486-.293-.758-.295-.877l.67-.124zm13.174 12.435c-.212-4.957-3.006-6.514-5.089-7.253a5.892 5.892 0 0 1-1.276-.638c.57-.726.981-1.496 1.195-2.047.153-.1.303-.213.408-.405.658-1.17.804-2.098.443-2.84a1.693 1.693 0 0 0-.435-.563 8.614 8.614 0 0 0-.255-1.907C16.638 4.2 15.201 2 11.999 2c-3.2 0-4.638 2.2-4.95 3.365a8.585 8.585 0 0 0-.255 1.906 1.693 1.693 0 0 0-.436.564c-.36.741-.215 1.67.437 2.826.102.185.236.296.416.417.212.548.624 1.318 1.195 2.046a5.78 5.78 0 0 1-1.278.64c-2.081.74-4.875 2.296-5.087 7.253L2 22h20l-.043-.983z"/></svg>