<svg xmlns="http://www.w3.org/2000/svg" width="24" height="24" viewBox="0 0 24 24" id="Vlt-icon-mind-map"><path fill="#000" fill-rule="nonzero" d="M19.5 22.606c-1.3 0-2.3-.996-2.3-2.29 0-1.295 1-2.291 2.3-2.291 1.3 0 2.3.996 2.3 2.29 0 1.295-1 2.29-2.3 2.29M8.7 11.652c0-1.792 1.5-3.286 3.3-3.286 1.8 0 3.3 1.494 3.3 3.286 0 1.793-1.5 3.287-3.3 3.287-1.8 0-3.3-1.394-3.3-3.287M5 19.42c-.4 0-.6-.299-.6-.597 0-.3.3-.598.6-.598.4 0 .6.299.6.598 0 .298-.3.597-.6.597M21 1.295c.7 0 1.2.498 1.2 1.195 0 .697-.5 1.195-1.2 1.195s-1.2-.498-1.2-1.195c0-.697.5-1.195 1.2-1.195M3 7.27c-.7 0-1.2-.598-1.2-1.295S2.3 4.78 3 4.78s1.2.598 1.2 1.195c0 .697-.5 1.295-1.2 1.295m16.5 9.46c-.6 0-1.2.2-1.7.399l-2.2-2.59c.7-.796 1-1.792 1-2.888 0-1.095-.4-2.09-1.1-2.888l4.2-4.083c.4.2.8.3 1.3.3 1.4 0 2.5-1.096 2.5-2.49A2.47 2.47 0 0 0 21 0a2.47 2.47 0 0 0-2.5 2.49c0 .398.1.896.3 1.195l-4.2 4.182c-.7-.498-1.6-.796-2.6-.796-1.3 0-2.5.497-3.4 1.493L5.4 6.672c.1-.199.1-.398.1-.697A2.47 2.47 0 0 0 3 3.485C1.6 3.485.5 4.68.5 5.975A2.47 2.47 0 0 0 3 8.465c.6 0 1.3-.299 1.7-.697L7.9 9.56c-.3.598-.5 1.295-.5 1.992 0 .996.3 1.992.9 2.788L5.7 17.03c-.2-.1-.5-.2-.7-.2-1.1 0-1.9.897-1.9 1.893S4 20.614 5 20.614c1.1 0 1.9-.896 1.9-1.892 0-.299-.1-.598-.2-.797l2.6-2.688c.7.697 1.7 1.095 2.7 1.095.9 0 1.9-.299 2.6-.797l2.2 2.49c-.6.697-.9 1.494-.9 2.39 0 1.992 1.6 3.585 3.6 3.585s3.6-1.593 3.6-3.585-1.6-3.685-3.6-3.685"/></svg>