<svg width="24px" height="24px" viewBox="0 0 24 24" version="1.1" xmlns="http://www.w3.org/2000/svg" xmlns:xlink="http://www.w3.org/1999/xlink" id="Vlt-icon-add-group"><path d="M15.623337,20.7628796 C15.9943158,20.8176296 16.2048203,20.9724401 16.1916047,21.3830654 C16.1765013,21.8418331 15.7526604,21.9749323 15.3892333,21.9749323 C15.3184359,21.9749323 15.2051599,21.9815401 15.0796124,21.9900358 L12.3383341,21.9900358 L6.73778171,21.9900358 C6.20349676,21.9900358 5.69375493,21.7634839 5.30389682,21.3519146 C4.85834471,20.8818193 4.61291345,20.2134911 4.64784021,19.5630983 C4.65916781,19.3554257 4.6761592,19.1383135 4.69692646,18.9164814 L2.17559233,18.9164814 C1.01640165,18.9164814 0.0224050832,17.8696227 0.00446972247,16.6301949 C-0.0191294363,15.0320598 -0.0578320568,12.3578032 3.00533876,11.1684055 C3.30740799,11.0513537 3.60192549,10.9163665 3.87189987,10.7813793 C3.43484345,10.229159 3.082744,9.64295592 2.886399,9.2087314 C2.76179544,9.1020632 2.61170479,8.94158892 2.4880452,8.70842923 C2.02266978,7.82582069 1.91316969,7.02250533 2.16426474,6.32019436 C2.24450188,6.09647434 2.35683387,5.90201727 2.48615726,5.73776712 C2.50031676,5.31392623 2.55223491,4.72205933 2.70421349,4.13208036 C2.9874034,3.05407078 4.27969333,1.0141595 7.14368724,1.0141595 C8.92872762,1.0141595 10.0907502,1.83541022 10.7902293,2.72745842 C11.2423891,2.5877514 11.7370275,2.4895789 12.311903,2.4895789 C12.8018216,2.4895789 13.2294383,2.56509621 13.6296801,2.66987648 L13.7599474,2.72179463 C14.4962412,1.70231097 15.649768,1.09722853 17.1459547,1 C19.7031596,1.16047428 21.2135057,2.61795833 21.4778163,5.1043657 L21.4948077,5.26767188 C21.570325,6.0020777 21.626019,6.53353076 22.4482137,7.90228197 C22.5605457,8.08824334 22.6766536,8.26098918 22.7870976,8.42429536 C23.2581368,9.11999856 23.8443399,9.98750364 23.0976626,10.9465735 C22.4878603,11.7319535 21.3324455,11.7385612 20.4054705,11.7423371 C20.3780955,11.7423371 20.3516644,11.7423371 20.3261774,11.7432811 C20.7141475,11.9207467 21.3333895,12.1255874 21.5892043,12.2105444 C21.9092089,12.3172126 22.0838427,12.6645922 21.9781185,12.9864847 C21.8922175,13.2432436 21.6524501,13.4065498 21.3947473,13.4065498 C21.3315015,13.4065498 21.2663678,13.3961661 21.2012342,13.3753989 C19.2170169,12.7174543 18.7525854,12.4380403 18.7525854,11.2042763 L18.7525854,10.7407888 L19.1981376,10.6142973 C19.5285258,10.5208446 19.9315994,10.5189567 20.3979188,10.5161248 C21.0256564,10.5123489 21.8846658,10.5076291 22.1291531,10.1932883 C22.2943472,9.98183984 22.2811317,9.86478801 21.7704459,9.1105589 C21.6486742,8.93120529 21.5193508,8.74052409 21.3966352,8.53473942 C20.4328456,6.93188456 20.3592162,6.21918996 20.2742592,5.3932194 L20.2572678,5.23463306 C20.0580909,3.35802795 19.0112322,2.34515205 17.1459547,2.22338039 C16.1972685,2.290402 15.4458713,2.63778162 14.92197,3.22870456 C15.9990356,3.92063189 16.575799,4.94294745 16.7513768,5.6122196 C16.8995795,6.18426321 16.9524416,6.76008268 16.968489,7.18014771 C17.0751572,7.31135903 17.1695539,7.46428158 17.2450712,7.63891536 C17.5452525,8.34028236 17.4517998,9.18890811 16.9666011,10.1602495 C16.8523812,10.3905773 16.7070104,10.5567154 16.577687,10.6747111 C16.3634066,11.2080521 15.9291821,12.0453503 15.285397,12.7844759 C15.53838,12.9553339 15.8970872,13.1686702 16.3539669,13.3574635 C16.5314326,13.4310929 16.6834112,13.5217137 16.8419975,13.6066706 C17.0449503,13.7709208 17.2158082,14.0239038 17.0402305,14.3760032 C16.7542087,14.9489908 15.902751,14.4911671 15.902751,14.4911671 L15.903695,14.5015507 C15.8961433,14.4987188 15.8914234,14.493999 15.8838717,14.4911671 C15.1825047,14.2004255 14.668043,13.8634295 14.3584221,13.6331017 C13.7797707,14.0437271 13.098227,14.3221971 12.311903,14.3221971 C11.5302989,14.3221971 10.852531,14.046559 10.2757676,13.6406534 C9.98502596,13.8794769 9.46867637,14.2466798 8.73615848,14.550637 C6.67547993,15.4049265 6.00337589,17.1994066 5.8740525,19.628232 C5.84384558,20.1776204 6.23559161,20.7628796 6.73778171,20.7628796 L12.3383341,20.7628796 L15.623337,20.7628796 Z M12.311903,3.71673516 C9.63859031,3.71673516 9.05993894,5.91900866 9.05993894,5.91900866 C8.83149908,6.80633703 8.8815293,7.75030338 8.8815293,7.75030338 C8.8815293,7.75030338 7.96588194,8.13260976 8.74276625,9.60519727 C8.85793014,9.82325349 9.02501218,9.79399054 9.09864156,9.97523208 C9.27516327,10.6058016 10.48816,13.0950409 12.311903,13.0950409 C14.13659,13.0950409 15.3486428,10.6058016 15.5251645,9.97523208 C15.5591473,9.83930092 15.7498285,9.85157249 15.8687682,9.612749 C16.6579241,8.03160536 15.7422767,7.75030338 15.7422767,7.75030338 C15.7422767,7.75030338 15.792307,6.80633703 15.5638671,5.91900866 C15.5638671,5.91900866 14.9852157,3.71673516 12.311903,3.71673516 Z M4.88477576,17.6893251 C5.24159504,16.0345521 6.10438029,14.3127575 8.26606324,13.4169334 C8.76258954,13.2111487 9.12035279,12.9770451 9.35351248,12.8014673 C8.69839983,12.05479 8.25756754,11.2033323 8.04234321,10.6662154 C7.91868362,10.5586033 7.77520073,10.4019049 7.65720494,10.1772409 C7.19088556,9.29368837 7.08232943,8.48942904 7.33342448,7.78806204 C7.41366162,7.56528598 7.52599362,7.37177288 7.65437304,7.2084667 C7.6694765,6.78556977 7.72139465,6.1955908 7.87337323,5.6065558 C8.04517511,4.95238712 8.59645146,3.94800692 9.63764635,3.25607958 C9.14772781,2.72840239 8.3680116,2.24131575 7.14368724,2.24131575 C4.47037453,2.24131575 3.89172316,4.44453322 3.89172316,4.44453322 C3.66233934,5.33186159 3.71331352,6.27771588 3.71331352,6.27771588 C3.71331352,6.27771588 2.79672219,6.66379811 3.5736065,8.13638562 C3.6887704,8.35444185 3.85679641,8.33273062 3.92948182,8.51491613 C4.04747761,8.93214926 4.96973274,10.4585428 5.88443613,11.0334184 C5.88443613,11.0334184 4.74790064,11.8084147 3.44900294,12.3124928 C1.27693637,13.1554547 1.20519492,14.8111717 1.23162598,16.6122595 C1.23917771,17.1418246 1.65924274,17.6893251 2.17559233,17.6893251 L4.88477576,17.6893251 Z"/><path d="M23.3392236,17.8031674 L20.2439579,17.8031674 L20.2439579,14.7088457 C20.2439579,14.3435308 19.9475524,14.0471253 19.5831814,14.0471253 C19.2178665,14.0471253 18.921461,14.3435308 18.921461,14.7088457 L18.921461,17.8031674 L15.8261954,17.8031674 C15.4608804,17.8031674 15.1654189,18.0986289 15.1654189,18.4639439 C15.1654189,18.8292589 15.4608804,19.1247203 15.8261954,19.1247203 L18.921461,19.1247203 L18.921461,22.22093 C18.921461,22.585301 19.2178665,22.8817064 19.5831814,22.8817064 C19.9475524,22.8817064 20.2439579,22.585301 20.2439579,22.22093 L20.2439579,19.1247203 L23.3392236,19.1247203 C23.7045385,19.1247203 24,18.8292589 24,18.4639439 C24,18.0986289 23.7045385,17.8031674 23.3392236,17.8031674"/></svg>