<svg xmlns="http://www.w3.org/2000/svg" width="24" height="24" viewBox="0 0 24 24" id="Vlt-icon-queue"><path fill="#000" fill-rule="nonzero" d="M19.543 15.641c-.044.003-.082.02-.121.032-.659-.758-1.6-1.551-2.795-1.968a11.885 11.885 0 0 1-1.104-.432h.055c.82-.004 1.839-.01 2.378-.741.647-.876.138-1.668-.272-2.305-.096-.15-.198-.309-.296-.479-.72-1.26-.767-1.75-.834-2.428l-.015-.152c-.153-1.516-.798-2.606-1.865-3.219.24-.467.877-1.32 2.37-1.32 2.013 0 2.476 1.552 2.492 1.611.188.718.15 1.508.15 1.516l-.025.472.455.108s.075.032.093.084c.01.025.083.262-.298.815-.169.107-.343.218-.406.448-.086.301-.446 1.12-1.012 1.724l-.241.258.125.332c.02.052.486 1.251 1.912 1.802 1.233.476 2.356 1.073 2.585 3.115-.639.211-2.142.67-3.331.727m-3.759 3.64c-.727-2.175-2.437-2.986-3.766-3.413a5.478 5.478 0 0 1-1.514-.749 7.253 7.253 0 0 0 1.322-2.148c.136-.085.253-.16.332-.303.5-.897.625-1.629.372-2.177a1.24 1.24 0 0 0-.39-.478 7.31 7.31 0 0 0-.206-1.662c-.153-.574-.65-1.469-1.614-2.058.382-1.09 1.207-1.688 2.41-1.775 1.617.11 2.525 1.041 2.7 2.766l.015.148c.073.756.137 1.41.978 2.882.107.188.22.363.326.529.45.697.46.814.314 1.012-.207.281-.949.286-1.49.288-.41.003-.765.005-1.058.092a.565.565 0 0 0-.4.542c0 1.13.407 1.386 2.149 1.995 1.401.49 2.407 1.642 2.882 2.392-.656.768-1.578 1.7-3.362 2.117m-7.73 2.089c-3.322 0-5.895-.392-6.923-.577.285-2.547 1.821-3.376 3.295-3.848a6.43 6.43 0 0 0 2.05-1.077c.461.297.986.494 1.577.494.592 0 1.117-.197 1.578-.494.34.275 1.027.749 2.05 1.077 1.475.472 3.01 1.302 3.295 3.848-.97.173-3.58.577-6.923.577m-3.18-9.355l-.01-.007c-.373-.707-.3-.981-.28-1.03.018-.045.052-.06.047-.06l.483-.092-.027-.495c0-.01-.045-.882.163-1.682.022-.075.54-1.825 2.804-1.825 2.265 0 2.784 1.75 2.802 1.818.21.801.167 1.68.166 1.689l.018.55.48.089c.014.03.115.297-.276 1.039l-.01.006c-.17.108-.346.219-.414.453-.165.585-1.278 2.763-2.766 2.763-1.486 0-2.6-2.178-2.766-2.764-.067-.233-.243-.344-.414-.452m15.813-1.271a2.358 2.358 0 0 1-1.114-.874c.46-.584.786-1.247.943-1.685a.83.83 0 0 0 .273-.237c.51-.755.665-1.406.461-1.937a1.228 1.228 0 0 0-.446-.57 6.554 6.554 0 0 0-.189-1.492c-.225-.847-1.26-2.449-3.57-2.449-1.972 0-3.009 1.165-3.412 2.034a5.32 5.32 0 0 0-.902-.143c-1.703.117-2.903.993-3.443 2.478a4.539 4.539 0 0 0-1.234-.175c-2.51 0-3.635 1.738-3.88 2.66a7.32 7.32 0 0 0-.206 1.659 1.24 1.24 0 0 0-.39.478c-.253.548-.128 1.28.37 2.175.08.146.198.22.334.306.175.46.624 1.38 1.323 2.147a5.497 5.497 0 0 1-1.515.75c-1.613.516-3.793 1.599-4.086 5.005-.03.338.154.882.642.976.783.152 3.631.65 7.408.65 3.706 0 6.546-.486 7.326-.633.474-.09.76-.563.729-.952a8.265 8.265 0 0 0-.065-.538c2.316-.545 3.458-1.89 4.142-2.707l.066-.079a.571.571 0 0 0 .07-.625c-.038-.075-.091-.164-.142-.25 1.16-.143 2.395-.513 3.09-.744.477-.16.762-.66.728-1.025-.27-3.03-2.249-3.793-3.31-4.203"/></svg>