<svg xmlns="http://www.w3.org/2000/svg" width="24" height="24" viewBox="0 0 24 24" id="Vlt-icon-mockup"><path fill="#000" fill-rule="nonzero" d="M3.716 3.193c-.532 0-.964.41-.964.917v15.78c0 .507.432.917.964.917h16.568c.532 0 .964-.41.964-.917V4.11c0-.507-.432-.917-.964-.917H3.716zm0-1.193h16.568c1.224 0 2.216.945 2.216 2.11v15.78c0 1.165-.992 2.11-2.216 2.11H3.716C2.492 22 1.5 21.055 1.5 19.89V4.11C1.5 2.945 2.492 2 3.716 2zm-.964 4.495v1.193h18.496V6.495H2.752zm2.023-.825c.479 0 .867-.37.867-.826 0-.456-.388-.826-.867-.826s-.867.37-.867.826c0 .456.388.826.867.826zm2.312 0c.479 0 .867-.37.867-.826 0-.456-.388-.826-.867-.826s-.867.37-.867.826c0 .456.388.826.867.826zm2.312 0c.479 0 .867-.37.867-.826 0-.456-.388-.826-.867-.826s-.867.37-.867.826c0 .456.388.826.867.826zM5.064 9.798v7.798h5.78V9.798h-5.78zm1.253 6.606V10.99h3.275v5.413H6.317zm6.839-6.606v1.193h5.78V9.798h-5.78zm0 3.303v1.193h5.78V13.1h-5.78zm0 3.303v1.192h5.78v-1.192h-5.78z"/></svg>