<svg xmlns="http://www.w3.org/2000/svg" width="24" height="24" viewBox="0 0 24 24" id="Vlt-icon-telephone"><path fill="#000" fill-rule="evenodd" d="M3.153 20.942A2.755 2.755 0 0 1 1 18.254V5.246c0-1.313.923-2.414 2.153-2.687A2.065 2.065 0 0 1 5.15 1h3.587c.936 0 1.72.634 1.97 1.494h9.545A2.753 2.753 0 0 1 23 5.247v13.007a2.752 2.752 0 0 1-2.747 2.752h-9.545a2.059 2.059 0 0 1-1.97 1.494H5.15a2.065 2.065 0 0 1-1.998-1.558zm-.063-1.229V3.787c-.554.25-.94.81-.94 1.459v13.008c0 .65.386 1.208.94 1.46zm1.35 1.293a.908.908 0 0 0 .71.342h3.588a.896.896 0 0 0 .694-.342.91.91 0 0 0 .217-.57V3.064a.901.901 0 0 0-.217-.57.896.896 0 0 0-.694-.342H5.15a.909.909 0 0 0-.71.342h.016a.897.897 0 0 0-.217.57v17.371c0 .22.088.414.217.571H4.44zm17.41-2.752V5.247a1.6 1.6 0 0 0-1.597-1.601h-9.455v16.208h9.455c.882 0 1.597-.716 1.597-1.6zm-8.606-6.274a.89.89 0 0 1-.894-.886.89.89 0 0 1 .894-.886.89.89 0 0 1 .894.886.89.89 0 0 1-.894.886zm2.712 0a.89.89 0 0 1-.894-.886.89.89 0 0 1 .894-.886.89.89 0 0 1 .894.886.89.89 0 0 1-.894.886zm2.712 0a.89.89 0 0 1-.894-.886.89.89 0 0 1 .894-.886.89.89 0 0 1 .894.886.89.89 0 0 1-.894.886zm-5.424 2.658a.89.89 0 0 1-.894-.886.89.89 0 0 1 .894-.886.89.89 0 0 1 .894.886.89.89 0 0 1-.894.886zm2.712 0a.89.89 0 0 1-.894-.886.89.89 0 0 1 .894-.886.89.89 0 0 1 .894.886.89.89 0 0 1-.894.886zm2.712 0a.89.89 0 0 1-.894-.886.89.89 0 0 1 .894-.886.89.89 0 0 1 .894.886.89.89 0 0 1-.894.886zm-5.424 2.658a.89.89 0 0 1-.894-.886.89.89 0 0 1 .894-.886.89.89 0 0 1 .894.886.89.89 0 0 1-.894.886zm2.712 0a.89.89 0 0 1-.894-.886.89.89 0 0 1 .894-.886.89.89 0 0 1 .894.886.89.89 0 0 1-.894.886zm2.712 0a.89.89 0 0 1-.894-.886.89.89 0 0 1 .894-.886.89.89 0 0 1 .894.886.89.89 0 0 1-.894.886zm-6.556-8.411V5.31h7.957v3.574h-7.957zm1.15-1.152h5.657v-1.27h-5.657v1.27z"/></svg>