<svg xmlns="http://www.w3.org/2000/svg" width="24" height="24" viewBox="0 0 24 24" id="Vlt-icon-phone"><path fill="#000" fill-rule="nonzero" d="M2.804 4.519c-.306.665-.342 1.497-.108 2.495.234.999.634 2.037 1.201 3.116a24.588 24.588 0 0 0 1.983 3.157c.756 1.025 1.494 1.897 2.213 2.617.72.72 1.592 1.456 2.618 2.212a24.595 24.595 0 0 0 3.157 1.983c1.08.566 2.118.966 3.117 1.2.998.234 1.83.198 2.496-.108.791-.377 1.313-.903 1.565-1.578l.378-1.012a.93.93 0 0 0-.04-.607c-.082-.188-.257-.364-.527-.526-.252-.18-.954-.634-2.105-1.362-1.151-.728-2.05-1.003-2.698-.823-.648.198-1.066.463-1.255.796-.19.333-.571.436-1.147.31-.558-.126-1.205-.49-1.943-1.092-.737-.603-1.277-1.075-1.619-1.417-.324-.323-.792-.854-1.403-1.591-.612-.738-.972-1.385-1.08-1.943-.125-.575-.022-.958.31-1.146.334-.19.59-.607.77-1.255.198-.647-.072-1.547-.81-2.698a2406.64 2406.64 0 0 0-1.349-2.104c-.162-.27-.337-.445-.526-.526a.93.93 0 0 0-.607-.04l-1.012.377c-.675.252-1.201.774-1.579 1.565zm5.817 5.768a2.349 2.349 0 0 1-.065.038.574.574 0 0 0 .084-.058l-.019.02zm1.062 1.175c.588.71 1.033 1.214 1.322 1.503.305.305.816.752 1.523 1.33.575.47 1.044.738 1.367.822.402-.495 1.01-.836 1.812-1.08 1.086-.302 2.306.07 3.737.975 1.123.71 1.82 1.161 2.124 1.374.461.286.809.642 1.004 1.099.195.454.228.946.107 1.43l-.043.14-.378 1.01c-.376 1.008-1.14 1.78-2.237 2.302-.954.439-2.073.487-3.331.192-1.11-.26-2.251-.699-3.424-1.314a25.889 25.889 0 0 1-3.323-2.087c-1.075-.792-1.996-1.571-2.765-2.34-.768-.767-1.547-1.689-2.34-2.763a25.881 25.881 0 0 1-2.087-3.323C2.136 9.56 1.696 8.419 1.436 7.31c-.294-1.258-.246-2.378.192-3.331.524-1.097 1.295-1.861 2.302-2.237l1.012-.378.139-.043a2.222 2.222 0 0 1 1.43.106c.473.203.836.566 1.106 1.016l1.35 2.106c.923 1.44 1.293 2.675.967 3.743-.22.788-.553 1.404-1.055 1.813.061.31.321.775.804 1.357z"/></svg>