<svg xmlns="http://www.w3.org/2000/svg" width="24" height="24" viewBox="0 0 24 24" id="Vlt-icon-wallet"><path fill="#000" fill-rule="nonzero" d="M19.425 6.07h.3c.783 0 1.417.662 1.417 1.48v3.538c.504.226.858.75.858 1.36v2.691c0 .61-.354 1.134-.858 1.36v4.021c0 .817-.634 1.48-1.417 1.48H3.416C2.634 22 2 21.337 2 20.52V6.875c0-.7.468-1.303 1.047-1.425l1.59-.607c.12-.42.416-.76.796-.93V3.48c0-.817.635-1.48 1.417-1.48h11.159c.782 0 1.416.663 1.416 1.48v2.59zm-1.116 0V3.48a.307.307 0 0 0-.3-.314H6.849c-.165 0-.3.14-.3.314v.314h10.172c.782 0 1.416.662 1.416 1.48v.796h.172zm-12.618 0h11.33v-.796a.307.307 0 0 0-.3-.314H5.991c-.166 0-.3.14-.3.314v.796zm14.335 10.549h-4.593c-.782 0-1.416-.663-1.416-1.48v-2.69c0-.818.634-1.48 1.416-1.48h4.593v-3.42a.307.307 0 0 0-.3-.313H3.115V20.52c0 .174.134.314.3.314h16.31c.165 0 .3-.14.3-.314V16.62zm.558-1.166c.166 0 .3-.14.3-.314v-2.69a.307.307 0 0 0-.3-.314h-5.15c-.166 0-.301.14-.301.313v2.691c0 .173.135.314.3.314h5.15zm-3.434-.18c-.782 0-1.416-.662-1.416-1.48 0-.817.634-1.48 1.416-1.48.782 0 1.417.663 1.417 1.48 0 .818-.635 1.48-1.417 1.48zm0-1.165c.166 0 .3-.14.3-.314a.307.307 0 0 0-.3-.314c-.166 0-.3.14-.3.314 0 .173.134.314.3.314z"/></svg>