<svg xmlns="http://www.w3.org/2000/svg" width="24" height="24" viewBox="0 0 24 24" id="Vlt-icon-enter"><path fill="#000" fill-rule="nonzero" d="M19.128 18.884h2.512V4.86h-2.512v14.024zm-5.794-6.362H1.199c-.386 0-.699-.332-.699-.741 0-.41.313-.742.7-.742h12.134L8.07 5.813a.738.738 0 0 1 0-1.05.75.75 0 0 1 1.056 0l6.444 6.398a.722.722 0 0 1 .172.171l.452.449-.452.448a.722.722 0 0 1-.172.171l-6.628 6.58a.75.75 0 0 1-1.056 0 .738.738 0 0 1 0-1.048l5.448-5.41zm5.48-9.022h3.14C22.53 3.5 23 3.969 23 4.547v14.65c0 .579-.469 1.047-1.047 1.047h-3.139a1.047 1.047 0 0 1-1.047-1.046V4.547c0-.578.469-1.047 1.047-1.047z"/></svg>