<svg xmlns="http://www.w3.org/2000/svg" width="24" height="24" viewBox="0 0 24 24" id="Vlt-icon-world"><path fill="#000" fill-rule="evenodd" d="M15.252 21.666c.77-.96 1.41-2.26 1.871-3.796h3.213a10.24 10.24 0 0 1-5.084 3.796zM3.664 17.87h3.213c.462 1.537 1.101 2.836 1.871 3.796a10.24 10.24 0 0 1-5.084-3.796zM2.692 7.833h3.765A21.78 21.78 0 0 0 6.062 12c0 1.636.17 3.18.474 4.577H2.89A10.132 10.132 0 0 1 1.793 12c0-1.485.326-2.893.899-4.167zm6.056-5.5C7.91 3.38 7.222 4.823 6.753 6.54H3.391a10.246 10.246 0 0 1 5.357-4.205zM20.61 6.54h-3.362c-.469-1.717-1.157-3.159-1.995-4.205a10.246 10.246 0 0 1 5.357 4.205zm-3.066 1.294h3.765c.573 1.274.9 2.682.9 4.167 0 1.647-.403 3.198-1.098 4.577h-3.646A21.59 21.59 0 0 0 17.938 12a21.78 21.78 0 0 0-.395-4.167zm-4.893 8.744V7.833h3.57c.269 1.281.424 2.691.424 4.167 0 1.635-.19 3.19-.516 4.577H12.65zm0 5.512V17.87h3.116c-.728 2.226-1.848 3.807-3.116 4.219zm-1.293-4.219v4.222c-1.271-.408-2.393-1.991-3.123-4.222h3.123zm0-15.962V6.54H8.106c.723-2.444 1.903-4.198 3.25-4.63zm1.293.003c1.346.437 2.523 2.189 3.244 4.628H12.65V1.911zM7.356 12c0-1.476.155-2.886.424-4.167h3.577v8.744H7.872A20.13 20.13 0 0 1 7.356 12zM12 .5C5.66.5.5 5.66.5 12S5.66 23.5 12 23.5 23.5 18.34 23.5 12 18.34.5 12 .5z"/></svg>