<svg xmlns="http://www.w3.org/2000/svg" width="24" height="24" viewBox="0 0 24 24" id="Vlt-icon-call-forward"><path fill="#000" fill-rule="evenodd" d="M23.985 20.536c.137 1.366-.712 2.183-2.07 2.404-.962.157-2.18-.007-2.78-.335-1.77-.967-2.889-3.033-3.558-6.51h1.295c.602 2.981 1.538 4.661 2.878 5.393.341.188 1.282.305 1.96.194.796-.13 1.063-.426 1.005-1.021-.113-1.126-.21-1.736-.42-2.538-.209-.801-.46-1.389-.744-1.762-.06-.082-.104-.099-.53-.124l-.058-.003-.055-.003c-1.075-.055-1.59-.24-1.859-1.164-.56-1.929-.665-4.58-.17-6.147.242-.77.441-.838 1.793-1.132l.031-.007.032-.007c.316-.068.524-.121.646-.161.692-3.527.7-4.37.39-4.649-.994-.89-2.53-.955-3.415.024-.788.874-1.369 2.194-1.715 3.821h-1.303c.384-1.977 1.088-3.586 2.07-4.674C18.948.427 21.34.866 22.624 2.016c.852.769.767 1.994-.015 5.969-.123.634-.505.796-1.604 1.034l-.063.015c-.598.13-.834.229-.847.268-.424 1.349-.297 3.77.18 5.411.053.18.145.217.698.246l.119.006c.712.041 1.134.174 1.48.629.409.543.72 1.294.957 2.207.247.943.35 1.659.455 2.735zM13.205 7.79l3.856 3.858-3.908 3.91-.919-.92 2.415-2.415H7.083v-1.3h7.415L12.285 8.71l.92-.919zM8.53 17.8c.247.944.348 1.66.455 2.735.137 1.367-.714 2.183-2.07 2.405-.963.156-2.181-.007-2.78-.335C1.925 21.398.719 18.517.154 13.258-.38 8.291.503 4.248 2.408 2.136 3.95.427 6.342.865 7.625 2.015c.853.77.768 1.996-.014 5.97-.125.635-.506.796-1.604 1.035l-.063.014c-.598.13-.835.228-.846.268-.426 1.35-.298 3.77.178 5.41.054.181.144.218.699.247l.118.005c.714.041 1.135.175 1.48.63.409.543.719 1.293.958 2.207zm-1.822 3.881c.796-.13 1.065-.425 1.006-1.02-.111-1.126-.21-1.737-.42-2.539-.21-.8-.461-1.387-.743-1.76-.061-.082-.105-.1-.53-.124-.038-.003-.038-.003-.06-.003l-.054-.003c-1.074-.056-1.59-.24-1.858-1.164-.561-1.93-.665-4.582-.171-6.149.243-.77.44-.837 1.793-1.132l.032-.005.03-.008c.318-.069.525-.122.648-.162.69-3.527.699-4.37.389-4.647-.993-.891-2.53-.955-3.414.022C1.707 4.82.934 8.556 1.424 13.122c.527 4.91 1.592 7.42 3.326 8.367.343.188 1.282.305 1.959.194z"/></svg>