<svg xmlns="http://www.w3.org/2000/svg" width="24" height="24" viewBox="0 0 24 24" id="Vlt-icon-headset"><path fill="#000" fill-rule="nonzero" d="M22.235 13.263c0 1.043-.81 1.883-1.8 1.883h-.159c-.184 0-.34-.162-.34-.368v-4.146c0-.206.156-.368.34-.368h.158c.99 0 1.8.84 1.8 1.883v1.116zM12.16 22.217c-.453 0-.827-.388-.827-.874s.374-.873.827-.873c.454 0 .827.387.827.873s-.373.874-.827.874zm-8.097-7.44c0 .207-.156.369-.34.369h-.158c-.992 0-1.8-.84-1.8-1.883v-1.116c0-1.043.808-1.883 1.8-1.883h.158c.184 0 .34.162.34.368v4.146zm16.994-5.73C20.968 4.127 17.112.5 12.161.5c-4.94 0-8.787 3.61-8.895 8.512C1.713 9.17.5 10.507.5 12.147v1.116c0 1.745 1.37 3.166 3.066 3.166h.158c.89 0 1.606-.742 1.606-1.651v-4.146c0-.61-.327-1.14-.808-1.426.007-4.273 3.316-7.423 7.64-7.423 4.274 0 7.55 3.081 7.632 7.281a1.642 1.642 0 0 0-1.124 1.568v4.146c0 .532.25 1.002.631 1.305-.147 3.675-1.445 5.514-5.054 5.187-.04-1.154-.951-2.084-2.086-2.084-1.16 0-2.093.97-2.093 2.157 0 1.188.934 2.157 2.093 2.157.734 0 1.376-.39 1.75-.977 4.548.5 6.393-1.879 6.64-6.106 1.64-.065 2.949-1.45 2.949-3.154v-1.116c0-1.525-1.046-2.802-2.442-3.1z"/></svg>