<svg xmlns="http://www.w3.org/2000/svg" width="24" height="24" viewBox="0 0 24 24" id="Vlt-icon-design-tools"><path fill="#000" fill-rule="nonzero" d="M9.5 0H3v22.8h6.6c.9 0 1.7-.6 1.7-1.6V1.6c0-.9-.8-1.6-1.8-1.6zm.5 21.2c0 .1-.2.3-.4.3H4.3v-.7h2.1v-1.3H4.3v-.7h3.5v-1.3H4.3v-.7h2.1v-1.3H4.3v-.7h3.5v-1.3H4.3v-.7h2.1v-1.3H4.3v-.7h3.5V9.5H4.3v-.7h2.1V7.5H4.3v-.7h3.5V5.5H4.3v-.7h2.1V3.5H4.3V1.3h5.3c.2 0 .4.2.4.4v19.5zM20.1.5c.7 0 1.2.5 1.1 1.1v15.1c0 .6-.4 1-.9 1.1l-2.4 5.4-2.5-5.6c-.3-.2-.5-.5-.5-.9V1.6c0-.6.6-1.1 1.2-1.1h4zm-.1 16V1.8h-1.2v14.7H20zM16.3 1.8v14.7h1.2V1.8h-1.2zm.7 16l.9 2.2 1-2.2H17z"/></svg>