<svg xmlns="http://www.w3.org/2000/svg" width="24" height="24" viewBox="0 0 24 24" id="Vlt-icon-profile"><path fill="#000" fill-rule="nonzero" d="M19.656 18.562c-.561-2.702-2.47-3.64-3.942-4.114a5.235 5.235 0 0 1-1.29-.613 7.338 7.338 0 0 0 1.185-1.956.911.911 0 0 0 .334-.325c.517-.933.636-1.672.36-2.258a1.327 1.327 0 0 0-.361-.466 7.182 7.182 0 0 0-.19-1.519c-.104-.995-1.04-2.76-3.933-2.76-2.88 0-3.823 1.765-3.932 2.758-.14.566-.18 1.14-.19 1.521-.14.116-.27.27-.361.466-.275.586-.157 1.325.363 2.262.076.136.177.218.325.316a6.833 6.833 0 0 0 1.19 1.962c-.29.193-.724.431-1.29.612-2.12.682-3.435 1.958-3.9 3.717a10.033 10.033 0 0 1-2.12-6.166C1.905 6.433 6.435 1.904 12 1.904c5.568 0 10.096 4.53 10.096 10.095 0 2.507-.923 4.797-2.439 6.563zM9.104 9.202c-.002-.009-.04-.846.155-1.596l.022-.124c.004-.063.142-1.528 2.538-1.528 2.32 0 2.525 1.377 2.54 1.522l.021.13c.197.755.157 1.588.156 1.597l-.107.576.604.114c0 .002.077.218-.245.843-.177.112-.367.243-.443.513-.147.524-1.196 2.573-2.526 2.573-1.329 0-2.377-2.05-2.524-2.57-.07-.25-.237-.38-.444-.516-.295-.572-.26-.799-.305-.81l.59-.11-.032-.614zM5.24 19.477c.065-1.825 1.078-3.038 3.113-3.692a6.496 6.496 0 0 0 1.959-1.01c.451.27.951.45 1.506.45.565 0 1.066-.177 1.512-.445.368.28 1.026.707 1.953 1.005 1.534.492 2.968 1.326 3.116 4.016a10.049 10.049 0 0 1-13.159-.324zM12 .5C5.66.5.5 5.66.5 12S5.66 23.5 12 23.5 23.5 18.34 23.5 12 18.34.5 12 .5z"/></svg>