<svg xmlns="http://www.w3.org/2000/svg" width="24" height="24" viewBox="0 0 24 24" id="Vlt-icon-user"><path fill="#000" fill-rule="evenodd" d="M14.221 14.07c-.681.453-1.435.738-2.216.738-.786 0-1.542-.284-2.223-.74-.691.513-1.532.996-2.517 1.39-2.267.903-3.253 2.63-3.451 6.183-.001.014.004.035.01.056h16.352a.157.157 0 0 0 .01-.05c-.197-3.559-1.184-5.286-3.45-6.19a11.146 11.146 0 0 1-2.515-1.387zm1.034-.867c.555.383 1.214.743 1.97 1.046 2.799 1.115 4.05 3.305 4.273 7.329.02.378-.13.787-.397 1.08-.197.207-.393.342-.719.342H3.618c-.326 0-.522-.135-.727-.351a1.537 1.537 0 0 1-.39-1.074c.224-4.022 1.476-6.211 4.274-7.326.76-.304 1.42-.666 1.977-1.05a8.093 8.093 0 0 1-1.66-2.564C6.07 9.877 5.627 8.34 6.018 7.355c.13-.33.328-.585.572-.768.005-.618.092-1.507.297-2.258.16-.524.486-1.15 1.085-1.765C8.927 1.582 10.278 1 12.005 1c1.727 0 3.078.581 4.032 1.562.6.615.936 1.258 1.094 1.793.214.784.297 1.744.293 2.332.138.11.264.243.374.4.688.979.237 2.847-.921 3.667a7.9 7.9 0 0 1-1.622 2.45zM7.241 7.831c-.15.382.093 1.647.928 1.913.252.838 1.825 3.76 3.836 3.76 2.008 0 3.586-2.923 3.807-3.67.897-.21 1.135-1.679.908-2.003-.151-.215-.376-.274-.674-.177l.048-.695c.002-.012.062-1.191-.231-2.263-.026-.088-.743-2.393-3.858-2.393-3.113 0-3.83 2.305-3.86 2.404-.289 1.061-.23 2.24-.228 2.252l.033.593c-.372-.068-.608.025-.709.28z"/></svg>