<svg xmlns="http://www.w3.org/2000/svg" width="24" height="24" viewBox="0 0 24 24" id="Vlt-icon-help-negative"><path fill="#000" fill-rule="nonzero" d="M12 23C5.925 23 1 18.075 1 12S5.925 1 12 1s11 4.925 11 11-4.925 11-11 11zM9 7.145l.506.803a.425.425 0 0 0 .405.234.497.497 0 0 0 .264-.098c.099-.065.22-.137.362-.218.143-.08.316-.153.521-.218a2.51 2.51 0 0 1 .751-.098c.203 0 .39.029.565.086.173.057.322.14.447.246.125.106.222.233.292.381.07.148.105.316.105.503 0 .29-.061.541-.183.752-.122.21-.274.4-.455.569a5.115 5.115 0 0 1-.584.467c-.207.143-.395.29-.564.444a1.954 1.954 0 0 0-.405.507 1.033 1.033 0 0 0-.105.642l.132 1.27h1.316l.179-1.137a.8.8 0 0 1 .237-.448c.132-.133.29-.268.47-.405l.58-.44c.206-.156.394-.34.565-.554.171-.213.314-.463.428-.752.114-.288.171-.63.171-1.024a2.68 2.68 0 0 0-.218-1.099 2.38 2.38 0 0 0-.615-.837 2.772 2.772 0 0 0-.953-.534A3.855 3.855 0 0 0 11.981 6c-.332 0-.641.03-.927.09a4.16 4.16 0 0 0-1.475.612c-.21.14-.403.287-.579.443zm1.47 9.186c0 .167.03.321.09.464.06.143.142.266.245.37.104.104.229.186.374.245.145.06.3.09.467.09a1.187 1.187 0 0 0 .836-.335 1.158 1.158 0 0 0 .347-.834c0-.16-.031-.314-.094-.46a1.147 1.147 0 0 0-.253-.373 1.239 1.239 0 0 0-.373-.25 1.144 1.144 0 0 0-.463-.093 1.178 1.178 0 0 0-.84.343 1.2 1.2 0 0 0-.335.834z"/></svg>