<svg xmlns="http://www.w3.org/2000/svg" width="24" height="24" viewBox="0 0 24 24" id="Vlt-icon-inbox-3"><path fill="#000" fill-rule="evenodd" d="M22.042 10.866l-4.257-7.653a.84.84 0 0 0-.733-.431H6.948a.84.84 0 0 0-.733.43l-4.257 7.654h5.047l.776 1.938a.84.84 0 0 0 .78.527h6.879a.839.839 0 0 0 .779-.527l.776-1.938h5.047zm.175 1.282h-4.353l-.454 1.132a2.122 2.122 0 0 1-1.97 1.333H8.56a2.122 2.122 0 0 1-1.97-1.333l-.454-1.132H1.783v8.232c0 .463.376.838.84.838h18.755c.463 0 .839-.375.839-.838v-8.232zM17.052 1.5c.77 0 1.48.417 1.855 1.09l4.388 7.89c.134.241.205.513.205.79v9.11c0 1.171-.95 2.12-2.122 2.12H2.622A2.121 2.121 0 0 1 .5 20.38v-9.11c0-.277.07-.549.205-.79l4.388-7.89A2.123 2.123 0 0 1 6.948 1.5h10.104zM5.732 9.535H4.448c0-.898.73-1.627 1.63-1.627h11.845c.9 0 1.629.729 1.629 1.627h-1.284a.345.345 0 0 0-.345-.345H6.077a.345.345 0 0 0-.345.345zm1.48-2.958H5.93c0-.898.73-1.626 1.629-1.626h8.884c.9 0 1.629.728 1.629 1.626h-1.283a.345.345 0 0 0-.346-.345H7.558a.345.345 0 0 0-.346.345z"/></svg>