<svg xmlns="http://www.w3.org/2000/svg" width="24" height="24" viewBox="0 0 24 24" id="Vlt-icon-packet"><path fill="#000" fill-rule="evenodd" d="M22.49 5.946a.612.612 0 0 0-.057-.258.559.559 0 0 0-.39-.313L12.236.56a.575.575 0 0 0-.506 0l-9.903 4.86a.587.587 0 0 0-.327.507V18.15a.58.58 0 0 0 .327.527l9.903 4.86c.005 0 .005 0 .01.005.014.005.029.01.043.02.005 0 .01.005.02.005l.043.014c.005 0 .01.005.014.005.015.005.034.005.049.01h.014c.02 0 .043.005.062.005.02 0 .044 0 .063-.005h.015a.173.173 0 0 0 .048-.01c.004 0 .01-.005.014-.005l.044-.014c.004 0 .01-.005.019-.005a.169.169 0 0 0 .043-.02c.005 0 .005 0 .01-.004l9.932-4.876a.59.59 0 0 0 .327-.526V5.96c-.01-.005-.01-.01-.01-.015zM11.98 1.733l8.59 4.218-3.164 1.555L8.818 3.29l3.163-1.556zm0 8.435L3.393 5.951l4.102-2.014 8.588 4.218-4.101 2.013zM2.656 6.892l8.748 4.295v10.887l-8.748-4.295V6.892zm9.904 15.182V11.187l4.106-2.019v2.848c0 .322.26.585.578.585a.583.583 0 0 0 .577-.585V8.598l3.515-1.726V17.76l-8.776 4.315z"/></svg>