<svg xmlns="http://www.w3.org/2000/svg" width="24" height="24" viewBox="0 0 24 24" id="Vlt-icon-wifi"><path fill="#000" fill-rule="nonzero" d="M12.033 18.634a1.243 1.243 0 1 1 0 2.486 1.243 1.243 0 0 1 0-2.486zm0-4.84a6.06 6.06 0 0 1 4.16 1.645.747.747 0 0 1-1.02 1.089 4.573 4.573 0 0 0-3.14-1.241c-1.227 0-2.38.476-3.246 1.344a.744.744 0 0 1-1.055 0 .747.747 0 0 1 0-1.056 6.04 6.04 0 0 1 4.301-1.781zm0-5.636c3 0 5.853 1.132 8.035 3.188a.747.747 0 0 1-1.024 1.086 10.181 10.181 0 0 0-7.01-2.781 10.183 10.183 0 0 0-7.065 2.831.748.748 0 0 1-1.032-1.079 11.666 11.666 0 0 1 8.096-3.245zM23.765 7.4a.746.746 0 1 1-1.022 1.086 15.575 15.575 0 0 0-10.71-4.244c-4.03 0-7.855 1.529-10.772 4.303A.744.744 0 0 1 .206 8.52a.746.746 0 0 1 .026-1.055A17.049 17.049 0 0 1 12.033 2.75c4.377 0 8.544 1.651 11.732 4.65z"/></svg>