<svg xmlns="http://www.w3.org/2000/svg" width="24" height="24" viewBox="0 0 24 24" id="Vlt-icon-file-doc"><g fill="#000" fill-rule="evenodd"><path d="M19.57 22.7H4.43c-.623 0-1.13-.507-1.13-1.131V2.43c0-.623.507-1.13 1.13-1.13h10.254v5.557c0 .359.291.65.65.65H20.7v14.062c0 .624-.507 1.131-1.13 1.131zM15.984 1.848l4.231 4.359h-4.231V1.848zM16.001 0H4.43A2.43 2.43 0 0 0 2 2.43v19.139A2.43 2.43 0 0 0 4.43 24h15.14A2.43 2.43 0 0 0 22 21.569V6.179L16.001 0z"/><path d="M9.584 12.498c0 .354-.055.68-.164.98-.11.298-.264.557-.463.775a2.086 2.086 0 0 1-.719.51c-.28.122-.59.183-.932.183H5.6v-4.892h1.706c.341 0 .652.061.932.184.28.124.52.294.719.51.199.218.353.476.463.775.109.299.164.624.164.975zm-1.043 0c0-.241-.028-.46-.084-.654a1.453 1.453 0 0 0-.243-.496 1.066 1.066 0 0 0-.387-.312 1.198 1.198 0 0 0-.521-.11h-.681v3.147h.68c.195 0 .37-.036.522-.109.153-.073.282-.177.387-.312.106-.136.186-.3.243-.496.056-.194.084-.414.084-.658zm5.955 0c0 .354-.055.683-.165.988-.11.304-.263.569-.462.794a2.12 2.12 0 0 1-.719.529c-.28.127-.591.191-.933.191-.341 0-.652-.064-.934-.191a2.13 2.13 0 0 1-.721-.53c-.2-.224-.355-.489-.464-.793a2.896 2.896 0 0 1-.165-.988c0-.353.055-.682.165-.987.109-.304.264-.569.464-.792.2-.224.44-.4.721-.528.282-.127.593-.191.934-.191a2.15 2.15 0 0 1 1.651.722c.2.224.354.488.463.792.11.305.165.633.165.984zm-1.043 0c0-.241-.028-.46-.084-.653a1.435 1.435 0 0 0-.243-.492 1.057 1.057 0 0 0-.387-.309 1.213 1.213 0 0 0-.522-.107c-.196 0-.372.036-.525.107a1.054 1.054 0 0 0-.39.31 1.435 1.435 0 0 0-.242.491 2.34 2.34 0 0 0-.084.653c0 .244.028.463.084.657.057.193.137.357.243.492.105.134.235.236.389.307.153.07.329.106.525.106.195 0 .37-.035.522-.106.153-.07.282-.173.387-.307.106-.135.186-.299.243-.492.056-.194.084-.413.084-.657zm4.602 1.182a.186.186 0 0 1 .141.067l.404.474a1.718 1.718 0 0 1-.664.583 2.118 2.118 0 0 1-.945.196 1.954 1.954 0 0 1-1.568-.714 2.373 2.373 0 0 1-.424-.792 3.23 3.23 0 0 1-.148-.996c0-.365.053-.7.16-1.005.106-.306.256-.57.449-.791.193-.222.424-.394.693-.517.27-.123.566-.185.889-.185a2.137 2.137 0 0 1 .874.183 1.896 1.896 0 0 1 .633.468l-.344.514a.464.464 0 0 1-.078.086.189.189 0 0 1-.127.038.207.207 0 0 1-.102-.026 1.109 1.109 0 0 1-.103-.066 17.931 17.931 0 0 0-.119-.084.879.879 0 0 0-.153-.084 1.171 1.171 0 0 0-.487-.092c-.169 0-.323.035-.463.104-.14.07-.26.17-.361.304-.102.133-.18.296-.235.49a2.421 2.421 0 0 0-.083.663c0 .251.03.474.092.669.061.194.144.358.25.491.105.134.228.235.37.304.14.07.29.104.451.104.093 0 .177-.005.253-.015a1.05 1.05 0 0 0 .214-.05.831.831 0 0 0 .187-.094 1.2 1.2 0 0 0 .178-.15.354.354 0 0 1 .078-.055.188.188 0 0 1 .088-.022z"/></g></svg>