<svg xmlns="http://www.w3.org/2000/svg" width="24" height="24" viewBox="0 0 24 24" id="Vlt-icon-broadcast"><path fill="#000" fill-rule="nonzero" d="M12 13.232c.66 0 1.205-.547 1.205-1.232 0-.685-.544-1.232-1.205-1.232-.66 0-1.205.547-1.205 1.232 0 .685.544 1.232 1.205 1.232zm0 1.298A2.527 2.527 0 0 1 9.475 12 2.527 2.527 0 0 1 12 9.47 2.527 2.527 0 0 1 14.525 12 2.527 2.527 0 0 1 12 14.53zM8.402 7.397a.667.667 0 0 1 .933-.01c.26.25.265.661.01.917a5.248 5.248 0 0 0 0 7.392.642.642 0 0 1-.01.917.667.667 0 0 1-.933-.01 6.532 6.532 0 0 1 0-9.206zm7.196 9.206a.667.667 0 0 1-.933.01.642.642 0 0 1-.01-.917 5.248 5.248 0 0 0 0-7.392.642.642 0 0 1 .01-.917.667.667 0 0 1 .933.01 6.532 6.532 0 0 1 0 9.206zM6.479 5.463a.667.667 0 0 1 .933-.01c.26.25.265.661.01.917-3.09 3.11-3.09 8.15 0 11.26a.642.642 0 0 1-.01.917.667.667 0 0 1-.933-.01c-3.592-3.613-3.592-9.461 0-13.074zm11.042 13.074a.667.667 0 0 1-.933.01.642.642 0 0 1-.01-.917c3.09-3.11 3.09-8.15 0-11.26a.642.642 0 0 1 .01-.917.667.667 0 0 1 .933.01c3.592 3.613 3.592 9.461 0 13.074zm2.057 1.768a.667.667 0 0 1-.933.01.642.642 0 0 1-.01-.918c4.061-4.085 4.061-10.71 0-14.794a.642.642 0 0 1 .01-.918.667.667 0 0 1 .933.01c4.563 4.59 4.563 12.02 0 16.61zM4.422 3.695a.667.667 0 0 1 .933-.01c.26.25.265.662.01.918-4.061 4.085-4.061 10.71 0 14.794a.642.642 0 0 1-.01.918.667.667 0 0 1-.933-.01c-4.563-4.59-4.563-12.02 0-16.61z"/></svg>