<svg xmlns="http://www.w3.org/2000/svg" width="24" height="24" viewBox="0 0 24 24" id="Vlt-icon-home-user"><path fill-rule="evenodd" d="M23.498 10.813c.748.732.23 2.003-.817 2.003h-1.704v8.149c0 .93-.755 1.685-1.686 1.685H4.794c-.93 0-1.685-.754-1.685-1.685v-8.15h-1.59c-1.08 0-1.582-1.34-.766-2.048l10.503-9.13c.459-.4 1.148-.38 1.582.046l2.697 2.637v-.953c0-.645.522-1.168 1.167-1.168h2.59c.644 0 1.167.523 1.167 1.168V7.84l3.039 2.972zm-4.34-2.425v-4.89h-2.323V7.41l-4.818-4.711-10.144 8.818h2.536v9.449c0 .212.172.385.385.385h14.497a.385.385 0 0 0 .386-.385v-9.45h2.68l-3.198-3.127zm-9.107 5.314c-.546-.678-.833-1.445-.833-2.29 0-1.715 1.181-3.202 2.862-3.21 1.574.083 2.702 1.532 2.702 3.21 0 .844-.287 1.61-.833 2.29l-.18.223c.259.063.413.105.592.164 1.684.558 3.131 1.588 2.92 2.906-.242 1.501-1.693 1.805-4.88 1.805H11.6c-3.187 0-4.637-.304-4.88-1.803-.214-1.32 1.234-2.35 2.92-2.908.182-.06.34-.103.591-.164l-.179-.223zm-.003 1.621c-1.065.353-2.107 1.084-2.045 1.465.072.446 1.148.712 3.596.712h.803c2.448 0 3.524-.266 3.596-.712.06-.381-.981-1.112-2.046-1.465a7.183 7.183 0 0 0-.648-.172c-.545-.139-.833-.32-.923-.781-.1-.513.053-.859.556-1.483.359-.447.545-.928.545-1.475 0-1.047-.657-1.869-1.47-1.912-.805.005-1.494.84-1.494 1.912 0 .547.186 1.028.546 1.475.502.624.656.97.556 1.483-.09.461-.378.642-.923.781a7.13 7.13 0 0 0-.65.172z"/></svg>