<svg xmlns="http://www.w3.org/2000/svg" width="24" height="24" viewBox="0 0 24 24" id="Vlt-icon-mobile-devices"><path fill="#000" fill-rule="evenodd" d="M19.882 3.461c1.169 0 2.118.953 2.118 2.122v15.794c0 1.17-.95 2.123-2.118 2.123H12a2.123 2.123 0 0 1-2.118-2.123v-.838H4.12A2.123 2.123 0 0 1 2 18.416V2.622C2 1.452 2.95.5 4.12.5H12c1.169 0 2.119.953 2.119 2.122v.84h5.763zm0 18.755a.839.839 0 0 0 .838-.84v-2.811h-9.557v2.812c0 .463.375.839.837.839h7.882zM4.12 19.255h5.763v-3.652h-6.6v2.813c0 .462.375.839.837.839zm5.763-4.936V5.583c0-.117.016-.231.035-.344H3.28v9.08h6.601zM4.12 1.784a.839.839 0 0 0-.838.838v1.333h7.378A2.1 2.1 0 0 1 12 3.46h.838v-.839A.839.839 0 0 0 12 1.784H4.12zm7.044 15.496h9.556V8.2h-9.556v9.08zM20.72 5.583a.839.839 0 0 0-.838-.838H12a.839.839 0 0 0-.837.838v1.333h9.557V5.583zM15.94 19.255a1.136 1.136 0 0 1 0 2.27 1.136 1.136 0 0 1 0-2.27zM8.06 16.293a1.136 1.136 0 0 1 0 2.272 1.136 1.136 0 0 1 0-2.272z"/></svg>