<svg xmlns="http://www.w3.org/2000/svg" width="24" height="24" viewBox="0 0 24 24" id="Vlt-icon-pie-chart"><path fill="#000" fill-rule="nonzero" d="M15.389 21.077l-2.636-9.087 2.749-9.026c3.621 1.409 6.199 4.923 6.199 9.036 0 4.155-2.631 7.698-6.312 9.077M2.335 12.69h9.268l2.542 8.763A9.654 9.654 0 0 1 12 21.7c-5.115 0-9.308-3.984-9.665-9.01M12 2.3c.781 0 1.535.102 2.262.277l-2.686 8.813H2.331C2.649 6.326 6.858 2.3 12 2.3M12 1C5.925 1 1 5.925 1 12s4.925 11 11 11c6.076 0 11-4.925 11-11S18.076 1 12 1"/></svg>