<svg xmlns="http://www.w3.org/2000/svg" width="24" height="24" viewBox="0 0 24 24" id="Vlt-icon-star"><path fill="#000" fill-rule="nonzero" d="M18.246 21.23L17.16 16.1c-.114-.906.262-2.083.877-2.747l3.696-3.757-5.15-.776c-.867-.161-1.844-.884-2.28-1.685L12 2.764l-2.397 4.37c-.436.802-1.413 1.525-2.28 1.687l-5.056.736 3.6 3.796c.608.657.983 1.829.878 2.743l-1.096 5.138 4.899-2.335c.396-.19.891-.29 1.404-.29.513 0 1.009.1 1.406.29l4.888 2.33zM4.95 14.221l-3.6-3.796c-.706-.743-.28-1.972.735-2.12L7.09 7.58c.489-.092 1.145-.577 1.403-1.051l2.397-4.371a1.266 1.266 0 0 1 2.23.018l2.295 4.356c.256.47.912.956 1.358 1.04l5.15.776c1.02.154 1.437 1.4.713 2.135l-3.67 3.73c-.351.379-.604 1.151-.555 1.687l1.073 5.069c.217 1.025-.836 1.853-1.783 1.402l-4.888-2.33c-.216-.104-.526-.167-.861-.167-.335 0-.643.063-.86.166l-4.898 2.335c-.947.451-2.001-.379-1.783-1.404l1.081-5.07c.044-.548-.209-1.317-.543-1.678z"/></svg>