<svg xmlns="http://www.w3.org/2000/svg" width="24" height="24" viewBox="0 0 24 24" id="Vlt-icon-checkbox"><path fill="#000" fill-rule="nonzero" d="M18.453 20.72a2.251 2.251 0 0 0 2.266-2.267V5.645c0-1.352-.993-2.364-2.266-2.364H5.645a2.356 2.356 0 0 0-2.364 2.364v12.808c0 1.234 1.072 2.266 2.364 2.266h12.808zm0 1.28H5.645C3.675 22 2 20.424 2 18.453V5.645A3.637 3.637 0 0 1 5.645 2h12.808C20.423 2 22 3.576 22 5.645v12.808A3.532 3.532 0 0 1 18.453 22zm-.445-15.5l-7.245 8.7-4.068-2.7L6 13.6l5.061 3.4L19 7.3l-.992-.8z"/></svg>