<svg xmlns="http://www.w3.org/2000/svg" width="24" height="24" viewBox="0 0 24 24" id="Vlt-icon-report"><path fill="#000" fill-rule="nonzero" d="M17.635 2.227h-.926a.613.613 0 0 1 0-1.227h2.966v2.974a.613.613 0 1 1-1.224 0V3.15c-3.125 3.36-6.324 5.752-9.441 7.332a21.26 21.26 0 0 1-3.201 1.329 9.9 9.9 0 0 1-1.243.322.614.614 0 1 1-.199-1.211c.18-.03.546-.116 1.075-.282a20.046 20.046 0 0 0 3.015-1.253c3.017-1.53 6.127-3.861 9.178-7.16zM2.725 21.773h19.163a.613.613 0 0 1 0 1.227H2.583A1.084 1.084 0 0 1 1.5 21.914V2.558a.613.613 0 1 1 1.224 0v19.215zm2.212-1.134a1.084 1.084 0 0 1-1.083-1.085v-1.889c0-.6.485-1.086 1.083-1.086h.942c.598 0 1.083.487 1.083 1.086v1.889c0 .6-.485 1.085-1.083 1.085h-.942zm.8-1.227v-1.605h-.659v1.605h.66zm3.438 1.227a1.084 1.084 0 0 1-1.083-1.085V14.36c0-.6.485-1.086 1.083-1.086h.942c.598 0 1.083.486 1.083 1.086v5.193c0 .6-.485 1.085-1.083 1.085h-.942zm.8-1.227v-4.91h-.659v4.91h.66zm3.438 1.227a1.084 1.084 0 0 1-1.083-1.085v-8.498c0-.6.484-1.086 1.083-1.086h.941c.598 0 1.083.486 1.083 1.086v8.498c0 .6-.485 1.085-1.083 1.085h-.941zm.8-1.227v-8.215h-.66v8.215h.66zm3.437 1.227a1.084 1.084 0 0 1-1.083-1.085V7.75c0-.6.485-1.086 1.083-1.086h.942c.598 0 1.083.486 1.083 1.086v11.803c0 .6-.485 1.085-1.083 1.085h-.942zm.8-1.227V7.892h-.659v11.52h.66z"/></svg>