<svg xmlns="http://www.w3.org/2000/svg" width="24" height="24" viewBox="0 0 24 24" id="Vlt-icon-lock"><path fill="#000" fill-rule="evenodd" d="M18.522 8.64c1.088 0 1.978.89 1.978 1.979v10.065c0 1.088-.89 1.978-1.978 1.978H5.477A1.984 1.984 0 0 1 3.5 20.684V10.619c0-1.088.89-1.978 1.977-1.978h1.449V6.074A5.08 5.08 0 0 1 12 1a5.08 5.08 0 0 1 5.074 5.074V8.64h1.448zm.722 12.044V10.619a.731.731 0 0 0-.722-.722H5.477a.73.73 0 0 0-.72.722v10.065c0 .391.329.722.72.722h13.045c.391 0 .722-.33.722-.722zM8.28 6.074V8.64h7.441V6.074c0-2.052-1.67-3.72-3.721-3.72a3.724 3.724 0 0 0-3.72 3.72zm3.717 5.323a2.936 2.936 0 0 1 1.661 5.358l.002.535.006.565.008.602.015 1.052h-3.354v-2.802c-.782-.571-1.275-1.393-1.275-2.374a2.937 2.937 0 0 1 2.937-2.936zm.95 4.322a1.68 1.68 0 0 0-.95-3.065c-.927 0-1.68.754-1.68 1.68 0 .533.256.99.759 1.358l.516.377V18.253h.822l-.004-.385-.006-.568-.002-.545v-.662l.545-.374z"/></svg>