<svg xmlns="http://www.w3.org/2000/svg" width="24" height="24" viewBox="0 0 24 24" id="Vlt-icon-key"><path fill="#000" fill-rule="nonzero" d="M5.407 18.087h1.81v-1.025h1.04v-1.63h2.116l2.038-2.005.776.29c.67.252 1.375.378 2.103.378 3.262 0 5.91-2.606 5.91-5.797S18.552 2.5 15.29 2.5 9.38 5.107 9.38 8.298c0 .71.128 1.396.38 2.05l.308.796-.608.599-6.66 6.556V20.9h2.02l.587-.578v-2.235zm2.585 1.3H6.707v1.266a.513.513 0 0 1-.154.366l-1.048 1.03a.53.53 0 0 1-.37.151h-3.11a.521.521 0 0 1-.525-.517v-3.714c0-.137.055-.269.154-.366l6.894-6.787a6.957 6.957 0 0 1-.467-2.518c0-3.914 3.234-7.098 7.21-7.098 3.975 0 7.209 3.184 7.209 7.098 0 3.913-3.234 7.097-7.21 7.097a7.261 7.261 0 0 1-2.559-.46l-1.671 1.646a.53.53 0 0 1-.372.151h-1.13v1.113a.521.521 0 0 1-.526.517h-.515v.507a.521.521 0 0 1-.525.518zM16.6 4.35A2.652 2.652 0 0 0 13.95 7a2.652 2.652 0 0 0 2.65 2.65A2.652 2.652 0 0 0 19.25 7a2.652 2.652 0 0 0-2.65-2.65zm0 1.3c.744 0 1.35.606 1.35 1.35 0 .744-.606 1.35-1.35 1.35-.744 0-1.35-.606-1.35-1.35 0-.744.606-1.35 1.35-1.35z"/></svg>