<svg xmlns="http://www.w3.org/2000/svg" width="24" height="24" viewBox="0 0 24 24" id="Vlt-icon-shout"><path fill="#000" fill-rule="nonzero" d="M10.35 6.228c.97.612 1.397 1.286 1.267 2.002-.194 1.075-1.667 1.706-2.723 2.026.213.196.545.371 1.053.397l.265.014.182.193c.065.07.641.711.53 1.486-.045.315-.22.763-.802 1.107-1.52.9-1.703 1.264-1.724 1.329.005.434 1.158.7 1.747.731l.34.02.18.286c.055.087.523.871.17 1.713-.22.526-.69.914-1.4 1.157v.43c0 1.452-.691 3.183-3.984 3.183H2.462c-.47 0-.647 0-.647.69a.657.657 0 0 1-1.315 0c0-1.33.66-2.005 1.962-2.005h2.99c2.67 0 2.67-1.262 2.67-1.868v-1.457l.517-.113c.531-.116.89-.306.983-.521a.441.441 0 0 0 .022-.245c-1.104-.153-2.556-.706-2.556-2.043 0-.734.664-1.411 2.365-2.418.098-.056.165-.121.17-.162.009-.052-.021-.14-.068-.227-1.509-.214-2.164-1.347-2.302-1.952l-.148-.651.653-.137c1.233-.262 2.505-.854 2.567-1.196.007-.044-.084-.284-.677-.66C6.272 5.201 6.408.816 6.415.63A.656.656 0 0 1 7.071 0l.026.001a.657.657 0 0 1 .631.68c0 .039-.106 3.82 2.622 5.547zm4.202 3.487c.89 1.2 1.325 2.74 1.226 4.338-.094 1.527-.67 2.955-1.622 4.021a.652.652 0 0 1-.928.054.657.657 0 0 1-.052-.928c.757-.848 1.215-1.994 1.291-3.228.08-1.289-.265-2.524-.97-3.474a.658.658 0 0 1 1.055-.783zm2.775-2.972a11.82 11.82 0 0 1 2.145 7.537 11.715 11.715 0 0 1-2.563 6.65.654.654 0 0 1-.923.102.657.657 0 0 1-.102-.922 10.423 10.423 0 0 0 2.278-5.91 10.357 10.357 0 0 0-1.907-6.697.656.656 0 1 1 1.072-.76zm3.067-2.384c1.555 2.203 3.313 5.328 3.086 9.99-.176 3.614-1.353 6.485-3.815 9.31a.66.66 0 0 1-.928.062.66.66 0 0 1-.063-.928c2.256-2.585 3.334-5.209 3.494-8.508.206-4.236-1.324-7.012-2.847-9.168a.656.656 0 1 1 1.073-.758z"/></svg>