<svg xmlns="http://www.w3.org/2000/svg" width="24" height="24" viewBox="0 0 24 24" id="Vlt-icon-minimize"><path fill="#000" fill-rule="nonzero" d="M16.203 8.746h2.51a.671.671 0 0 1 0 1.343h-4.802V5.286a.671.671 0 0 1 1.343 0v2.511l.296-.296 1.26-1.261 1.262-1.261 1.26-1.26 2.522-2.522a.671.671 0 0 1 .95.95l-2.522 2.52-1.261 1.261-1.26 1.261-1.262 1.261-.296.296zm-8.406 6.508h-2.51a.671.671 0 0 1 0-1.343h4.802v4.803a.671.671 0 0 1-1.343 0v-2.511l-.296.296-1.26 1.261-1.262 1.261-1.26 1.26-2.522 2.522a.671.671 0 0 1-.95-.95l2.522-2.52 1.261-1.261 1.26-1.261 1.262-1.261.296-.296zm.95-7.457v-2.51a.671.671 0 1 1 1.342 0v4.802H5.286a.671.671 0 0 1 0-1.343h2.511l-6.6-6.6a.671.671 0 0 1 .95-.95l6.6 6.601zm7.456 7.457l6.6 6.6a.671.671 0 1 1-.95.95l-6.6-6.601v2.51a.671.671 0 0 1-1.342 0v-4.802h4.803a.671.671 0 0 1 0 1.343h-2.511z"/></svg>