<svg xmlns="http://www.w3.org/2000/svg" width="24" height="24" viewBox="0 0 24 24" id="Vlt-icon-bottom-tabs"><path fill="#000" fill-rule="nonzero" d="M21.323 1.4H2.578C1.691 1.4 1 2.09 1 2.978v17.758c0 .888.69 1.677 1.578 1.677h18.745c.888 0 1.677-.69 1.677-1.677V2.978c0-.888-.79-1.578-1.677-1.578zM2.578 2.584h18.745c.197 0 .296.197.296.394V14.62H2.184V2.978c0-.197.197-.394.394-.394zM14.713 16v5.13H9.188V16h5.525zm-12.53 4.735v-4.735h5.624v5.13H2.578c-.197-.099-.394-.197-.394-.395zm19.14.296h-5.229v-5.13h5.623v4.834c-.098.198-.197.296-.394.296z"/></svg>