<svg xmlns="http://www.w3.org/2000/svg" width="24" height="24" viewBox="0 0 24 24" id="Vlt-icon-user-add"><path fill="#000" fill-rule="nonzero" d="M13.558 13.737c-.784.626-1.69 1.04-2.633 1.04-.87 0-1.704-.348-2.44-.89a11.299 11.299 0 0 1-2.638 1.466c-2.306.916-3.31 2.666-3.51 6.27-.001.013.003.035.01.056 7.698-.032 11.614-.032 11.75 0 .202.048.531.163.531.647s-.344.674-.532.674H2.138c-.332 0-.531-.137-.74-.356A1.555 1.555 0 0 1 1 21.556c.228-4.078 1.501-6.298 4.347-7.429a10.1 10.1 0 0 0 2.138-1.153 8.084 8.084 0 0 1-1.48-2.36C4.985 9.856 4.543 8.322 4.934 7.34c.13-.328.329-.583.573-.766.005-.617.092-1.503.297-2.253.16-.523.487-1.146 1.086-1.76C7.845 1.58 9.197 1 10.925 1c1.729 0 3.081.58 4.037 1.558.6.614.936 1.256 1.094 1.79.215.781.298 1.74.293 2.326.139.11.265.242.376.399.688.977.237 2.84-.923 3.659a7.837 7.837 0 0 1-1.29 2.08l1.542 1.094c.3.213.368.626.153.922a.673.673 0 0 1-.932.152l-1.596-1.133a.667.667 0 0 1-.12-.11zm9.29 4.74c.403 0 .704.298.704.696a.683.683 0 0 1-.704.696H19.63v3.18a.683.683 0 0 1-.704.696.683.683 0 0 1-.704-.695v-3.181h-3.218a.683.683 0 0 1-.704-.696c0-.398.302-.696.704-.696h3.218v-3.181c0-.398.302-.696.704-.696.403 0 .704.298.704.696v3.18h3.218zM6.158 7.816c-.152.38.092 1.642.927 1.908.253.836 1.827 3.752 3.84 3.752 2.01 0 3.59-2.917 3.811-3.663.898-.21 1.137-1.674.91-1.997-.152-.216-.377-.274-.675-.177l.048-.694c.001-.011.061-1.188-.232-2.257C14.76 4.6 14.044 2.3 10.925 2.3c-3.116 0-3.833 2.3-3.863 2.398-.29 1.06-.23 2.236-.229 2.247l.033.592c-.372-.068-.608.025-.709.279z"/></svg>