<svg xmlns="http://www.w3.org/2000/svg" width="24" height="24" viewBox="0 0 24 24" id="Vlt-icon-chat"><path fill="#000" fill-rule="evenodd" d="M18 15.658l2 1.606V14h1c1.113 0 1.706-.963 1.706-2.07V3.806a1.99 1.99 0 0 0-1.983-2.003H9.277a1.993 1.993 0 0 0-1.983 1.994V5.5h7.429A3.288 3.288 0 0 1 18 8.791v6.867zm-.004 1.706a3.294 3.294 0 0 1-3.285 3.126H8.549l-2.583 2.602a1.294 1.294 0 0 1-2.21-.918V20.49H3.28a3.29 3.29 0 0 1-3.28-3.291V8.791A3.288 3.288 0 0 1 3.276 5.5H6V3.796C6 1.978 7.764.566 9.57.566L20.723.5C22.53.5 24 1.982 24 3.805v8.126c0 1.806-.912 3.344-2.706 3.37v1.963A1.3 1.3 0 0 1 20 18.566c-.327 0-.65-.125-.894-.36l-1.11-.842zM14.723 6.8H3.277a1.991 1.991 0 0 0-1.983 1.991v8.408c0 1.1.89 1.991 1.987 1.991H5.05v2.984l2.962-2.984h6.7a1.996 1.996 0 0 0 1.995-1.991V8.791c0-1.1-.888-1.991-1.983-1.991zM3 10.5h12v1.3H3v-1.3zm0 3h7v1.3H3v-1.3z"/></svg>