<svg xmlns="http://www.w3.org/2000/svg" width="24" height="24" viewBox="0 0 24 24" id="Vlt-icon-volume-off"><path fill="#000" fill-rule="evenodd" d="M13.582 5.151V19.24c0 .93-1.053 1.468-1.82.948l-5.524-3.74a3.526 3.526 0 0 0-1.975-.602H2.676c-.922 0-1.676-.735-1.676-1.65v-4c0-.915.754-1.65 1.676-1.65h1.587c.706 0 1.396-.211 1.975-.603l5.524-3.74c.767-.52 1.82.017 1.82.948zM6.967 9.02a4.826 4.826 0 0 1-2.704.827H2.676c-.211 0-.376.16-.376.35v4c0 .19.165.35.376.35h1.587c.966 0 1.91.288 2.704.826l5.315 3.598V5.42l-5.315 3.6zm11.575 2.998l1.71 1.711a.65.65 0 0 1-.918.92l-1.712-1.71-1.711 1.71a.65.65 0 1 1-.92-.92l1.71-1.71-1.71-1.712a.65.65 0 0 1 .92-.92l1.71 1.711 1.713-1.71a.65.65 0 1 1 .919.92l-1.711 1.71z"/></svg>