<svg xmlns="http://www.w3.org/2000/svg" width="24" height="24" viewBox="0 0 24 24" id="Vlt-icon-volume-decrease"><path fill="#000" fill-rule="nonzero" d="M15.69 8.06a.65.65 0 1 1 .92-.92 7.15 7.15 0 0 1 0 10.112.65.65 0 0 1-.92-.92 5.85 5.85 0 0 0 0-8.273zM13.3 5.151V19.24a1.15 1.15 0 0 1-1.806.945l-5.386-3.74a3.35 3.35 0 0 0-1.91-.599H2.65A1.65 1.65 0 0 1 1 14.196v-4c0-.911.739-1.65 1.65-1.65h1.547a3.35 3.35 0 0 0 1.911-.598l5.386-3.74a1.15 1.15 0 0 1 1.806.944zM6.85 9.015a4.65 4.65 0 0 1-2.653.831H2.65a.35.35 0 0 0-.35.35v4c0 .193.157.35.35.35h1.547c.948 0 1.874.29 2.653.83L12 18.954V5.44L6.85 9.015z"/></svg>