<svg xmlns="http://www.w3.org/2000/svg" width="24" height="24" viewBox="0 0 24 24" id="Vlt-icon-compose"><path fill="#000" fill-rule="evenodd" d="M13.217 2.942a.65.65 0 1 1 0 1.3H4.025a1.35 1.35 0 0 0-1.35 1.35v13.952c0 .745.604 1.35 1.35 1.35h13.704a1.35 1.35 0 0 0 1.35-1.35v-8.785a.65.65 0 1 1 1.3 0v8.785a2.65 2.65 0 0 1-2.65 2.65H4.025a2.65 2.65 0 0 1-2.65-2.65V5.592a2.65 2.65 0 0 1 2.65-2.65h9.192zm9.187-1.196l.92.919-.92.919L11.31 14.677c-.16.16-.36.362-1.365.502a8.96 8.96 0 0 1-.438.05L8 15.373l.087-1.511c.01-.156.023-.315.042-.471.117-.976.387-1.246.52-1.38l5.716-5.715 3.94-3.94L19.74.92l.92-.92.92.92.824.826zm-3.568 3.567l2.648-2.648-.824-.826-1.437 1.437-1.212 1.212.825.825zm-8.445 8.445l7.526-7.526-.825-.825-1.807 1.807-5.719 5.718c-.035.035-.106.279-.147.613-.015.13-.026.262-.034.39.13-.012.258-.026.38-.043.347-.05.616-.124.626-.134z"/></svg>