<svg xmlns="http://www.w3.org/2000/svg" width="24" height="24" viewBox="0 0 24 24" id="Vlt-icon-telephone-2"><path fill="#000" fill-rule="nonzero" d="M20.616 2.517h-10.01C10.318 1.664 9.547 1 8.585 1H4.831c-.962 0-1.829.664-2.117 1.612C1.462 2.897.5 4.034.5 5.362v13.276c0 1.328.962 2.465 2.214 2.75C2.906 22.336 3.772 23 4.83 23h3.754c.962 0 1.829-.664 2.021-1.517h10.01c1.54 0 2.888-1.233 2.888-2.845V5.362c-.097-1.612-1.348-2.845-2.888-2.845zM2.617 20.155a1.687 1.687 0 0 1-.962-1.517V5.362c0-.664.385-1.233.962-1.517v16.31zm6.834-16.5v17.259c0 .095 0 .19-.096.284 0 .095-.096.19-.193.285-.192.19-.385.38-.77.38H4.64c-.289 0-.578-.096-.77-.38-.097-.095-.097-.19-.193-.285 0-.095-.096-.19-.096-.284V3.086c0-.095 0-.19.096-.284 0-.095.096-.19.193-.285.192-.19.385-.38.77-.38h3.753c.29 0 .578.096.77.38.097.095.097.19.193.285 0 .095.096.19.096.284v.57zm12.801 14.983c0 .948-.77 1.612-1.636 1.612h-9.913V3.56h9.913a1.61 1.61 0 0 1 1.636 1.612v13.466zM12.05 14.94h8.662V5.457H12.05v9.483zm1.251-8.25h6.16v7.017h-6.16V6.69zm1.155 1.612v.948h3.85v-.948h-3.85zm0 1.896v.949h2.888v-.949h-2.888zm-.962 8.06a.955.955 0 0 0 .962-.948.955.955 0 0 0-.962-.948.955.955 0 0 0-.963.948c0 .524.431.949.963.949zm5.775 0a.955.955 0 0 0 .962-.948.955.955 0 0 0-.962-.948.955.955 0 0 0-.963.948c0 .524.431.949.963.949zm-2.888 0a.955.955 0 0 0 .963-.948.955.955 0 0 0-.963-.948.955.955 0 0 0-.962.948c0 .524.43.949.962.949z"/></svg>