<svg xmlns="http://www.w3.org/2000/svg" width="24" height="24" viewBox="0 0 24 24" id="Vlt-icon-clipboard-add"><path fill="#000" fill-rule="evenodd" d="M17.873 16.615h2.282v1h-2.282v2.344h-1v-2.344h-2.282v-1h2.282V14.27h1v2.344zm-5.951-1.37h-4.75v-1h5.186c.28-.508.633-.97 1.043-1.37H7.173v-1h7.616a5.635 5.635 0 0 1 2.548-.624V5.77h-.96l.264.945H6.051l.263-.945h-.96v10.846H8.6v3.317h3.73a5.929 5.929 0 0 1-.707-2.817c0-.654.105-1.283.299-1.87zm-5.879 2.37L7.6 19.206v-1.591H6.043zM16.098 4.769h2.24v6.564c.24.041.475.098.704.169v-6.71c0-.43-.335-.772-.741-.772h-2.413l.21.75zm-9.504 0l.21-.75H4.39c-.406 0-.741.343-.741.773v16.114c0 .43.335.772.741.772h9.371a5.838 5.838 0 0 1-.753-.746h-5.12L4.356 17.32V4.769h2.239zm8.931-2.05h2.776c1.13 0 2.04.932 2.04 2.073v7.3a5.886 5.886 0 0 1 2.783 5.023c0 3.235-2.572 5.863-5.75 5.863H4.39c-1.13 0-2.041-.93-2.041-2.072V4.792c0-1.141.91-2.072 2.041-2.072h2.776l.09-.324h2.198C9.47 1.349 10.308.5 11.345.5c1.04 0 1.878.849 1.892 1.896h2.198l.09.324zm-8.352 7.786v-1h3.246v1H7.173zm5.064-7.11v-.973c0-.512-.402-.922-.891-.922-.49 0-.891.41-.891.922v.974H8.016l-.648 2.318h7.956l-.648-2.318h-2.44zm5.136 18.283c2.455 0 4.45-2.04 4.45-4.563 0-2.524-1.995-4.564-4.45-4.564-2.454 0-4.45 2.04-4.45 4.564 0 2.523 1.996 4.563 4.45 4.563z"/></svg>