<svg xmlns="http://www.w3.org/2000/svg" width="24" height="24" viewBox="0 0 24 24" id="Vlt-icon-alert"><path fill="#000" fill-rule="nonzero" d="M13.287 3.728c-.738-1.23-1.836-1.23-2.574 0L1.801 18.581c-.735 1.225-.23 2.119 1.19 2.119H21.01c1.416 0 1.922-.898 1.19-2.12L13.287 3.729zm1.115-.669l8.911 14.853C24.565 19.998 23.438 22 21.01 22H2.99C.56 22-.568 20.002.687 17.912L9.598 3.059c1.242-2.07 3.56-2.072 4.804 0zm-3.295 5.1v5.233a.75.75 0 1 0 1.5 0V8.159a.75.75 0 1 0-1.5 0zm1.98 8.666a1.25 1.25 0 1 0-2.499 0 1.25 1.25 0 0 0 2.5 0z"/></svg>