<svg xmlns="http://www.w3.org/2000/svg" width="24" height="24" viewBox="0 0 24 24" id="Vlt-icon-info"><path fill="#000" fill-rule="nonzero" d="M12 22c5.523 0 10-4.477 10-10S17.523 2 12 2 2 6.477 2 12s4.477 10 10 10zm0 1.3C5.76 23.3.7 18.24.7 12 .7 5.76 5.76.7 12 .7 18.24.7 23.3 5.76 23.3 12c0 6.24-5.06 11.3-11.3 11.3zm.75-6.3v-6h-1.5v6h1.5zm.35-8.69c0-.316-.109-.58-.326-.792a1.08 1.08 0 0 0-.783-.318c-.305 0-.563.106-.774.318a1.076 1.076 0 0 0-.317.791c0 .303.106.56.317.773.211.212.47.318.774.318.305 0 .566-.103.783-.31.217-.205.326-.466.326-.78z"/></svg>