<svg xmlns="http://www.w3.org/2000/svg" width="24" height="24" viewBox="0 0 24 24" id="Vlt-icon-megaphone"><path fill="#000" fill-rule="nonzero" d="M21.757 19.703c0 .361-.307.667-.699.667a.677.677 0 0 1-.67-.667V3.906c0-.362.307-.667.67-.667h.029c.363 0 .67.305.67.667v15.797zM4.05 12.978V10.63L19.145 5.86v11.848L4.051 12.978zm-1.243.948c0 .153-.13.281-.282.281a.285.285 0 0 1-.283-.28V9.658c0-.153.13-.281.283-.281.153 0 .282.128.282.28v4.268zm9.417 3.499a.32.32 0 0 1-.395.203L6.202 15.84a.312.312 0 0 1-.183-.155.31.31 0 0 1-.021-.237.318.318 0 0 1 .394-.203l5.629 1.786a.313.313 0 0 1 .182.156.313.313 0 0 1 .022.237zM21.087 2h-.029a1.915 1.915 0 0 0-1.913 1.906v.654L4.015 9.341a1.53 1.53 0 0 0-1.49-1.202C1.688 8.139 1 8.823 1 9.659v4.267c0 .837.687 1.52 1.526 1.52.722 0 1.328-.508 1.483-1.182l1.062.333c-.11.14-.2.297-.258.475-.26.814.195 1.69 1.01 1.95l5.63 1.786a1.562 1.562 0 0 0 1.956-1.007c.061-.19.08-.383.067-.571l5.67 1.776v.697c0 1.048.86 1.906 1.912 1.906h.029A1.915 1.915 0 0 0 23 19.703V3.906C23 2.858 22.14 2 21.087 2z"/></svg>