<svg xmlns="http://www.w3.org/2000/svg" width="24" height="24" viewBox="0 0 24 24" id="Vlt-icon-reload"><path fill="#000" fill-rule="nonzero" d="M12.722 1.5c-5.048 0-9.259 3.667-10.104 8.525L1.202 8.656a.709.709 0 0 0-1.004.019.714.714 0 0 0 .019 1.006l3.206 3.1 3.418-3.083a.712.712 0 0 0 .053-1.004.708.708 0 0 0-1.002-.054l-1.891 1.705c.697-4.224 4.346-7.421 8.721-7.421 4.892 0 8.858 3.978 8.858 8.884 0 4.907-3.966 8.885-8.858 8.885a.71.71 0 0 0 0 1.424C18.398 22.117 23 17.5 23 11.808S18.398 1.5 12.722 1.5"/></svg>