<svg xmlns="http://www.w3.org/2000/svg" width="24" height="24" viewBox="0 0 24 24" id="Vlt-icon-phone-garland"><path fill="#000" fill-rule="nonzero" d="M9.705 11.703l-.477-.797.6-.71c.056-.065.114-.183.174-.399.055-.18-.026-.494-.362-1.018l-.67-1.044c-.037-.062-.068-.09-.096-.103-.029-.012-.058-.014-.03-.023l-.038.01-.486.18c-.245.091-.44.281-.59.595-.115.248-.134.572-.033 1.002.106.45.288.924.55 1.422.265.503.574.995.928 1.474.356.482.7.888 1.033 1.22.334.333.74.676 1.223 1.031.48.354.973.662 1.477.927.5.261.974.443 1.426.549.431.1.756.081.988-.025.331-.157.521-.353.613-.597l.157-.415.014-.037a.146.146 0 0 0-.004-.1c-.012-.028-.042-.06-.131-.113l-.122-.082a43.43 43.43 0 0 0-.895-.575c-.529-.334-.847-.416-1.024-.368-.2.061-.326.124-.397.184l-.707.595-.794-.472a4.111 4.111 0 0 1-.489-.348c-.356-.29-.624-.524-.8-.699a12.338 12.338 0 0 1-.692-.783 3.874 3.874 0 0 1-.346-.48zM22.393 6c.152.264-.592 3.374-.592 3.374l1.858 1.816a1.133 1.133 0 0 1 0 1.62l-1.858 1.816.701 2.502a1.134 1.134 0 0 1-.81 1.403l-2.517.644-.644 2.516a1.134 1.134 0 0 1-1.403.811l-2.502-.701-1.816 1.858a1.133 1.133 0 0 1-1.62 0l-1.816-1.858-2.502.701a1.134 1.134 0 0 1-1.403-.81l-.644-2.517-2.516-.644a1.134 1.134 0 0 1-.811-1.403l.701-2.502L.341 12.81a1.133 1.133 0 0 1 0-1.62l1.858-1.816-.701-2.502a1.134 1.134 0 0 1 .81-1.403l2.517-.644.644-2.516a1.133 1.133 0 0 1 1.403-.81l2.502.7L11.19.341a1.133 1.133 0 0 1 1.62 0l1.816 1.858 2.503-.701a1.135 1.135 0 0 1 1.402.81l.644 2.517 2.516.644c.296.075.548.267.702.531zm-4.333-.06l-.2-.779-.586-2.295-3.056.856-.562-.575L12 1.453l-2.218 2.27-.774-.218-2.282-.639L5.94 5.94l-.779.2-2.295.587.856 3.055-.575.562L1.453 12l2.27 2.218-.218.774-.64 2.282 3.075.786.2.779.587 2.295 3.055-.856.562.575L12 22.547l2.218-2.27.774.218 2.281.64.787-3.075.779-.2 2.295-.586-.856-3.056.575-.562L22.547 12l-2.245-2.194.18-.748.092-.398a56.868 56.868 0 0 0 .272-1.252c.056-.271.102-.514.137-.72L18.06 5.94zm-7.01 5.413c.276.331.483.566.612.694.135.135.372.342.703.612.13.105.241.184.331.237.226-.19.512-.328.856-.432.648-.18 1.328.027 2.096.512.572.361.915.583.99.64.296.177.526.407.658.716.128.296.15.617.071.929l-.033.107-.182.485c-.217.58-.655 1.022-1.271 1.315-.542.249-1.163.275-1.843.116a7.354 7.354 0 0 1-1.733-.663 12.812 12.812 0 0 1-1.644-1.03c-.53-.39-.988-.776-1.37-1.159-.384-.382-.77-.838-1.161-1.368a12.78 12.78 0 0 1-1.033-1.64 7.326 7.326 0 0 1-.665-1.731c-.16-.68-.133-1.301.117-1.843.294-.615.736-1.052 1.317-1.269l.486-.181.107-.033c.31-.078.63-.056.927.07.31.132.54.362.7.63l.648 1.01c.498.775.706 1.466.511 2.101-.094.339-.23.629-.424.859.05.084.126.19.23.316z"/></svg>