<svg xmlns="http://www.w3.org/2000/svg" width="24" height="24" viewBox="0 0 24 24" id="Vlt-icon-cart-full"><path fill="#000" fill-rule="evenodd" d="M18.651 17.054H8.426a1.626 1.626 0 0 1-1.552-1.143L2.619 2.2H.5V1h3.003L8.02 15.555a.424.424 0 0 0 .406.299h10.225a.426.426 0 0 0 .412-.322l1.333-5.332H7.5V9H8V7.7c0-.614.386-1 1-1h.2V4.161c0-.614.498-1.112 1.112-1.112h2.561c.437 0 .806.258.988.625L16.32 2.65a1.625 1.625 0 0 1 2.051.722l2.078 3.811A1.616 1.616 0 0 1 20.263 9h.433l.222-.887 1.164.291-1.855 7.419a1.625 1.625 0 0 1-1.576 1.231zM9.2 7.9V9h3.181l-.551-1.1H9.2zm1.2-3.651V6.7h.83l-.02-.04a1.625 1.625 0 0 1 .828-2.226l.444-.185H10.4zm6.381-.492L12.5 5.542a.425.425 0 0 0-.217.581L13.721 9h3.991l-.021-.05 1.49-.595a.425.425 0 0 0 .215-.598l-2.079-3.811a.425.425 0 0 0-.536-.189zm-6.55 14.145a2.649 2.649 0 1 1 0 5.298 2.649 2.649 0 0 1 0-5.298zm0 4.098a1.448 1.448 0 1 0 .002-2.896A1.448 1.448 0 0 0 10.231 22zm7.684-4.098a2.649 2.649 0 1 1-.002 5.298 2.649 2.649 0 0 1 .002-5.298zm0 4.098a1.448 1.448 0 1 0 0-2.896 1.448 1.448 0 0 0 0 2.896z"/></svg>