<svg xmlns="http://www.w3.org/2000/svg" width="24" height="24" viewBox="0 0 24 24" id="Vlt-icon-keypad"><path fill="#000" fill-rule="nonzero" d="M5 6.7a1.7 1.7 0 1 0 0-3.4 1.7 1.7 0 0 0 0 3.4zM5 8a3 3 0 1 1 0-6 3 3 0 0 1 0 6zm7-1.3a1.7 1.7 0 1 0 0-3.4 1.7 1.7 0 0 0 0 3.4zM12 8a3 3 0 1 1 0-6 3 3 0 0 1 0 6zm7-1.3a1.7 1.7 0 1 0 0-3.4 1.7 1.7 0 0 0 0 3.4zM19 8a3 3 0 1 1 0-6 3 3 0 0 1 0 6zM5 13.7a1.7 1.7 0 1 0 0-3.4 1.7 1.7 0 0 0 0 3.4zM5 15a3 3 0 1 1 0-6 3 3 0 0 1 0 6zm7-1.3a1.7 1.7 0 1 0 0-3.4 1.7 1.7 0 0 0 0 3.4zm0 1.3a3 3 0 1 1 0-6 3 3 0 0 1 0 6zm7-1.3a1.7 1.7 0 1 0 0-3.4 1.7 1.7 0 0 0 0 3.4zm0 1.3a3 3 0 1 1 0-6 3 3 0 0 1 0 6zM5 20.7a1.7 1.7 0 1 0 0-3.4 1.7 1.7 0 0 0 0 3.4zM5 22a3 3 0 1 1 0-6 3 3 0 0 1 0 6zm7-1.3a1.7 1.7 0 1 0 0-3.4 1.7 1.7 0 0 0 0 3.4zm0 1.3a3 3 0 1 1 0-6 3 3 0 0 1 0 6zm7-1.3a1.7 1.7 0 1 0 0-3.4 1.7 1.7 0 0 0 0 3.4zm0 1.3a3 3 0 1 1 0-6 3 3 0 0 1 0 6z"/></svg>