<svg xmlns="http://www.w3.org/2000/svg" width="24" height="24" viewBox="0 0 24 24" id="Vlt-icon-call-2"><path fill="#000" fill-rule="evenodd" d="M21.636 18.127c.57.353.738.742.625 1.196 0 0-.42 1.894-2.147 2.68-2.934 1.332-9.363-2.505-12.524-5.495C4.432 13.518.38 7.43 1.787 4.654c.83-1.636 2.83-2.034 2.826-2.034.48-.104.89.053 1.261.591.37.539 2.798 3.644 2.378 5.005-.42 1.362-1.475 1.315-1.204 2.492.271 1.177 2.01 3.002 2.753 3.704.741.7 2.67 2.346 3.915 2.604 1.244.254 1.193-.745 2.633-1.143 1.439-.398 4.721 1.903 5.287 2.254zM19.398 4.726a10.742 10.742 0 0 1 3.093 5.871c.042.353-.064.674-.284.902a.961.961 0 0 1-.54.293.99.99 0 0 1-1.161-.803 8.751 8.751 0 0 0-2.519-4.791 8.643 8.643 0 0 0-4.9-2.385.995.995 0 0 1-.843-1.134 1.028 1.028 0 0 1 1.138-.872 10.57 10.57 0 0 1 6.016 2.919zm-4.223 4.436a4.421 4.421 0 0 0-2.139-1.158.989.989 0 0 1-.74-1.207c.13-.551.668-.889 1.21-.768a6.468 6.468 0 0 1 3.08 1.665 6.418 6.418 0 0 1 1.739 2.98c.107.37-.009.729-.252.983a1 1 0 0 1-.461.273.983.983 0 0 1-1.225-.69 4.523 4.523 0 0 0-1.212-2.078z"/></svg>