<svg xmlns="http://www.w3.org/2000/svg" width="24" height="24" viewBox="0 0 24 24" id="Vlt-icon-pause-2"><path fill="#000" fill-rule="nonzero" d="M8.7 4.07c.3 0 .56.093.766.278a.96.96 0 0 1 .324.743v13.818a.96.96 0 0 1-.324.743 1.117 1.117 0 0 1-.766.278H5.13c-.302 0-.559-.094-.757-.283a.983.983 0 0 1-.303-.738V5.091c0-.295.102-.547.303-.738.198-.189.455-.283.757-.283H8.7zm10.14 0a1.077 1.077 0 0 1 1.09 1.02v13.82a.96.96 0 0 1-.324.742 1.117 1.117 0 0 1-.766.278h-3.6c-.281 0-.53-.094-.736-.278a.96.96 0 0 1-.324-.743V5.091a.96.96 0 0 1 .324-.743c.206-.184.455-.278.736-.278h3.6z"/></svg>