<svg xmlns="http://www.w3.org/2000/svg" width="24" height="24" viewBox="0 0 24 24" id="Vlt-icon-world-hand"><path fill="#000" fill-rule="nonzero" d="M18.23 16.492c.867-.637 2.008-.572 2.652.145.46.511.683 1.47-.197 2.491-.796.923-3.634 3.872-7.34 3.872-.09 0-.181-.002-.274-.005-1.516-.06-2.765-.427-3.867-.75-1.79-.527-3.205-.941-5.167.02a.571.571 0 0 1-.765-.271.586.586 0 0 1 .266-.778c2.359-1.155 4.12-.639 5.984-.09 1.09.32 2.216.65 3.594.705 3.347.144 5.975-2.624 6.705-3.471.155-.18.487-.632.214-.937-.219-.243-.702-.303-1.132.014-.77.565-3.45 2.109-4.93 2.235-1.148.109-4.509-.816-5.307-2.032-.248-.378-.28-.79-.089-1.162.59-1.147 1.84-.714 2.94-.334.653.225 1.394.48 2.15.544.576.049.964-.093 1.035-.38.055-.221-.071-.542-.372-.676-2.38-1.061-4.611-1.396-6.646-1.003-3.059.59-6.189 3.514-6.22 3.544a.569.569 0 0 1-.81-.03.59.59 0 0 1 .029-.824c.137-.13 3.4-3.182 6.786-3.835 2.267-.438 4.727-.076 7.309 1.075.798.354 1.237 1.227 1.036 2.036-.17.684-.84 1.372-2.243 1.254-.896-.076-1.707-.355-2.423-.602-1-.344-1.437-.454-1.553-.229.179.515 3.152 1.59 4.281 1.493 1.07-.091 3.464-1.364 4.354-2.019zM3.22 13.526a.573.573 0 0 1-.73-.358 9.847 9.847 0 0 1-.536-3.218C1.954 4.464 6.45 0 11.976 0 17.503 0 22 4.464 22 9.95a9.8 9.8 0 0 1-1.008 4.355.574.574 0 0 1-.77.261.586.586 0 0 1-.257-.781 8.613 8.613 0 0 0 .862-3.403h-3.355a17.556 17.556 0 0 1-.31 3.008.577.577 0 0 1-.677.455.583.583 0 0 1-.448-.687 16.17 16.17 0 0 0 .287-2.776h-3.773v1.124a.58.58 0 0 1-.574.583.58.58 0 0 1-.574-.583v-1.124h-3.78c.006.267.008.537.028.8a.58.58 0 0 1-.53.623.588.588 0 0 1-.614-.538c-.021-.29-.025-.59-.032-.885H3.12c.04.82.187 1.627.454 2.402a.586.586 0 0 1-.353.742H3.22zM5.972 3.5a8.723 8.723 0 0 0-2.831 5.717H6.48c.07-1.796.387-3.449.902-4.841A9.875 9.875 0 0 1 5.97 3.5h.002zm14.843 5.717A8.72 8.72 0 0 0 17.98 3.5a9.907 9.907 0 0 1-1.408.877c.514 1.392.831 3.044.901 4.84h3.342zM12.551 5.47v3.747h3.774c-.068-1.609-.366-3.105-.822-4.365-.943.353-1.938.56-2.952.618zM7.844 3.31a8.35 8.35 0 0 1 .973-1.559 8.847 8.847 0 0 0-1.913 1.001c.3.208.617.39.94.558zm3.559-2.054c-.962.266-1.836 1.183-2.503 2.526a8.94 8.94 0 0 0 2.503.522V1.256zm3.734.495c.359.447.683.973.972 1.56a9.27 9.27 0 0 0 .94-.559 8.909 8.909 0 0 0-1.912-1v-.001zm-2.586-.495v3.049a8.97 8.97 0 0 0 2.502-.524c-.666-1.342-1.54-2.258-2.502-2.525zm-4.925 7.96h3.777V5.47a10.094 10.094 0 0 1-2.953-.617c-.457 1.26-.753 2.755-.824 4.364v-.001z"/></svg>