<svg xmlns="http://www.w3.org/2000/svg" width="26" height="24" viewBox="0 0 26 24" id="Vlt-icon-refresh"><path fill="#000" fill-rule="nonzero" d="M7.222 9.61l-3.359 3.049-3.15-3.066a.71.71 0 0 1-.018-.996.692.692 0 0 1 .986-.018l1.392 1.355C3.903 5.126 8.04 1.5 13 1.5c4.018 0 7.604 2.391 9.22 6.03a.708.708 0 0 1-.352.931.696.696 0 0 1-.922-.355c-1.391-3.137-4.483-5.198-7.946-5.198-4.3 0-7.884 3.162-8.57 7.34L6.29 8.563a.693.693 0 0 1 .985.053.71.71 0 0 1-.052.995zm18.065 4.449a.71.71 0 0 1 .018.995.693.693 0 0 1-.986.019l-1.392-1.354c-.83 4.806-4.968 8.433-9.928 8.433-4.018 0-7.604-2.392-9.219-6.03a.706.706 0 0 1 .351-.931c.35-.16.764 0 .922.354 1.391 3.137 4.483 5.199 7.946 5.199 4.3 0 7.884-3.162 8.57-7.342L19.71 15.09a.694.694 0 0 1-.985-.052.71.71 0 0 1 .052-.994l3.359-3.05 3.15 3.066z"/></svg>